<?xml version="1.0" encoding="UTF-8" standalone="no"?>
<!DOCTYPE svg PUBLIC "-//W3C//DTD SVG 1.1//EN"
 "http://www.w3.org/Graphics/SVG/1.1/DTD/svg11.dtd">
<!-- Generated by graphviz version 2.43.0 (0)
 -->
<!-- Title: UnifiedArchitecture Pages: 1 -->
<svg width="3137pt" height="3642pt"
 viewBox="0.00 0.00 3137.20 3642.20" xmlns="http://www.w3.org/2000/svg" xmlns:xlink="http://www.w3.org/1999/xlink">
<g id="graph0" class="graph" transform="scale(1 1) rotate(0) translate(21.6 3620.6)">
<title>UnifiedArchitecture</title>
<polygon fill="#0d1117" stroke="transparent" points="-21.6,21.6 -21.6,-3620.6 3115.6,-3620.6 3115.6,21.6 -21.6,21.6"/>
<!-- Aegis_Agents -->
<g id="node1" class="node">
<title>Aegis_Agents</title>
<path fill="#161b22" stroke="#58a6ff" d="M215,-1135C215,-1135 41,-1135 41,-1135 35,-1135 29,-1129 29,-1123 29,-1123 29,-1109 29,-1109 29,-1103 35,-1097 41,-1097 41,-1097 215,-1097 215,-1097 221,-1097 227,-1103 227,-1109 227,-1109 227,-1123 227,-1123 227,-1129 221,-1135 215,-1135"/>
<text text-anchor="middle" x="128" y="-1119.8" font-family="Courier,monospace" font-size="14.00" fill="#c9d1d9">Aegis_Agents</text>
<text text-anchor="middle" x="128" y="-1104.8" font-family="Courier,monospace" font-size="14.00" fill="#c9d1d9">[Telemetry, Agent/BDI]</text>
</g>
<!-- Chrisalunlloyd2&#45;sudo -->
<g id="node2" class="node">
<title>Chrisalunlloyd2&#45;sudo</title>
<path fill="#161b22" stroke="#58a6ff" d="M536,-971C536,-971 362,-971 362,-971 356,-971 350,-965 350,-959 350,-959 350,-945 350,-945 350,-939 356,-933 362,-933 362,-933 536,-933 536,-933 542,-933 548,-939 548,-945 548,-945 548,-959 548,-959 548,-965 542,-971 536,-971"/>
<text text-anchor="middle" x="449" y="-955.8" font-family="Courier,monospace" font-size="14.00" fill="#c9d1d9">Chrisalunlloyd2&#45;sudo</text>
<text text-anchor="middle" x="449" y="-940.8" font-family="Courier,monospace" font-size="14.00" fill="#c9d1d9">[Telemetry, Agent/BDI]</text>
</g>
<!-- Aegis_Agents&#45;&gt;Chrisalunlloyd2&#45;sudo -->
<g id="edge1" class="edge">
<title>Aegis_Agents&#45;&gt;Chrisalunlloyd2&#45;sudo</title>
<path fill="none" stroke="#58a6ff" stroke-width="1.2" d="M166.22,-1096.87C225.28,-1066.5 340.27,-1007.39 403.56,-974.84"/>
<polygon fill="#58a6ff" stroke="#58a6ff" stroke-width="1.2" points="405.18,-977.16 411.02,-971.01 402.62,-972.18 405.18,-977.16"/>
<text text-anchor="middle" x="303" y="-1040.8" font-family="Courier,monospace" font-size="9.00" fill="#8b949e"> Telemetry </text>
</g>
<!-- H2OIDE -->
<g id="node3" class="node">
<title>H2OIDE</title>
<path fill="#161b22" stroke="#58a6ff" d="M737,-709C737,-709 654,-709 654,-709 648,-709 642,-703 642,-697 642,-697 642,-683 642,-683 642,-677 648,-671 654,-671 654,-671 737,-671 737,-671 743,-671 749,-677 749,-683 749,-683 749,-697 749,-697 749,-703 743,-709 737,-709"/>
<text text-anchor="middle" x="695.5" y="-693.8" font-family="Courier,monospace" font-size="14.00" fill="#c9d1d9">H2OIDE</text>
<text text-anchor="middle" x="695.5" y="-678.8" font-family="Courier,monospace" font-size="14.00" fill="#c9d1d9">[Telemetry]</text>
</g>
<!-- Aegis_Agents&#45;&gt;H2OIDE -->
<g id="edge2" class="edge">
<title>Aegis_Agents&#45;&gt;H2OIDE</title>
<path fill="none" stroke="#58a6ff" stroke-width="1.2" d="M148.34,-1096.72C185.85,-1059.68 271.7,-976.72 350,-914 441.42,-840.78 466.97,-825.55 566,-763 593.94,-745.35 626.29,-726.99 651.54,-713.09"/>
<polygon fill="#58a6ff" stroke="#58a6ff" stroke-width="1.2" points="653.13,-715.41 658.8,-709.11 650.44,-710.5 653.13,-715.41"/>
<text text-anchor="middle" x="449" y="-916.8" font-family="Courier,monospace" font-size="9.00" fill="#8b949e"> Telemetry </text>
</g>
<!-- H2OMatrixCE -->
<g id="node4" class="node">
<title>H2OMatrixCE</title>
<path fill="#161b22" stroke="#58a6ff" d="M938,-541C938,-541 855,-541 855,-541 849,-541 843,-535 843,-529 843,-529 843,-515 843,-515 843,-509 849,-503 855,-503 855,-503 938,-503 938,-503 944,-503 950,-509 950,-515 950,-515 950,-529 950,-529 950,-535 944,-541 938,-541"/>
<text text-anchor="middle" x="896.5" y="-525.8" font-family="Courier,monospace" font-size="14.00" fill="#c9d1d9">H2OMatrixCE</text>
<text text-anchor="middle" x="896.5" y="-510.8" font-family="Courier,monospace" font-size="14.00" fill="#c9d1d9">[Telemetry]</text>
</g>
<!-- Aegis_Agents&#45;&gt;H2OMatrixCE -->
<g id="edge3" class="edge">
<title>Aegis_Agents&#45;&gt;H2OMatrixCE</title>
<path fill="none" stroke="#58a6ff" stroke-width="1.2" d="M137.7,-1096.86C163.64,-1041.25 245.24,-876.91 350,-770 497.83,-619.13 560.25,-585.26 767,-542 788.95,-537.41 813.2,-533.37 834.68,-530.14"/>
<polygon fill="#58a6ff" stroke="#58a6ff" stroke-width="1.2" points="835.26,-532.89 842.76,-528.95 834.44,-527.35 835.26,-532.89"/>
<text text-anchor="middle" x="595" y="-602.8" font-family="Courier,monospace" font-size="9.00" fill="#8b949e"> Telemetry </text>
</g>
<!-- MasterLogs -->
<g id="node6" class="node">
<title>MasterLogs</title>
<path fill="#161b22" stroke="#58a6ff" d="M1176.5,-377C1176.5,-377 1093.5,-377 1093.5,-377 1087.5,-377 1081.5,-371 1081.5,-365 1081.5,-365 1081.5,-351 1081.5,-351 1081.5,-345 1087.5,-339 1093.5,-339 1093.5,-339 1176.5,-339 1176.5,-339 1182.5,-339 1188.5,-345 1188.5,-351 1188.5,-351 1188.5,-365 1188.5,-365 1188.5,-371 1182.5,-377 1176.5,-377"/>
<text text-anchor="middle" x="1135" y="-361.8" font-family="Courier,monospace" font-size="14.00" fill="#c9d1d9">MasterLogs</text>
<text text-anchor="middle" x="1135" y="-346.8" font-family="Courier,monospace" font-size="14.00" fill="#c9d1d9">[Telemetry]</text>
</g>
<!-- Aegis_Agents&#45;&gt;MasterLogs -->
<g id="edge4" class="edge">
<title>Aegis_Agents&#45;&gt;MasterLogs</title>
<path fill="none" stroke="#58a6ff" stroke-width="1.2" d="M131.16,-1096.88C146.73,-963.71 246.92,-180 448,-180 448,-180 448,-180 797,-180 926.71,-180 1055.37,-284.37 1108.54,-333.27"/>
<polygon fill="#58a6ff" stroke="#58a6ff" stroke-width="1.2" points="1106.88,-335.55 1114.64,-338.95 1110.69,-331.45 1106.88,-335.55"/>
<text text-anchor="middle" x="695.5" y="-182.8" font-family="Courier,monospace" font-size="9.00" fill="#8b949e"> Telemetry </text>
</g>
<!-- MatrixCE_GUI -->
<g id="node7" class="node">
<title>MatrixCE_GUI</title>
<path fill="#161b22" stroke="#58a6ff" d="M1214,-1236C1214,-1236 1056,-1236 1056,-1236 1050,-1236 1044,-1230 1044,-1224 1044,-1224 1044,-1210 1044,-1210 1044,-1204 1050,-1198 1056,-1198 1056,-1198 1214,-1198 1214,-1198 1220,-1198 1226,-1204 1226,-1210 1226,-1210 1226,-1224 1226,-1224 1226,-1230 1220,-1236 1214,-1236"/>
<text text-anchor="middle" x="1135" y="-1220.8" font-family="Courier,monospace" font-size="14.00" fill="#c9d1d9">MatrixCE_GUI</text>
<text text-anchor="middle" x="1135" y="-1205.8" font-family="Courier,monospace" font-size="14.00" fill="#c9d1d9">[API/Web, Agent/BDI]</text>
</g>
<!-- Aegis_Agents&#45;&gt;MatrixCE_GUI -->
<g id="edge5" class="edge">
<title>Aegis_Agents&#45;&gt;MatrixCE_GUI</title>
<path fill="none" stroke="#58a6ff" stroke-width="1.2" d="M224.52,-1135.04C235.22,-1137.77 245.9,-1140.76 256,-1144 344.36,-1172.33 355.21,-1226 448,-1226 448,-1226 448,-1226 897.5,-1226 942.95,-1226 993.28,-1224.32 1035.79,-1222.41"/>
<polygon fill="#58a6ff" stroke="#58a6ff" stroke-width="1.2" points="1036.04,-1225.2 1043.91,-1222.04 1035.79,-1219.61 1036.04,-1225.2"/>
<text text-anchor="middle" x="695.5" y="-1228.8" font-family="Courier,monospace" font-size="9.00" fill="#8b949e"> Agent/BDI </text>
</g>
<!-- MATRIX_GEN8_HOME -->
<g id="node8" class="node">
<title>MATRIX_GEN8_HOME</title>
<path fill="#161b22" stroke="#58a6ff" d="M1490,-1021C1490,-1021 1332,-1021 1332,-1021 1326,-1021 1320,-1015 1320,-1009 1320,-1009 1320,-995 1320,-995 1320,-989 1326,-983 1332,-983 1332,-983 1490,-983 1490,-983 1496,-983 1502,-989 1502,-995 1502,-995 1502,-1009 1502,-1009 1502,-1015 1496,-1021 1490,-1021"/>
<text text-anchor="middle" x="1411" y="-1005.8" font-family="Courier,monospace" font-size="14.00" fill="#c9d1d9">MATRIX_GEN8_HOME</text>
<text text-anchor="middle" x="1411" y="-990.8" font-family="Courier,monospace" font-size="14.00" fill="#c9d1d9">[API/Web, Agent/BDI]</text>
</g>
<!-- Aegis_Agents&#45;&gt;MATRIX_GEN8_HOME -->
<g id="edge6" class="edge">
<title>Aegis_Agents&#45;&gt;MATRIX_GEN8_HOME</title>
<path fill="none" stroke="#58a6ff" stroke-width="1.2" d="M227.1,-1128.01C237.5,-1132.01 247.4,-1137.22 256,-1144 270.36,-1155.32 261.48,-1167.67 274,-1181 332.68,-1243.44 362.32,-1264 448,-1264 448,-1264 448,-1264 998,-1264 1099.68,-1264 1137.21,-1294.56 1226,-1245 1275.68,-1217.27 1276.79,-1193 1302,-1142 1314.72,-1116.28 1304.53,-1104.16 1320,-1080 1333.71,-1058.6 1355,-1039.77 1373.43,-1025.97"/>
<polygon fill="#58a6ff" stroke="#58a6ff" stroke-width="1.2" points="1375.26,-1028.1 1380.07,-1021.12 1371.96,-1023.58 1375.26,-1028.1"/>
<text text-anchor="middle" x="796" y="-1266.8" font-family="Courier,monospace" font-size="9.00" fill="#8b949e"> Telemetry </text>
</g>
<!-- mind&#45;palace -->
<g id="node9" class="node">
<title>mind&#45;palace</title>
<path fill="#161b22" stroke="#58a6ff" d="M1728.5,-768C1728.5,-768 1645.5,-768 1645.5,-768 1639.5,-768 1633.5,-762 1633.5,-756 1633.5,-756 1633.5,-742 1633.5,-742 1633.5,-736 1639.5,-730 1645.5,-730 1645.5,-730 1728.5,-730 1728.5,-730 1734.5,-730 1740.5,-736 1740.5,-742 1740.5,-742 1740.5,-756 1740.5,-756 1740.5,-762 1734.5,-768 1728.5,-768"/>
<text text-anchor="middle" x="1687" y="-752.8" font-family="Courier,monospace" font-size="14.00" fill="#c9d1d9">mind&#45;palace</text>
<text text-anchor="middle" x="1687" y="-737.8" font-family="Courier,monospace" font-size="14.00" fill="#c9d1d9">[Telemetry]</text>
</g>
<!-- Aegis_Agents&#45;&gt;mind&#45;palace -->
<g id="edge7" class="edge">
<title>Aegis_Agents&#45;&gt;mind&#45;palace</title>
<path fill="none" stroke="#58a6ff" stroke-width="1.2" d="M227.08,-1109.78C350.06,-1100.73 566.87,-1080.63 749,-1042 840.45,-1022.6 876.42,-1037.67 950,-980 962.24,-970.41 954.93,-958.43 968,-950 1016.5,-918.7 1168.92,-928.57 1226,-920 1259.97,-914.9 1268.95,-915.36 1302,-906 1428.37,-870.21 1569.55,-805.74 1640.32,-771.62"/>
<polygon fill="#58a6ff" stroke="#58a6ff" stroke-width="1.2" points="1641.79,-774.02 1647.77,-768.01 1639.35,-768.98 1641.79,-774.02"/>
<text text-anchor="middle" x="896.5" y="-1029.8" font-family="Courier,monospace" font-size="9.00" fill="#8b949e"> Telemetry </text>
</g>
<!-- mindpalace -->
<g id="node10" class="node">
<title>mindpalace</title>
<path fill="#161b22" stroke="#58a6ff" d="M2112,-863C2112,-863 1905,-863 1905,-863 1899,-863 1893,-857 1893,-851 1893,-851 1893,-837 1893,-837 1893,-831 1899,-825 1905,-825 1905,-825 2112,-825 2112,-825 2118,-825 2124,-831 2124,-837 2124,-837 2124,-851 2124,-851 2124,-857 2118,-863 2112,-863"/>
<text text-anchor="middle" x="2008.5" y="-847.8" font-family="Courier,monospace" font-size="14.00" fill="#c9d1d9">mindpalace</text>
<text text-anchor="middle" x="2008.5" y="-832.8" font-family="Courier,monospace" font-size="14.00" fill="#c9d1d9">[Telemetry, Orchestration]</text>
</g>
<!-- Aegis_Agents&#45;&gt;mindpalace -->
<g id="edge8" class="edge">
<title>Aegis_Agents&#45;&gt;mindpalace</title>
<path fill="none" stroke="#58a6ff" stroke-width="1.2" d="M227.14,-1124.66C237.99,-1129.17 247.99,-1135.42 256,-1144 292.81,-1183.41 245.16,-1218.43 274,-1264 319.93,-1336.56 362.13,-1348 448,-1348 448,-1348 448,-1348 1136,-1348 1172.11,-1348 1749.7,-1269.42 1778,-1247 1884.11,-1162.97 1819.67,-1078.77 1893,-965 1916.98,-927.8 1953.2,-891.84 1978.47,-868.92"/>
<polygon fill="#58a6ff" stroke="#58a6ff" stroke-width="1.2" points="1980.55,-870.81 1984.64,-863.39 1976.81,-866.64 1980.55,-870.81"/>
<text text-anchor="middle" x="997" y="-1350.8" font-family="Courier,monospace" font-size="9.00" fill="#8b949e"> Telemetry </text>
</g>
<!-- Nova -->
<g id="node11" class="node">
<title>Nova</title>
<path fill="#161b22" stroke="#58a6ff" d="M2313,-507C2313,-507 2230,-507 2230,-507 2224,-507 2218,-501 2218,-495 2218,-495 2218,-481 2218,-481 2218,-475 2224,-469 2230,-469 2230,-469 2313,-469 2313,-469 2319,-469 2325,-475 2325,-481 2325,-481 2325,-495 2325,-495 2325,-501 2319,-507 2313,-507"/>
<text text-anchor="middle" x="2271.5" y="-491.8" font-family="Courier,monospace" font-size="14.00" fill="#c9d1d9">Nova</text>
<text text-anchor="middle" x="2271.5" y="-476.8" font-family="Courier,monospace" font-size="14.00" fill="#c9d1d9">[Telemetry]</text>
</g>
<!-- Aegis_Agents&#45;&gt;Nova -->
<g id="edge9" class="edge">
<title>Aegis_Agents&#45;&gt;Nova</title>
<path fill="none" stroke="#58a6ff" stroke-width="1.2" d="M128.9,-1096.94C129.08,-1002.84 137.77,-580.13 274,-273 314.58,-181.5 347.9,-130 448,-130 448,-130 448,-130 998,-130 1248.64,-130 1920.58,-48.57 2124,-195 2215.73,-261.03 2253.32,-401.11 2265.56,-460.48"/>
<polygon fill="#58a6ff" stroke="#58a6ff" stroke-width="1.2" points="2262.87,-461.34 2267.18,-468.64 2268.36,-460.24 2262.87,-461.34"/>
<text text-anchor="middle" x="1135" y="-132.8" font-family="Courier,monospace" font-size="9.00" fill="#8b949e"> Telemetry </text>
</g>
<!-- openrouter_manager -->
<g id="node12" class="node">
<title>openrouter_manager</title>
<path fill="#161b22" stroke="#58a6ff" d="M1766,-1238C1766,-1238 1608,-1238 1608,-1238 1602,-1238 1596,-1232 1596,-1226 1596,-1226 1596,-1212 1596,-1212 1596,-1206 1602,-1200 1608,-1200 1608,-1200 1766,-1200 1766,-1200 1772,-1200 1778,-1206 1778,-1212 1778,-1212 1778,-1226 1778,-1226 1778,-1232 1772,-1238 1766,-1238"/>
<text text-anchor="middle" x="1687" y="-1222.8" font-family="Courier,monospace" font-size="14.00" fill="#c9d1d9">openrouter_manager</text>
<text text-anchor="middle" x="1687" y="-1207.8" font-family="Courier,monospace" font-size="14.00" fill="#c9d1d9">[API/Web, Agent/BDI]</text>
</g>
<!-- Aegis_Agents&#45;&gt;openrouter_manager -->
<g id="edge10" class="edge">
<title>Aegis_Agents&#45;&gt;openrouter_manager</title>
<path fill="none" stroke="#58a6ff" stroke-width="1.2" d="M227.12,-1125.54C237.84,-1129.93 247.81,-1135.91 256,-1144 281.01,-1168.69 253.49,-1192.46 274,-1221 324.7,-1291.53 361.14,-1310 448,-1310 448,-1310 448,-1310 1136,-1310 1222.18,-1310 1454.6,-1265.97 1588.1,-1239.16"/>
<polygon fill="#58a6ff" stroke="#58a6ff" stroke-width="1.2" points="1588.67,-1241.9 1595.96,-1237.58 1587.57,-1236.41 1588.67,-1241.9"/>
<text text-anchor="middle" x="896.5" y="-1312.8" font-family="Courier,monospace" font-size="9.00" fill="#8b949e"> Agent/BDI </text>
</g>
<!-- sims&#45;java&#45;neo&#45;fx -->
<g id="node13" class="node">
<title>sims&#45;java&#45;neo&#45;fx</title>
<path fill="#161b22" stroke="#58a6ff" d="M2556,-718C2556,-718 2431,-718 2431,-718 2425,-718 2419,-712 2419,-706 2419,-706 2419,-692 2419,-692 2419,-686 2425,-680 2431,-680 2431,-680 2556,-680 2556,-680 2562,-680 2568,-686 2568,-692 2568,-692 2568,-706 2568,-706 2568,-712 2562,-718 2556,-718"/>
<text text-anchor="middle" x="2493.5" y="-702.8" font-family="Courier,monospace" font-size="14.00" fill="#c9d1d9">sims&#45;java&#45;neo&#45;fx</text>
<text text-anchor="middle" x="2493.5" y="-687.8" font-family="Courier,monospace" font-size="14.00" fill="#c9d1d9">[Telemetry]</text>
</g>
<!-- Aegis_Agents&#45;&gt;sims&#45;java&#45;neo&#45;fx -->
<g id="edge11" class="edge">
<title>Aegis_Agents&#45;&gt;sims&#45;java&#45;neo&#45;fx</title>
<path fill="none" stroke="#58a6ff" stroke-width="1.2" d="M227.16,-1124.23C238.07,-1128.8 248.08,-1135.18 256,-1144 280.49,-1171.28 254.43,-1277 274,-1308 319.24,-1379.66 363.25,-1386 448,-1386 448,-1386 448,-1386 998,-1386 1606.39,-1386 1804.53,-1365.04 2325,-1050 2362.53,-1027.28 2378.3,-1024.55 2401,-987 2420.97,-953.95 2408.4,-939.13 2419,-902 2437.39,-837.56 2465.94,-764.12 2481.49,-725.68"/>
<polygon fill="#58a6ff" stroke="#58a6ff" stroke-width="1.2" points="2484.19,-726.49 2484.61,-718.02 2479,-724.38 2484.19,-726.49"/>
<text text-anchor="middle" x="1273" y="-1385.8" font-family="Courier,monospace" font-size="9.00" fill="#8b949e"> Telemetry </text>
</g>
<!-- sims&#45;javafx&#45;neo -->
<g id="node14" class="node">
<title>sims&#45;javafx&#45;neo</title>
<path fill="#161b22" stroke="#58a6ff" d="M2790,-480C2790,-480 2674,-480 2674,-480 2668,-480 2662,-474 2662,-468 2662,-468 2662,-454 2662,-454 2662,-448 2668,-442 2674,-442 2674,-442 2790,-442 2790,-442 2796,-442 2802,-448 2802,-454 2802,-454 2802,-468 2802,-468 2802,-474 2796,-480 2790,-480"/>
<text text-anchor="middle" x="2732" y="-464.8" font-family="Courier,monospace" font-size="14.00" fill="#c9d1d9">sims&#45;javafx&#45;neo</text>
<text text-anchor="middle" x="2732" y="-449.8" font-family="Courier,monospace" font-size="14.00" fill="#c9d1d9">[Telemetry]</text>
</g>
<!-- Aegis_Agents&#45;&gt;sims&#45;javafx&#45;neo -->
<g id="edge12" class="edge">
<title>Aegis_Agents&#45;&gt;sims&#45;javafx&#45;neo</title>
<path fill="none" stroke="#58a6ff" stroke-width="1.2" d="M130.31,-1096.8C138.63,-978.05 186.68,-343.14 274,-172 323.42,-75.14 339.26,0 448,0 448,0 448,0 2494.5,0 2690.72,0 2724.26,-334.73 2729.89,-433.74"/>
<polygon fill="#58a6ff" stroke="#58a6ff" stroke-width="1.2" points="2727.09,-433.94 2730.31,-441.78 2732.69,-433.64 2727.09,-433.94"/>
<text text-anchor="middle" x="1411" y="-2.8" font-family="Courier,monospace" font-size="9.00" fill="#8b949e"> Telemetry </text>
</g>
<!-- SimsMerged -->
<g id="node15" class="node">
<title>SimsMerged</title>
<path fill="#161b22" stroke="#58a6ff" d="M3082,-718C3082,-718 2908,-718 2908,-718 2902,-718 2896,-712 2896,-706 2896,-706 2896,-692 2896,-692 2896,-686 2902,-680 2908,-680 2908,-680 3082,-680 3082,-680 3088,-680 3094,-686 3094,-692 3094,-692 3094,-706 3094,-706 3094,-712 3088,-718 3082,-718"/>
<text text-anchor="middle" x="2995" y="-702.8" font-family="Courier,monospace" font-size="14.00" fill="#c9d1d9">SimsMerged</text>
<text text-anchor="middle" x="2995" y="-687.8" font-family="Courier,monospace" font-size="14.00" fill="#c9d1d9">[Telemetry, Agent/BDI]</text>
</g>
<!-- Aegis_Agents&#45;&gt;SimsMerged -->
<g id="edge13" class="edge">
<title>Aegis_Agents&#45;&gt;SimsMerged</title>
<path fill="none" stroke="#58a6ff" stroke-width="1.2" d="M227.03,-1123.93C238.04,-1128.54 248.11,-1135.01 256,-1144 286.46,-1178.71 249.22,-1312.04 274,-1351 319,-1421.77 364.14,-1424 448,-1424 448,-1424 448,-1424 2733,-1424 2744.16,-1424 2875.79,-1279.28 2878,-1275 2977.45,-1082.17 2991.72,-812.15 2993.7,-726.32"/>
<polygon fill="#58a6ff" stroke="#58a6ff" stroke-width="1.2" points="2996.51,-726.19 2993.87,-718.14 2990.91,-726.08 2996.51,-726.19"/>
<text text-anchor="middle" x="1549" y="-1426.8" font-family="Courier,monospace" font-size="9.00" fill="#8b949e"> Telemetry </text>
</g>
<!-- Chrisalunlloyd2&#45;sudo&#45;&gt;H2OIDE -->
<g id="edge14" class="edge">
<title>Chrisalunlloyd2&#45;sudo&#45;&gt;H2OIDE</title>
<path fill="none" stroke="#58a6ff" stroke-width="1.2" d="M467.98,-932.73C511.43,-886.18 622.14,-767.54 670.87,-715.32"/>
<polygon fill="#58a6ff" stroke="#58a6ff" stroke-width="1.2" points="673.08,-717.05 676.49,-709.29 668.99,-713.23 673.08,-717.05"/>
<text text-anchor="middle" x="595" y="-823.8" font-family="Courier,monospace" font-size="9.00" fill="#8b949e"> Telemetry </text>
</g>
<!-- Chrisalunlloyd2&#45;sudo&#45;&gt;H2OMatrixCE -->
<g id="edge15" class="edge">
<title>Chrisalunlloyd2&#45;sudo&#45;&gt;H2OMatrixCE</title>
<path fill="none" stroke="#58a6ff" stroke-width="1.2" d="M543.21,-932.81C544.9,-931.31 546.5,-929.71 548,-928 572.31,-900.26 553.2,-797.59 566,-763 586.75,-706.93 598.47,-692.99 642,-652 698.14,-599.13 779.93,-562.44 835.3,-541.83"/>
<polygon fill="#58a6ff" stroke="#58a6ff" stroke-width="1.2" points="836.39,-544.41 842.93,-539.03 834.46,-539.16 836.39,-544.41"/>
<text text-anchor="middle" x="695.5" y="-654.8" font-family="Courier,monospace" font-size="9.00" fill="#8b949e"> Telemetry </text>
</g>
<!-- Chrisalunlloyd2&#45;sudo&#45;&gt;MasterLogs -->
<g id="edge16" class="edge">
<title>Chrisalunlloyd2&#45;sudo&#45;&gt;MasterLogs</title>
<path fill="none" stroke="#58a6ff" stroke-width="1.2" d="M543.3,-932.89C544.96,-931.37 546.53,-929.74 548,-928 585.72,-883.18 544.01,-719.3 566,-665 601.5,-577.34 824.68,-406.45 843,-397 915.83,-359.42 1011.96,-353.66 1073.4,-354.58"/>
<polygon fill="#58a6ff" stroke="#58a6ff" stroke-width="1.2" points="1073.41,-357.38 1081.46,-354.74 1073.52,-351.78 1073.41,-357.38"/>
<text text-anchor="middle" x="796" y="-454.8" font-family="Courier,monospace" font-size="9.00" fill="#8b949e"> Telemetry </text>
</g>
<!-- Chrisalunlloyd2&#45;sudo&#45;&gt;MatrixCE_GUI -->
<g id="edge17" class="edge">
<title>Chrisalunlloyd2&#45;sudo&#45;&gt;MatrixCE_GUI</title>
<path fill="none" stroke="#58a6ff" stroke-width="1.2" d="M459.92,-971.14C483.95,-1015.02 550.18,-1121.73 642,-1156 711.96,-1182.11 913.11,-1200.85 1035.47,-1210.21"/>
<polygon fill="#58a6ff" stroke="#58a6ff" stroke-width="1.2" points="1035.58,-1213.03 1043.77,-1210.84 1036.01,-1207.45 1035.58,-1213.03"/>
<text text-anchor="middle" x="796" y="-1191.8" font-family="Courier,monospace" font-size="9.00" fill="#8b949e"> Agent/BDI </text>
</g>
<!-- Chrisalunlloyd2&#45;sudo&#45;&gt;MATRIX_GEN8_HOME -->
<g id="edge18" class="edge">
<title>Chrisalunlloyd2&#45;sudo&#45;&gt;MATRIX_GEN8_HOME</title>
<path fill="none" stroke="#58a6ff" stroke-width="1.2" d="M548.27,-953.01C649.15,-954.45 810.64,-957.89 950,-966 1080.96,-973.62 1113.18,-982.28 1244,-992 1265.92,-993.63 1289.49,-995.17 1311.79,-996.54"/>
<polygon fill="#58a6ff" stroke="#58a6ff" stroke-width="1.2" points="1311.79,-999.35 1319.94,-997.04 1312.12,-993.76 1311.79,-999.35"/>
<text text-anchor="middle" x="896.5" y="-968.8" font-family="Courier,monospace" font-size="9.00" fill="#8b949e"> Telemetry </text>
</g>
<!-- Chrisalunlloyd2&#45;sudo&#45;&gt;mind&#45;palace -->
<g id="edge19" class="edge">
<title>Chrisalunlloyd2&#45;sudo&#45;&gt;mind&#45;palace</title>
<path fill="none" stroke="#58a6ff" stroke-width="1.2" d="M548.18,-937.45C808.9,-898.82 1499.06,-796.55 1502,-796 1543.59,-788.28 1589.71,-776.49 1625.37,-766.65"/>
<polygon fill="#58a6ff" stroke="#58a6ff" stroke-width="1.2" points="1626.31,-769.3 1633.27,-764.46 1624.81,-763.9 1626.31,-769.3"/>
<text text-anchor="middle" x="997" y="-876.8" font-family="Courier,monospace" font-size="9.00" fill="#8b949e"> Telemetry </text>
</g>
<!-- Chrisalunlloyd2&#45;sudo&#45;&gt;mindpalace -->
<g id="edge20" class="edge">
<title>Chrisalunlloyd2&#45;sudo&#45;&gt;mindpalace</title>
<path fill="none" stroke="#58a6ff" stroke-width="1.2" d="M548.04,-965.5C772.9,-995.45 1320.35,-1062.36 1502,-1030 1592.8,-1013.82 1843.82,-912.14 1954.22,-866.33"/>
<polygon fill="#58a6ff" stroke="#58a6ff" stroke-width="1.2" points="1955.61,-868.78 1961.92,-863.13 1953.46,-863.61 1955.61,-868.78"/>
<text text-anchor="middle" x="1135" y="-1036.8" font-family="Courier,monospace" font-size="9.00" fill="#8b949e"> Telemetry </text>
</g>
<!-- Chrisalunlloyd2&#45;sudo&#45;&gt;Nova -->
<g id="edge21" class="edge">
<title>Chrisalunlloyd2&#45;sudo&#45;&gt;Nova</title>
<path fill="none" stroke="#58a6ff" stroke-width="1.2" d="M543.34,-932.92C544.99,-931.39 546.55,-929.75 548,-928 572.54,-898.34 554.04,-618.59 566,-582 585.15,-523.42 599.44,-510.59 642,-466 765.5,-336.61 800.14,-291.79 968,-230 1095.19,-183.18 1136.47,-206 1272,-206 1272,-206 1272,-206 1836.5,-206 1966.94,-206 2033.5,-171.06 2124,-265 2157.76,-300.04 2117.29,-331.08 2142,-373 2158.71,-401.34 2175.32,-397.24 2200,-419 2215.82,-432.95 2232.73,-449.44 2246.03,-462.81"/>
<polygon fill="#58a6ff" stroke="#58a6ff" stroke-width="1.2" points="2244.25,-464.99 2251.86,-468.71 2248.23,-461.05 2244.25,-464.99"/>
<text text-anchor="middle" x="1273" y="-208.8" font-family="Courier,monospace" font-size="9.00" fill="#8b949e"> Telemetry </text>
</g>
<!-- Chrisalunlloyd2&#45;sudo&#45;&gt;openrouter_manager -->
<g id="edge22" class="edge">
<title>Chrisalunlloyd2&#45;sudo&#45;&gt;openrouter_manager</title>
<path fill="none" stroke="#58a6ff" stroke-width="1.2" d="M462.04,-971.08C480.71,-999 519.41,-1050.53 566,-1077 645.43,-1122.13 676.8,-1105.53 767,-1120 923.26,-1145.06 1384.27,-1190.27 1587.67,-1209.71"/>
<polygon fill="#58a6ff" stroke="#58a6ff" stroke-width="1.2" points="1587.46,-1212.5 1595.69,-1210.47 1587.99,-1206.93 1587.46,-1212.5"/>
<text text-anchor="middle" x="997" y="-1153.8" font-family="Courier,monospace" font-size="9.00" fill="#8b949e"> Agent/BDI </text>
</g>
<!-- Chrisalunlloyd2&#45;sudo&#45;&gt;sims&#45;java&#45;neo&#45;fx -->
<g id="edge23" class="edge">
<title>Chrisalunlloyd2&#45;sudo&#45;&gt;sims&#45;java&#45;neo&#45;fx</title>
<path fill="none" stroke="#58a6ff" stroke-width="1.2" d="M512.29,-971.05C529.59,-975.98 548.44,-981.01 566,-985 708.1,-1017.27 895.81,-1037.87 1044,-1048 1556.62,-1083.04 1704.18,-1196.78 2200,-1062 2299.96,-1034.83 2334.37,-1023.32 2401,-944 2408.37,-935.22 2461.05,-787.85 2482.97,-725.99"/>
<polygon fill="#58a6ff" stroke="#58a6ff" stroke-width="1.2" points="2485.7,-726.68 2485.73,-718.2 2480.42,-724.81 2485.7,-726.68"/>
<text text-anchor="middle" x="1411" y="-1105.8" font-family="Courier,monospace" font-size="9.00" fill="#8b949e"> Telemetry </text>
</g>
<!-- Chrisalunlloyd2&#45;sudo&#45;&gt;sims&#45;javafx&#45;neo -->
<g id="edge24" class="edge">
<title>Chrisalunlloyd2&#45;sudo&#45;&gt;sims&#45;javafx&#45;neo</title>
<path fill="none" stroke="#58a6ff" stroke-width="1.2" d="M543.37,-932.94C545.01,-931.41 546.56,-929.76 548,-928 579.47,-889.52 551.88,-528.66 566,-481 584.79,-417.56 595.27,-399.84 642,-353 788.16,-206.48 845.39,-176.19 1044,-118 1369.09,-22.75 2244.05,-54.93 2568,-154 2605.11,-165.35 2619.38,-167 2644,-197 2703.01,-268.92 2722.48,-382.22 2728.5,-433.8"/>
<polygon fill="#58a6ff" stroke="#58a6ff" stroke-width="1.2" points="2725.72,-434.18 2729.38,-441.82 2731.29,-433.56 2725.72,-434.18"/>
<text text-anchor="middle" x="1549" y="-65.8" font-family="Courier,monospace" font-size="9.00" fill="#8b949e"> Telemetry </text>
</g>
<!-- Chrisalunlloyd2&#45;sudo&#45;&gt;SimsMerged -->
<g id="edge25" class="edge">
<title>Chrisalunlloyd2&#45;sudo&#45;&gt;SimsMerged</title>
<path fill="none" stroke="#58a6ff" stroke-width="1.2" d="M486.85,-971.09C509.29,-982.14 538.77,-995.66 566,-1005 598.83,-1016.27 607.89,-1016.59 642,-1023 1356.36,-1157.33 1543.62,-1174 2270.5,-1174 2270.5,-1174 2270.5,-1174 2733,-1174 2938.72,-1174 2983.42,-827.56 2992.09,-726.41"/>
<polygon fill="#58a6ff" stroke="#58a6ff" stroke-width="1.2" points="2994.9,-726.41 2992.76,-718.21 2989.32,-725.95 2994.9,-726.41"/>
<text text-anchor="middle" x="1687" y="-1170.8" font-family="Courier,monospace" font-size="9.00" fill="#8b949e"> Telemetry </text>
</g>
<!-- H2OIDE&#45;&gt;H2OMatrixCE -->
<g id="edge26" class="edge">
<title>H2OIDE&#45;&gt;H2OMatrixCE</title>
<path fill="none" stroke="#58a6ff" stroke-width="1.2" d="M717.94,-670.83C731.84,-658.49 750.37,-642.16 767,-628 800.28,-599.65 839.07,-567.81 865.26,-546.5"/>
<polygon fill="#58a6ff" stroke="#58a6ff" stroke-width="1.2" points="867.19,-548.53 871.63,-541.31 863.66,-544.19 867.19,-548.53"/>
<text text-anchor="middle" x="796" y="-630.8" font-family="Courier,monospace" font-size="9.00" fill="#8b949e"> Telemetry </text>
</g>
<!-- H2OIDE&#45;&gt;MasterLogs -->
<g id="edge27" class="edge">
<title>H2OIDE&#45;&gt;MasterLogs</title>
<path fill="none" stroke="#58a6ff" stroke-width="1.2" d="M706.4,-670.7C736.48,-614.45 833.11,-450.91 968,-391 1001.17,-376.27 1040.98,-368.07 1073.3,-363.53"/>
<polygon fill="#58a6ff" stroke="#58a6ff" stroke-width="1.2" points="1073.79,-366.29 1081.35,-362.45 1073.05,-360.74 1073.79,-366.29"/>
<text text-anchor="middle" x="896.5" y="-481.8" font-family="Courier,monospace" font-size="9.00" fill="#8b949e"> Telemetry </text>
</g>
<!-- H2OIDE&#45;&gt;MATRIX_GEN8_HOME -->
<g id="edge28" class="edge">
<title>H2OIDE&#45;&gt;MATRIX_GEN8_HOME</title>
<path fill="none" stroke="#58a6ff" stroke-width="1.2" d="M701.7,-709.45C710.47,-738.65 730.85,-793.81 767,-826 847.7,-897.85 1152.76,-958.52 1311.95,-986.09"/>
<polygon fill="#58a6ff" stroke="#58a6ff" stroke-width="1.2" points="1311.53,-988.86 1319.89,-987.46 1312.48,-983.34 1311.53,-988.86"/>
<text text-anchor="middle" x="997" y="-927.8" font-family="Courier,monospace" font-size="9.00" fill="#8b949e"> Telemetry </text>
</g>
<!-- H2OIDE&#45;&gt;mind&#45;palace -->
<g id="edge29" class="edge">
<title>H2OIDE&#45;&gt;mind&#45;palace</title>
<path fill="none" stroke="#58a6ff" stroke-width="1.2" d="M703.75,-709.01C713.88,-732.52 734.73,-771.46 767,-788 807.62,-808.82 965.31,-821.04 1502,-776 1543.43,-772.52 1589.73,-765.71 1625.52,-759.8"/>
<polygon fill="#58a6ff" stroke="#58a6ff" stroke-width="1.2" points="1626.03,-762.56 1633.46,-758.48 1625.11,-757.03 1626.03,-762.56"/>
<text text-anchor="middle" x="1135" y="-806.8" font-family="Courier,monospace" font-size="9.00" fill="#8b949e"> Telemetry </text>
</g>
<!-- H2OIDE&#45;&gt;mindpalace -->
<g id="edge30" class="edge">
<title>H2OIDE&#45;&gt;mindpalace</title>
<path fill="none" stroke="#58a6ff" stroke-width="1.2" d="M716.34,-709.13C729.59,-720.69 748.01,-734.59 767,-742 958.17,-816.59 1023.79,-757.06 1226,-792 1358.36,-814.87 1386.6,-846.34 1520,-862 1545.6,-865.01 1556.76,-876.61 1578,-862 1596.43,-849.32 1577.57,-827.68 1596,-815 1662.64,-769.16 1700.13,-793.09 1778,-815 1787.03,-817.54 1787.09,-823.08 1796,-826 1823.93,-835.15 1854.98,-840.35 1884.5,-843.17"/>
<polygon fill="#58a6ff" stroke="#58a6ff" stroke-width="1.2" points="1884.57,-845.99 1892.78,-843.9 1885.06,-840.41 1884.57,-845.99"/>
<text text-anchor="middle" x="1273" y="-810.8" font-family="Courier,monospace" font-size="9.00" fill="#8b949e"> Telemetry </text>
</g>
<!-- H2OIDE&#45;&gt;Nova -->
<g id="edge31" class="edge">
<title>H2OIDE&#45;&gt;Nova</title>
<path fill="none" stroke="#58a6ff" stroke-width="1.2" d="M749.02,-676.42C855.75,-649.42 1106.02,-589.2 1320,-561 1433.88,-545.99 1463.5,-555.14 1578,-546 1718.27,-534.8 1752.79,-525.95 1893,-514 2004.56,-504.49 2134.89,-496.12 2209.56,-491.59"/>
<polygon fill="#58a6ff" stroke="#58a6ff" stroke-width="1.2" points="2210.12,-494.36 2217.94,-491.08 2209.78,-488.77 2210.12,-494.36"/>
<text text-anchor="middle" x="1411" y="-563.8" font-family="Courier,monospace" font-size="9.00" fill="#8b949e"> Telemetry </text>
</g>
<!-- H2OIDE&#45;&gt;sims&#45;java&#45;neo&#45;fx -->
<g id="edge32" class="edge">
<title>H2OIDE&#45;&gt;sims&#45;java&#45;neo&#45;fx</title>
<path fill="none" stroke="#58a6ff" stroke-width="1.2" d="M749.35,-691.41C847.02,-693.95 1062.42,-699.18 1244,-701 1488.21,-703.45 2098.78,-695.7 2343,-695 2368.78,-694.93 2375.23,-694.44 2401,-695 2404.13,-695.07 2407.32,-695.15 2410.54,-695.24"/>
<polygon fill="#58a6ff" stroke="#58a6ff" stroke-width="1.2" points="2410.52,-698.04 2418.6,-695.49 2410.69,-692.45 2410.52,-698.04"/>
<text text-anchor="middle" x="1549" y="-703.8" font-family="Courier,monospace" font-size="9.00" fill="#8b949e"> Telemetry </text>
</g>
<!-- H2OIDE&#45;&gt;sims&#45;javafx&#45;neo -->
<g id="edge33" class="edge">
<title>H2OIDE&#45;&gt;sims&#45;javafx&#45;neo</title>
<path fill="none" stroke="#58a6ff" stroke-width="1.2" d="M744.68,-670.99C746.26,-669.45 747.71,-667.79 749,-666 771.19,-635.16 752.91,-531.28 767,-496 787.58,-444.49 797.82,-429.18 843,-397 889.16,-364.12 1430.48,-168 1548,-168 1548,-168 1548,-168 2494.5,-168 2576.47,-168 2597.82,-208.28 2644,-276 2662.1,-302.54 2649.61,-316.36 2662,-346 2675.59,-378.51 2697.23,-412.77 2712.65,-435.36"/>
<polygon fill="#58a6ff" stroke="#58a6ff" stroke-width="1.2" points="2710.37,-436.98 2717.22,-441.97 2714.98,-433.8 2710.37,-436.98"/>
<text text-anchor="middle" x="1687" y="-170.8" font-family="Courier,monospace" font-size="9.00" fill="#8b949e"> Telemetry </text>
</g>
<!-- H2OIDE&#45;&gt;SimsMerged -->
<g id="edge34" class="edge">
<title>H2OIDE&#45;&gt;SimsMerged</title>
<path fill="none" stroke="#58a6ff" stroke-width="1.2" d="M749.04,-703.11C755.07,-704.26 761.15,-705.27 767,-706 774.82,-706.98 862.22,-709.83 1044,-713 1132.88,-714.55 1155.11,-714.56 1244,-715 1358.67,-715.57 1387.74,-724.67 1502,-715 1815.58,-688.46 1890.06,-650.51 2200,-596 2276.07,-582.62 2293.76,-565 2371,-565 2371,-565 2371,-565 2733,-565 2827.67,-565 2922.45,-635.63 2967.28,-674.33"/>
<polygon fill="#58a6ff" stroke="#58a6ff" stroke-width="1.2" points="2965.66,-676.64 2973.52,-679.8 2969.35,-672.43 2965.66,-676.64"/>
<text text-anchor="middle" x="1835.5" y="-678.8" font-family="Courier,monospace" font-size="9.00" fill="#8b949e"> Telemetry </text>
</g>
<!-- H2OMatrixCE&#45;&gt;MasterLogs -->
<g id="edge35" class="edge">
<title>H2OMatrixCE&#45;&gt;MasterLogs</title>
<path fill="none" stroke="#58a6ff" stroke-width="1.2" d="M904.88,-502.6C915.28,-477.82 936.55,-435.26 968,-411 976.76,-404.25 1029.67,-387.92 1073.43,-375.15"/>
<polygon fill="#58a6ff" stroke="#58a6ff" stroke-width="1.2" points="1074.31,-377.82 1081.21,-372.9 1072.74,-372.44 1074.31,-377.82"/>
<text text-anchor="middle" x="997" y="-413.8" font-family="Courier,monospace" font-size="9.00" fill="#8b949e"> Telemetry </text>
</g>
<!-- H2OMatrixCE&#45;&gt;MATRIX_GEN8_HOME -->
<g id="edge36" class="edge">
<title>H2OMatrixCE&#45;&gt;MATRIX_GEN8_HOME</title>
<path fill="none" stroke="#58a6ff" stroke-width="1.2" d="M902.02,-541.35C915.17,-593.72 958,-740.08 1044,-826 1068.07,-850.05 1263.92,-937.89 1358.82,-979.65"/>
<polygon fill="#58a6ff" stroke="#58a6ff" stroke-width="1.2" points="1357.85,-982.29 1366.3,-982.94 1360.1,-977.16 1357.85,-982.29"/>
<text text-anchor="middle" x="1135" y="-919.8" font-family="Courier,monospace" font-size="9.00" fill="#8b949e"> Telemetry </text>
</g>
<!-- H2OMatrixCE&#45;&gt;mind&#45;palace -->
<g id="edge37" class="edge">
<title>H2OMatrixCE&#45;&gt;mind&#45;palace</title>
<path fill="none" stroke="#58a6ff" stroke-width="1.2" d="M906.82,-541.03C918.21,-562.16 939.54,-595.57 968,-613 1024.23,-647.43 1462.52,-715.61 1625.36,-740.04"/>
<polygon fill="#58a6ff" stroke="#58a6ff" stroke-width="1.2" points="1625.04,-742.82 1633.37,-741.23 1625.87,-737.28 1625.04,-742.82"/>
<text text-anchor="middle" x="1273" y="-689.8" font-family="Courier,monospace" font-size="9.00" fill="#8b949e"> Telemetry </text>
</g>
<!-- H2OMatrixCE&#45;&gt;mindpalace -->
<g id="edge38" class="edge">
<title>H2OMatrixCE&#45;&gt;mindpalace</title>
<path fill="none" stroke="#58a6ff" stroke-width="1.2" d="M950.17,-532.89C956.17,-534.01 962.21,-535.07 968,-536 1001.75,-541.43 1550.44,-595.78 1578,-616 1591.79,-626.12 1583.24,-638.62 1596,-650 1660.82,-707.77 1705.31,-673.51 1778,-721 1787.47,-727.19 1786.81,-732.4 1796,-739 1844.46,-773.83 1906.2,-803 1950.45,-821.69"/>
<polygon fill="#58a6ff" stroke="#58a6ff" stroke-width="1.2" points="1949.48,-824.32 1957.94,-824.82 1951.64,-819.15 1949.48,-824.32"/>
<text text-anchor="middle" x="1411" y="-601.8" font-family="Courier,monospace" font-size="9.00" fill="#8b949e"> Telemetry </text>
</g>
<!-- H2OMatrixCE&#45;&gt;Nova -->
<g id="edge39" class="edge">
<title>H2OMatrixCE&#45;&gt;Nova</title>
<path fill="none" stroke="#58a6ff" stroke-width="1.2" d="M950.11,-510.71C956.12,-509.67 962.18,-508.73 968,-508 1376.17,-456.64 1481.62,-476.21 1893,-474 2029.44,-473.27 2064.21,-460.65 2200,-474 2203.19,-474.31 2206.45,-474.71 2209.74,-475.16"/>
<polygon fill="#58a6ff" stroke="#58a6ff" stroke-width="1.2" points="2209.6,-477.97 2217.93,-476.39 2210.43,-472.43 2209.6,-477.97"/>
<text text-anchor="middle" x="1549" y="-474.8" font-family="Courier,monospace" font-size="9.00" fill="#8b949e"> Telemetry </text>
</g>
<!-- H2OMatrixCE&#45;&gt;sims&#45;java&#45;neo&#45;fx -->
<g id="edge40" class="edge">
<title>H2OMatrixCE&#45;&gt;sims&#45;java&#45;neo&#45;fx</title>
<path fill="none" stroke="#58a6ff" stroke-width="1.2" d="M950.24,-519.85C1154.82,-511.96 1895.8,-487.7 2124,-540 2228.66,-563.98 2244.11,-600.18 2343,-642 2372.11,-654.31 2404.89,-666.94 2432.31,-677.17"/>
<polygon fill="#58a6ff" stroke="#58a6ff" stroke-width="1.2" points="2431.42,-679.83 2439.9,-679.99 2433.38,-674.58 2431.42,-679.83"/>
<text text-anchor="middle" x="1687" y="-512.8" font-family="Courier,monospace" font-size="9.00" fill="#8b949e"> Telemetry </text>
</g>
<!-- H2OMatrixCE&#45;&gt;sims&#45;javafx&#45;neo -->
<g id="edge41" class="edge">
<title>H2OMatrixCE&#45;&gt;sims&#45;javafx&#45;neo</title>
<path fill="none" stroke="#58a6ff" stroke-width="1.2" d="M949.7,-502.94C955.84,-500.86 962.04,-498.84 968,-497 1001.38,-486.71 1009.88,-484.47 1044,-477 1287.32,-423.7 1347.85,-401.64 1596,-380 1676.58,-372.97 1697.13,-378.25 1778,-380 1931.89,-383.33 1970.52,-383.34 2124,-395 2314.96,-409.51 2538.7,-436.41 2653.85,-450.99"/>
<polygon fill="#58a6ff" stroke="#58a6ff" stroke-width="1.2" points="2653.66,-453.78 2661.95,-452.01 2654.37,-448.23 2653.66,-453.78"/>
<text text-anchor="middle" x="1835.5" y="-384.8" font-family="Courier,monospace" font-size="9.00" fill="#8b949e"> Telemetry </text>
</g>
<!-- H2OMatrixCE&#45;&gt;SimsMerged -->
<g id="edge42" class="edge">
<title>H2OMatrixCE&#45;&gt;SimsMerged</title>
<path fill="none" stroke="#58a6ff" stroke-width="1.2" d="M940.43,-502.97C944.06,-500.05 947.35,-496.74 950,-493 977.88,-453.65 942.74,-427.08 968,-386 1046.25,-258.73 1398.6,-46 1548,-46 1548,-46 1548,-46 2733,-46 2870.1,-46 2967.52,-548.59 2989.37,-671.92"/>
<polygon fill="#58a6ff" stroke="#58a6ff" stroke-width="1.2" points="2986.61,-672.42 2990.75,-679.81 2992.13,-671.45 2986.61,-672.42"/>
<text text-anchor="middle" x="2008.5" y="-48.8" font-family="Courier,monospace" font-size="9.00" fill="#8b949e"> Telemetry </text>
</g>
<!-- Kernel_Pedagogy -->
<g id="node5" class="node">
<title>Kernel_Pedagogy</title>
<path fill="#161b22" stroke="#58a6ff" d="M1745,-862C1745,-862 1629,-862 1629,-862 1623,-862 1617,-856 1617,-850 1617,-850 1617,-836 1617,-836 1617,-830 1623,-824 1629,-824 1629,-824 1745,-824 1745,-824 1751,-824 1757,-830 1757,-836 1757,-836 1757,-850 1757,-850 1757,-856 1751,-862 1745,-862"/>
<text text-anchor="middle" x="1687" y="-846.8" font-family="Courier,monospace" font-size="14.00" fill="#c9d1d9">Kernel_Pedagogy</text>
<text text-anchor="middle" x="1687" y="-831.8" font-family="Courier,monospace" font-size="14.00" fill="#c9d1d9">[Orchestration]</text>
</g>
<!-- Kernel_Pedagogy&#45;&gt;mindpalace -->
<g id="edge43" class="edge">
<title>Kernel_Pedagogy&#45;&gt;mindpalace</title>
<path fill="none" stroke="#58a6ff" stroke-width="1.2" d="M1757.1,-848.88C1770.01,-849.76 1783.41,-850.53 1796,-851 1824.69,-852.06 1855.58,-851.82 1884.64,-850.98"/>
<polygon fill="#58a6ff" stroke="#58a6ff" stroke-width="1.2" points="1884.88,-853.77 1892.79,-850.72 1884.71,-848.17 1884.88,-853.77"/>
<text text-anchor="middle" x="1835.5" y="-853.8" font-family="Courier,monospace" font-size="9.00" fill="#8b949e"> Orchestration </text>
</g>
<!-- MasterLogs&#45;&gt;MATRIX_GEN8_HOME -->
<g id="edge44" class="edge">
<title>MasterLogs&#45;&gt;MATRIX_GEN8_HOME</title>
<path fill="none" stroke="#58a6ff" stroke-width="1.2" d="M1140.02,-377.31C1159.35,-470.17 1241.94,-866.55 1244,-869 1261.88,-890.2 1278.9,-876.66 1302,-892 1337.41,-915.51 1370.45,-952.18 1390.43,-976.64"/>
<polygon fill="#58a6ff" stroke="#58a6ff" stroke-width="1.2" points="1388.27,-978.41 1395.47,-982.88 1392.63,-974.9 1388.27,-978.41"/>
<text text-anchor="middle" x="1273" y="-894.8" font-family="Courier,monospace" font-size="9.00" fill="#8b949e"> Telemetry </text>
</g>
<!-- MasterLogs&#45;&gt;mind&#45;palace -->
<g id="edge45" class="edge">
<title>MasterLogs&#45;&gt;mind&#45;palace</title>
<path fill="none" stroke="#58a6ff" stroke-width="1.2" d="M1143.91,-377.06C1164.91,-425.21 1226.88,-552.37 1320,-616 1388.89,-663.07 1423.18,-634.64 1502,-662 1536.96,-674.13 1548.09,-674.22 1578,-696 1587.67,-703.04 1586.09,-709.3 1596,-716 1605.1,-722.15 1615.48,-727.33 1625.89,-731.62"/>
<polygon fill="#58a6ff" stroke="#58a6ff" stroke-width="1.2" points="1624.98,-734.27 1633.45,-734.58 1627.03,-729.06 1624.98,-734.27"/>
<text text-anchor="middle" x="1411" y="-664.8" font-family="Courier,monospace" font-size="9.00" fill="#8b949e"> Telemetry </text>
</g>
<!-- MasterLogs&#45;&gt;mindpalace -->
<g id="edge46" class="edge">
<title>MasterLogs&#45;&gt;mindpalace</title>
<path fill="none" stroke="#58a6ff" stroke-width="1.2" d="M1178.55,-377.04C1283.31,-424.53 1560.98,-554.06 1778,-688 1849.6,-732.19 1930.33,-788.7 1974.4,-820.14"/>
<polygon fill="#58a6ff" stroke="#58a6ff" stroke-width="1.2" points="1973.01,-822.6 1981.15,-824.97 1976.27,-818.04 1973.01,-822.6"/>
<text text-anchor="middle" x="1549" y="-572.8" font-family="Courier,monospace" font-size="9.00" fill="#8b949e"> Telemetry </text>
</g>
<!-- MasterLogs&#45;&gt;Nova -->
<g id="edge47" class="edge">
<title>MasterLogs&#45;&gt;Nova</title>
<path fill="none" stroke="#58a6ff" stroke-width="1.2" d="M1188.56,-360.14C1389.78,-368.56 2104.62,-400.71 2200,-436 2216.4,-442.07 2232.29,-453.17 2244.81,-463.57"/>
<polygon fill="#58a6ff" stroke="#58a6ff" stroke-width="1.2" points="2243.15,-465.82 2251.04,-468.91 2246.79,-461.57 2243.15,-465.82"/>
<text text-anchor="middle" x="1687" y="-392.8" font-family="Courier,monospace" font-size="9.00" fill="#8b949e"> Telemetry </text>
</g>
<!-- MasterLogs&#45;&gt;sims&#45;java&#45;neo&#45;fx -->
<g id="edge48" class="edge">
<title>MasterLogs&#45;&gt;sims&#45;java&#45;neo&#45;fx</title>
<path fill="none" stroke="#58a6ff" stroke-width="1.2" d="M1188.66,-350.81C1310.13,-335.43 1619.16,-303.12 1875,-334 2023.23,-351.89 2057.88,-373.25 2200,-419 2255.66,-436.91 2275.97,-428.15 2325,-460 2367.22,-487.43 2371.16,-503.45 2401,-544 2432.38,-586.64 2462.3,-640.73 2478.95,-672.44"/>
<polygon fill="#58a6ff" stroke="#58a6ff" stroke-width="1.2" points="2476.51,-673.81 2482.69,-679.61 2481.47,-671.22 2476.51,-673.81"/>
<text text-anchor="middle" x="1835.5" y="-336.8" font-family="Courier,monospace" font-size="9.00" fill="#8b949e"> Telemetry </text>
</g>
<!-- MasterLogs&#45;&gt;sims&#45;javafx&#45;neo -->
<g id="edge49" class="edge">
<title>MasterLogs&#45;&gt;sims&#45;javafx&#45;neo</title>
<path fill="none" stroke="#58a6ff" stroke-width="1.2" d="M1188.71,-344.21C1225.26,-335.37 1275.23,-324.69 1320,-320 1466.33,-304.66 2517.82,-222.32 2644,-298 2693.23,-327.53 2716.15,-395.43 2725.48,-433.62"/>
<polygon fill="#58a6ff" stroke="#58a6ff" stroke-width="1.2" points="2722.83,-434.59 2727.37,-441.75 2728.29,-433.32 2722.83,-434.59"/>
<text text-anchor="middle" x="2008.5" y="-281.8" font-family="Courier,monospace" font-size="9.00" fill="#8b949e"> Telemetry </text>
</g>
<!-- MasterLogs&#45;&gt;SimsMerged -->
<g id="edge50" class="edge">
<title>MasterLogs&#45;&gt;SimsMerged</title>
<path fill="none" stroke="#58a6ff" stroke-width="1.2" d="M1183.69,-338.91C1202.33,-331.82 1224,-324.05 1244,-318 1394.53,-272.48 1439.03,-291.61 1596,-282 2060.91,-253.53 2221.02,-80.95 2644,-276 2766.94,-332.69 2793.58,-365.17 2878,-471 2929.73,-535.85 2967.73,-627.44 2984.49,-672.23"/>
<polygon fill="#58a6ff" stroke="#58a6ff" stroke-width="1.2" points="2981.88,-673.25 2987.28,-679.78 2987.13,-671.3 2981.88,-673.25"/>
<text text-anchor="middle" x="2171" y="-195.8" font-family="Courier,monospace" font-size="9.00" fill="#8b949e"> Telemetry </text>
</g>
<!-- MatrixCE_GUI&#45;&gt;MATRIX_GEN8_HOME -->
<g id="edge51" class="edge">
<title>MatrixCE_GUI&#45;&gt;MATRIX_GEN8_HOME</title>
<path fill="none" stroke="#58a6ff" stroke-width="1.2" d="M1160.32,-1197.92C1210.28,-1158.71 1324.41,-1069.16 1379.34,-1026.06"/>
<polygon fill="#58a6ff" stroke="#58a6ff" stroke-width="1.2" points="1381.17,-1028.18 1385.74,-1021.04 1377.72,-1023.77 1381.17,-1028.18"/>
<text text-anchor="middle" x="1273" y="-1130.8" font-family="Courier,monospace" font-size="9.00" fill="#8b949e"> API/Web </text>
</g>
<!-- MatrixCE_GUI&#45;&gt;openrouter_manager -->
<g id="edge52" class="edge">
<title>MatrixCE_GUI&#45;&gt;openrouter_manager</title>
<path fill="none" stroke="#58a6ff" stroke-width="1.2" d="M1226.21,-1217.33C1325.61,-1217.69 1484.96,-1218.27 1587.54,-1218.64"/>
<polygon fill="#58a6ff" stroke="#58a6ff" stroke-width="1.2" points="1587.74,-1221.44 1595.75,-1218.67 1587.76,-1215.84 1587.74,-1221.44"/>
<text text-anchor="middle" x="1411" y="-1220.8" font-family="Courier,monospace" font-size="9.00" fill="#8b949e"> API/Web </text>
</g>
<!-- MatrixCE_GUI&#45;&gt;SimsMerged -->
<g id="edge53" class="edge">
<title>MatrixCE_GUI&#45;&gt;SimsMerged</title>
<path fill="none" stroke="#58a6ff" stroke-width="1.2" d="M1172.64,-1236.12C1243.24,-1271.14 1403.92,-1342 1548,-1342 1548,-1342 1548,-1342 2733,-1342 2818.38,-1342 2834.25,-1289.31 2878,-1216 2977.15,-1049.85 2991.68,-807.72 2993.71,-726.62"/>
<polygon fill="#58a6ff" stroke="#58a6ff" stroke-width="1.2" points="2996.51,-726.47 2993.88,-718.41 2990.91,-726.35 2996.51,-726.47"/>
<text text-anchor="middle" x="2171" y="-1344.8" font-family="Courier,monospace" font-size="9.00" fill="#8b949e"> Agent/BDI </text>
</g>
<!-- MATRIX_GEN8_HOME&#45;&gt;mind&#45;palace -->
<g id="edge54" class="edge">
<title>MATRIX_GEN8_HOME&#45;&gt;mind&#45;palace</title>
<path fill="none" stroke="#58a6ff" stroke-width="1.2" d="M1453.23,-982.84C1470.57,-972.9 1489.56,-959.19 1502,-942 1519.57,-917.72 1503.61,-902.1 1520,-877 1522.98,-872.44 1591.69,-818.33 1596,-815 1614.4,-800.76 1635.34,-785.36 1652.38,-773.02"/>
<polygon fill="#58a6ff" stroke="#58a6ff" stroke-width="1.2" points="1654.1,-775.23 1658.95,-768.28 1650.83,-770.69 1654.1,-775.23"/>
<text text-anchor="middle" x="1549" y="-879.8" font-family="Courier,monospace" font-size="9.00" fill="#8b949e"> Telemetry </text>
</g>
<!-- MATRIX_GEN8_HOME&#45;&gt;mindpalace -->
<g id="edge55" class="edge">
<title>MATRIX_GEN8_HOME&#45;&gt;mindpalace</title>
<path fill="none" stroke="#58a6ff" stroke-width="1.2" d="M1445.06,-982.74C1462.72,-971.78 1484.39,-957.23 1502,-942 1511.05,-934.18 1509.5,-927.72 1520,-922 1521.01,-921.45 1740.72,-886.43 1884.81,-863.51"/>
<polygon fill="#58a6ff" stroke="#58a6ff" stroke-width="1.2" points="1885.43,-866.24 1892.89,-862.22 1884.55,-860.71 1885.43,-866.24"/>
<text text-anchor="middle" x="1687" y="-910.8" font-family="Courier,monospace" font-size="9.00" fill="#8b949e"> Telemetry </text>
</g>
<!-- MATRIX_GEN8_HOME&#45;&gt;Nova -->
<g id="edge56" class="edge">
<title>MATRIX_GEN8_HOME&#45;&gt;Nova</title>
<path fill="none" stroke="#58a6ff" stroke-width="1.2" d="M1502.18,-988.46C1689.01,-960.01 2102.84,-894.77 2124,-872 2149.41,-844.66 2122.13,-736.6 2142,-705 2158.15,-679.32 2180.61,-692.33 2200,-669 2238.37,-622.82 2257.47,-553.33 2265.54,-515.29"/>
<polygon fill="#58a6ff" stroke="#58a6ff" stroke-width="1.2" points="2268.33,-515.62 2267.19,-507.22 2262.85,-514.5 2268.33,-515.62"/>
<text text-anchor="middle" x="1835.5" y="-943.8" font-family="Courier,monospace" font-size="9.00" fill="#8b949e"> Telemetry </text>
</g>
<!-- MATRIX_GEN8_HOME&#45;&gt;openrouter_manager -->
<g id="edge57" class="edge">
<title>MATRIX_GEN8_HOME&#45;&gt;openrouter_manager</title>
<path fill="none" stroke="#58a6ff" stroke-width="1.2" d="M1435.52,-1021.24C1454.02,-1036.65 1480.24,-1059.08 1502,-1080 1537.59,-1114.21 1546.62,-1122.89 1578,-1161 1586.7,-1171.57 1585.09,-1177.72 1596,-1186 1601.03,-1189.82 1606.55,-1193.23 1612.31,-1196.27"/>
<polygon fill="#58a6ff" stroke="#58a6ff" stroke-width="1.2" points="1611.28,-1198.89 1619.7,-1199.93 1613.77,-1193.87 1611.28,-1198.89"/>
<text text-anchor="middle" x="1549" y="-1163.8" font-family="Courier,monospace" font-size="9.00" fill="#8b949e"> API/Web </text>
</g>
<!-- MATRIX_GEN8_HOME&#45;&gt;sims&#45;java&#45;neo&#45;fx -->
<g id="edge58" class="edge">
<title>MATRIX_GEN8_HOME&#45;&gt;sims&#45;java&#45;neo&#45;fx</title>
<path fill="none" stroke="#58a6ff" stroke-width="1.2" d="M1502.25,-999.83C1732.63,-993.56 2329.39,-972.39 2401,-920 2433.84,-895.98 2470.01,-779.26 2485.18,-725.82"/>
<polygon fill="#58a6ff" stroke="#58a6ff" stroke-width="1.2" points="2487.87,-726.57 2487.34,-718.11 2482.48,-725.05 2487.87,-726.57"/>
<text text-anchor="middle" x="2008.5" y="-986.8" font-family="Courier,monospace" font-size="9.00" fill="#8b949e"> Telemetry </text>
</g>
<!-- MATRIX_GEN8_HOME&#45;&gt;sims&#45;javafx&#45;neo -->
<g id="edge59" class="edge">
<title>MATRIX_GEN8_HOME&#45;&gt;sims&#45;javafx&#45;neo</title>
<path fill="none" stroke="#58a6ff" stroke-width="1.2" d="M1502.03,-1011.01C1643.9,-1024.4 1928.24,-1048 2170,-1048 2170,-1048 2170,-1048 2494.5,-1048 2547.18,-1048 2535.52,-996.48 2568,-955 2601.98,-911.6 2623.29,-908.08 2644,-857 2671.22,-789.86 2647.7,-766.02 2662,-695 2677.39,-618.55 2706.34,-531.01 2721.38,-487.89"/>
<polygon fill="#58a6ff" stroke="#58a6ff" stroke-width="1.2" points="2724.1,-488.6 2724.11,-480.13 2718.81,-486.75 2724.1,-488.6"/>
<text text-anchor="middle" x="2171" y="-1050.8" font-family="Courier,monospace" font-size="9.00" fill="#8b949e"> Telemetry </text>
</g>
<!-- MATRIX_GEN8_HOME&#45;&gt;SimsMerged -->
<g id="edge60" class="edge">
<title>MATRIX_GEN8_HOME&#45;&gt;SimsMerged</title>
<path fill="none" stroke="#58a6ff" stroke-width="1.2" d="M1483.81,-1021.03C1495.85,-1023.91 1508.24,-1026.69 1520,-1029 1553.49,-1035.59 1562.16,-1035.54 1596,-1040 1939.89,-1085.29 2024.14,-1132 2371,-1132 2371,-1132 2371,-1132 2733,-1132 2923.43,-1132 2978.54,-821.02 2990.93,-726.15"/>
<polygon fill="#58a6ff" stroke="#58a6ff" stroke-width="1.2" points="2993.71,-726.45 2991.93,-718.16 2988.15,-725.75 2993.71,-726.45"/>
<text text-anchor="middle" x="2271.5" y="-1133.8" font-family="Courier,monospace" font-size="9.00" fill="#8b949e"> Telemetry </text>
</g>
<!-- mind&#45;palace&#45;&gt;mindpalace -->
<g id="edge61" class="edge">
<title>mind&#45;palace&#45;&gt;mindpalace</title>
<path fill="none" stroke="#58a6ff" stroke-width="1.2" d="M1740.6,-766.31C1753.06,-770.95 1766.16,-776.28 1778,-782 1786.44,-786.08 1787.34,-789.41 1796,-793 1816.74,-801.59 1863.82,-813.2 1908.3,-823.17"/>
<polygon fill="#58a6ff" stroke="#58a6ff" stroke-width="1.2" points="1907.86,-825.94 1916.28,-824.95 1909.08,-820.47 1907.86,-825.94"/>
<text text-anchor="middle" x="1835.5" y="-816.8" font-family="Courier,monospace" font-size="9.00" fill="#8b949e"> Telemetry </text>
</g>
<!-- mind&#45;palace&#45;&gt;Nova -->
<g id="edge62" class="edge">
<title>mind&#45;palace&#45;&gt;Nova</title>
<path fill="none" stroke="#58a6ff" stroke-width="1.2" d="M1695.55,-729.8C1709.79,-696.2 1743.98,-626.98 1796,-592 1813.27,-580.39 2086.08,-524.84 2210.04,-500.02"/>
<polygon fill="#58a6ff" stroke="#58a6ff" stroke-width="1.2" points="2210.69,-502.75 2217.98,-498.43 2209.59,-497.26 2210.69,-502.75"/>
<text text-anchor="middle" x="2008.5" y="-567.8" font-family="Courier,monospace" font-size="9.00" fill="#8b949e"> Telemetry </text>
</g>
<!-- mind&#45;palace&#45;&gt;sims&#45;java&#45;neo&#45;fx -->
<g id="edge63" class="edge">
<title>mind&#45;palace&#45;&gt;sims&#45;java&#45;neo&#45;fx</title>
<path fill="none" stroke="#58a6ff" stroke-width="1.2" d="M1740.53,-732.88C1758.01,-728.19 1777.69,-723.63 1796,-721 1912.25,-704.31 2252.78,-700.28 2410.54,-699.31"/>
<polygon fill="#58a6ff" stroke="#58a6ff" stroke-width="1.2" points="2410.84,-702.11 2418.83,-699.26 2410.81,-696.51 2410.84,-702.11"/>
<text text-anchor="middle" x="2171" y="-704.8" font-family="Courier,monospace" font-size="9.00" fill="#8b949e"> Telemetry </text>
</g>
<!-- mind&#45;palace&#45;&gt;sims&#45;javafx&#45;neo -->
<g id="edge64" class="edge">
<title>mind&#45;palace&#45;&gt;sims&#45;javafx&#45;neo</title>
<path fill="none" stroke="#58a6ff" stroke-width="1.2" d="M1740.63,-758.53C1849.9,-776.92 2109.17,-813.25 2325,-787 2435.43,-773.57 2478.21,-792.68 2568,-727 2653.45,-664.5 2703.44,-542.37 2722.3,-488.1"/>
<polygon fill="#58a6ff" stroke="#58a6ff" stroke-width="1.2" points="2725.03,-488.77 2724.96,-480.3 2719.73,-486.97 2725.03,-488.77"/>
<text text-anchor="middle" x="2271.5" y="-797.8" font-family="Courier,monospace" font-size="9.00" fill="#8b949e"> Telemetry </text>
</g>
<!-- mind&#45;palace&#45;&gt;SimsMerged -->
<g id="edge65" class="edge">
<title>mind&#45;palace&#45;&gt;SimsMerged</title>
<path fill="none" stroke="#58a6ff" stroke-width="1.2" d="M1731.61,-729.9C1750.98,-722.2 1774.27,-713.97 1796,-709 2190.12,-618.9 2676.4,-659.86 2887.68,-684.8"/>
<polygon fill="#58a6ff" stroke="#58a6ff" stroke-width="1.2" points="2887.41,-687.59 2895.69,-685.75 2888.08,-682.02 2887.41,-687.59"/>
<text text-anchor="middle" x="2372" y="-655.8" font-family="Courier,monospace" font-size="9.00" fill="#8b949e"> Telemetry </text>
</g>
<!-- mindpalace&#45;&gt;Nova -->
<g id="edge66" class="edge">
<title>mindpalace&#45;&gt;Nova</title>
<path fill="none" stroke="#58a6ff" stroke-width="1.2" d="M2023.53,-824.86C2067.35,-765.1 2201.65,-581.91 2251.56,-513.83"/>
<polygon fill="#58a6ff" stroke="#58a6ff" stroke-width="1.2" points="2253.93,-515.34 2256.4,-507.23 2249.41,-512.03 2253.93,-515.34"/>
<text text-anchor="middle" x="2171" y="-657.8" font-family="Courier,monospace" font-size="9.00" fill="#8b949e"> Telemetry </text>
</g>
<!-- mindpalace&#45;&gt;sims&#45;java&#45;neo&#45;fx -->
<g id="edge67" class="edge">
<title>mindpalace&#45;&gt;sims&#45;java&#45;neo&#45;fx</title>
<path fill="none" stroke="#58a6ff" stroke-width="1.2" d="M2065.39,-824.95C2107.21,-810.97 2165.91,-791.9 2218,-777 2298.63,-753.94 2320.67,-755.09 2401,-731 2411.38,-727.89 2422.32,-724.32 2432.89,-720.72"/>
<polygon fill="#58a6ff" stroke="#58a6ff" stroke-width="1.2" points="2433.85,-723.35 2440.51,-718.09 2432.03,-718.05 2433.85,-723.35"/>
<text text-anchor="middle" x="2271.5" y="-779.8" font-family="Courier,monospace" font-size="9.00" fill="#8b949e"> Telemetry </text>
</g>
<!-- mindpalace&#45;&gt;sims&#45;javafx&#45;neo -->
<g id="edge68" class="edge">
<title>mindpalace&#45;&gt;sims&#45;javafx&#45;neo</title>
<path fill="none" stroke="#58a6ff" stroke-width="1.2" d="M2065.14,-863C2187.21,-900.8 2480.66,-969.79 2644,-823 2665.36,-803.8 2655.92,-723.07 2662,-695 2678.5,-618.78 2706.96,-531.14 2721.64,-487.95"/>
<polygon fill="#58a6ff" stroke="#58a6ff" stroke-width="1.2" points="2724.36,-488.64 2724.3,-480.17 2719.06,-486.83 2724.36,-488.64"/>
<text text-anchor="middle" x="2372" y="-914.8" font-family="Courier,monospace" font-size="9.00" fill="#8b949e"> Telemetry </text>
</g>
<!-- mindpalace&#45;&gt;SimsMerged -->
<g id="edge69" class="edge">
<title>mindpalace&#45;&gt;SimsMerged</title>
<path fill="none" stroke="#58a6ff" stroke-width="1.2" d="M2045.44,-863.01C2071.6,-876.16 2108.21,-893.18 2142,-904 2322.31,-961.76 2386.34,-959.37 2568,-906 2720.17,-861.29 2884.86,-766.45 2956.83,-722.4"/>
<polygon fill="#58a6ff" stroke="#58a6ff" stroke-width="1.2" points="2958.56,-724.62 2963.91,-718.04 2955.63,-719.85 2958.56,-724.62"/>
<text text-anchor="middle" x="2493.5" y="-943.8" font-family="Courier,monospace" font-size="9.00" fill="#8b949e"> Telemetry </text>
</g>
<!-- Nova&#45;&gt;sims&#45;java&#45;neo&#45;fx -->
<g id="edge70" class="edge">
<title>Nova&#45;&gt;sims&#45;java&#45;neo&#45;fx</title>
<path fill="none" stroke="#58a6ff" stroke-width="1.2" d="M2296.44,-507.26C2322.82,-528.79 2366.12,-565.1 2401,-599 2426.08,-623.37 2452.88,-653.15 2470.95,-673.84"/>
<polygon fill="#58a6ff" stroke="#58a6ff" stroke-width="1.2" points="2468.9,-675.76 2476.27,-679.96 2473.13,-672.08 2468.9,-675.76"/>
<text text-anchor="middle" x="2372" y="-601.8" font-family="Courier,monospace" font-size="9.00" fill="#8b949e"> Telemetry </text>
</g>
<!-- Nova&#45;&gt;sims&#45;javafx&#45;neo -->
<g id="edge71" class="edge">
<title>Nova&#45;&gt;sims&#45;javafx&#45;neo</title>
<path fill="none" stroke="#58a6ff" stroke-width="1.2" d="M2325.1,-484.9C2405.78,-480.15 2560.53,-471.04 2653.9,-465.54"/>
<polygon fill="#58a6ff" stroke="#58a6ff" stroke-width="1.2" points="2654.08,-468.33 2661.9,-465.07 2653.75,-462.74 2654.08,-468.33"/>
<text text-anchor="middle" x="2493.5" y="-481.8" font-family="Courier,monospace" font-size="9.00" fill="#8b949e"> Telemetry </text>
</g>
<!-- Nova&#45;&gt;SimsMerged -->
<g id="edge72" class="edge">
<title>Nova&#45;&gt;SimsMerged</title>
<path fill="none" stroke="#58a6ff" stroke-width="1.2" d="M2325.23,-494.05C2331.23,-494.71 2337.24,-495.38 2343,-496 2461.82,-508.85 2773.36,-493.26 2878,-551 2928.09,-578.64 2963.96,-637.79 2981.61,-672.36"/>
<polygon fill="#58a6ff" stroke="#58a6ff" stroke-width="1.2" points="2979.22,-673.85 2985.3,-679.76 2984.23,-671.35 2979.22,-673.85"/>
<text text-anchor="middle" x="2615" y="-509.8" font-family="Courier,monospace" font-size="9.00" fill="#8b949e"> Telemetry </text>
</g>
<!-- openrouter_manager&#45;&gt;SimsMerged -->
<g id="edge73" class="edge">
<title>openrouter_manager&#45;&gt;SimsMerged</title>
<path fill="none" stroke="#58a6ff" stroke-width="1.2" d="M1778.2,-1217.27C1842.2,-1216.19 1930.12,-1215 2007.5,-1215 2007.5,-1215 2007.5,-1215 2733,-1215 2798.55,-1215 2830.53,-1233.21 2878,-1188 2946.24,-1123.01 2981.91,-819.55 2991.39,-726.32"/>
<polygon fill="#58a6ff" stroke="#58a6ff" stroke-width="1.2" points="2994.19,-726.45 2992.2,-718.21 2988.62,-725.89 2994.19,-726.45"/>
<text text-anchor="middle" x="2372" y="-1217.8" font-family="Courier,monospace" font-size="9.00" fill="#8b949e"> Agent/BDI </text>
</g>
<!-- sims&#45;java&#45;neo&#45;fx&#45;&gt;sims&#45;javafx&#45;neo -->
<g id="edge74" class="edge">
<title>sims&#45;java&#45;neo&#45;fx&#45;&gt;sims&#45;javafx&#45;neo</title>
<path fill="none" stroke="#58a6ff" stroke-width="1.2" d="M2497.33,-679.86C2504.4,-639.19 2526.71,-543.91 2586,-495 2596.94,-485.98 2625.12,-478.44 2653.77,-472.78"/>
<polygon fill="#58a6ff" stroke="#58a6ff" stroke-width="1.2" points="2654.51,-475.49 2661.84,-471.23 2653.46,-469.99 2654.51,-475.49"/>
<text text-anchor="middle" x="2615" y="-497.8" font-family="Courier,monospace" font-size="9.00" fill="#8b949e"> Telemetry </text>
</g>
<!-- sims&#45;java&#45;neo&#45;fx&#45;&gt;SimsMerged -->
<g id="edge75" class="edge">
<title>sims&#45;java&#45;neo&#45;fx&#45;&gt;SimsMerged</title>
<path fill="none" stroke="#58a6ff" stroke-width="1.2" d="M2568.2,-699C2652.67,-699 2791.79,-699 2887.91,-699"/>
<polygon fill="#58a6ff" stroke="#58a6ff" stroke-width="1.2" points="2887.91,-701.8 2895.91,-699 2887.91,-696.2 2887.91,-701.8"/>
<text text-anchor="middle" x="2732" y="-701.8" font-family="Courier,monospace" font-size="9.00" fill="#8b949e"> Telemetry </text>
</g>
<!-- sims&#45;javafx&#45;neo&#45;&gt;SimsMerged -->
<g id="edge76" class="edge">
<title>sims&#45;javafx&#45;neo&#45;&gt;SimsMerged</title>
<path fill="none" stroke="#58a6ff" stroke-width="1.2" d="M2802.13,-470.01C2827.94,-476.05 2856.25,-486.15 2878,-503 2935.7,-547.71 2970.5,-629.85 2985.43,-672.2"/>
<polygon fill="#58a6ff" stroke="#58a6ff" stroke-width="1.2" points="2982.82,-673.22 2988.07,-679.87 2988.11,-671.39 2982.82,-673.22"/>
<text text-anchor="middle" x="2849" y="-505.8" font-family="Courier,monospace" font-size="9.00" fill="#8b949e"> Telemetry </text>
</g>
<!-- aegis&#45;agent&#45;bridge -->
<g id="node16" class="node">
<title>aegis&#45;agent&#45;bridge</title>
<path fill="#161b22" stroke="#58a6ff" d="M198.5,-1191C198.5,-1191 57.5,-1191 57.5,-1191 51.5,-1191 45.5,-1185 45.5,-1179 45.5,-1179 45.5,-1165 45.5,-1165 45.5,-1159 51.5,-1153 57.5,-1153 57.5,-1153 198.5,-1153 198.5,-1153 204.5,-1153 210.5,-1159 210.5,-1165 210.5,-1165 210.5,-1179 210.5,-1179 210.5,-1185 204.5,-1191 198.5,-1191"/>
<text text-anchor="middle" x="128" y="-1175.8" font-family="Courier,monospace" font-size="14.00" fill="#c9d1d9">aegis&#45;agent&#45;bridge</text>
<text text-anchor="middle" x="128" y="-1160.8" font-family="Courier,monospace" font-size="14.00" fill="#c9d1d9">[]</text>
</g>
<!-- AegisAgent -->
<g id="node17" class="node">
<title>AegisAgent</title>
<path fill="#161b22" stroke="#58a6ff" d="M165.5,-1247C165.5,-1247 90.5,-1247 90.5,-1247 84.5,-1247 78.5,-1241 78.5,-1235 78.5,-1235 78.5,-1221 78.5,-1221 78.5,-1215 84.5,-1209 90.5,-1209 90.5,-1209 165.5,-1209 165.5,-1209 171.5,-1209 177.5,-1215 177.5,-1221 177.5,-1221 177.5,-1235 177.5,-1235 177.5,-1241 171.5,-1247 165.5,-1247"/>
<text text-anchor="middle" x="128" y="-1231.8" font-family="Courier,monospace" font-size="14.00" fill="#c9d1d9">AegisAgent</text>
<text text-anchor="middle" x="128" y="-1216.8" font-family="Courier,monospace" font-size="14.00" fill="#c9d1d9">[]</text>
</g>
<!-- batch_termux -->
<g id="node18" class="node">
<title>batch_termux</title>
<path fill="#161b22" stroke="#58a6ff" d="M174,-1303C174,-1303 82,-1303 82,-1303 76,-1303 70,-1297 70,-1291 70,-1291 70,-1277 70,-1277 70,-1271 76,-1265 82,-1265 82,-1265 174,-1265 174,-1265 180,-1265 186,-1271 186,-1277 186,-1277 186,-1291 186,-1291 186,-1297 180,-1303 174,-1303"/>
<text text-anchor="middle" x="128" y="-1287.8" font-family="Courier,monospace" font-size="14.00" fill="#c9d1d9">batch_termux</text>
<text text-anchor="middle" x="128" y="-1272.8" font-family="Courier,monospace" font-size="14.00" fill="#c9d1d9">[]</text>
</g>
<!-- DARWIN_GRID_DEPLOY -->
<g id="node19" class="node">
<title>DARWIN_GRID_DEPLOY</title>
<path fill="#161b22" stroke="#58a6ff" d="M198.5,-1359C198.5,-1359 57.5,-1359 57.5,-1359 51.5,-1359 45.5,-1353 45.5,-1347 45.5,-1347 45.5,-1333 45.5,-1333 45.5,-1327 51.5,-1321 57.5,-1321 57.5,-1321 198.5,-1321 198.5,-1321 204.5,-1321 210.5,-1327 210.5,-1333 210.5,-1333 210.5,-1347 210.5,-1347 210.5,-1353 204.5,-1359 198.5,-1359"/>
<text text-anchor="middle" x="128" y="-1343.8" font-family="Courier,monospace" font-size="14.00" fill="#c9d1d9">DARWIN_GRID_DEPLOY</text>
<text text-anchor="middle" x="128" y="-1328.8" font-family="Courier,monospace" font-size="14.00" fill="#c9d1d9">[]</text>
</g>
<!-- E2E_Final_Test -->
<g id="node20" class="node">
<title>E2E_Final_Test</title>
<path fill="#161b22" stroke="#58a6ff" d="M182,-1415C182,-1415 74,-1415 74,-1415 68,-1415 62,-1409 62,-1403 62,-1403 62,-1389 62,-1389 62,-1383 68,-1377 74,-1377 74,-1377 182,-1377 182,-1377 188,-1377 194,-1383 194,-1389 194,-1389 194,-1403 194,-1403 194,-1409 188,-1415 182,-1415"/>
<text text-anchor="middle" x="128" y="-1399.8" font-family="Courier,monospace" font-size="14.00" fill="#c9d1d9">E2E_Final_Test</text>
<text text-anchor="middle" x="128" y="-1384.8" font-family="Courier,monospace" font-size="14.00" fill="#c9d1d9">[]</text>
</g>
<!-- E2E_Test_Deploy_6172 -->
<g id="node21" class="node">
<title>E2E_Test_Deploy_6172</title>
<path fill="#161b22" stroke="#58a6ff" d="M207,-1471C207,-1471 49,-1471 49,-1471 43,-1471 37,-1465 37,-1459 37,-1459 37,-1445 37,-1445 37,-1439 43,-1433 49,-1433 49,-1433 207,-1433 207,-1433 213,-1433 219,-1439 219,-1445 219,-1445 219,-1459 219,-1459 219,-1465 213,-1471 207,-1471"/>
<text text-anchor="middle" x="128" y="-1455.8" font-family="Courier,monospace" font-size="14.00" fill="#c9d1d9">E2E_Test_Deploy_6172</text>
<text text-anchor="middle" x="128" y="-1440.8" font-family="Courier,monospace" font-size="14.00" fill="#c9d1d9">[]</text>
</g>
<!-- evolved_system -->
<g id="node22" class="node">
<title>evolved_system</title>
<path fill="#161b22" stroke="#58a6ff" d="M182,-1527C182,-1527 74,-1527 74,-1527 68,-1527 62,-1521 62,-1515 62,-1515 62,-1501 62,-1501 62,-1495 68,-1489 74,-1489 74,-1489 182,-1489 182,-1489 188,-1489 194,-1495 194,-1501 194,-1501 194,-1515 194,-1515 194,-1521 188,-1527 182,-1527"/>
<text text-anchor="middle" x="128" y="-1511.8" font-family="Courier,monospace" font-size="14.00" fill="#c9d1d9">evolved_system</text>
<text text-anchor="middle" x="128" y="-1496.8" font-family="Courier,monospace" font-size="14.00" fill="#c9d1d9">[]</text>
</g>
<!-- Flappy_bird_except_python_and -->
<g id="node23" class="node">
<title>Flappy_bird_except_python_and</title>
<path fill="#161b22" stroke="#58a6ff" d="M244,-1583C244,-1583 12,-1583 12,-1583 6,-1583 0,-1577 0,-1571 0,-1571 0,-1557 0,-1557 0,-1551 6,-1545 12,-1545 12,-1545 244,-1545 244,-1545 250,-1545 256,-1551 256,-1557 256,-1557 256,-1571 256,-1571 256,-1577 250,-1583 244,-1583"/>
<text text-anchor="middle" x="128" y="-1567.8" font-family="Courier,monospace" font-size="14.00" fill="#c9d1d9">Flappy_bird_except_python_and</text>
<text text-anchor="middle" x="128" y="-1552.8" font-family="Courier,monospace" font-size="14.00" fill="#c9d1d9">[]</text>
</g>
<!-- fleet&#45;repo&#45;scanner -->
<g id="node24" class="node">
<title>fleet&#45;repo&#45;scanner</title>
<path fill="#161b22" stroke="#58a6ff" d="M198.5,-1639C198.5,-1639 57.5,-1639 57.5,-1639 51.5,-1639 45.5,-1633 45.5,-1627 45.5,-1627 45.5,-1613 45.5,-1613 45.5,-1607 51.5,-1601 57.5,-1601 57.5,-1601 198.5,-1601 198.5,-1601 204.5,-1601 210.5,-1607 210.5,-1613 210.5,-1613 210.5,-1627 210.5,-1627 210.5,-1633 204.5,-1639 198.5,-1639"/>
<text text-anchor="middle" x="128" y="-1623.8" font-family="Courier,monospace" font-size="14.00" fill="#c9d1d9">fleet&#45;repo&#45;scanner</text>
<text text-anchor="middle" x="128" y="-1608.8" font-family="Courier,monospace" font-size="14.00" fill="#c9d1d9">[]</text>
</g>
<!-- frontier&#45;ai&#45;dlc -->
<g id="node25" class="node">
<title>frontier&#45;ai&#45;dlc</title>
<path fill="#161b22" stroke="#58a6ff" d="M186,-1695C186,-1695 70,-1695 70,-1695 64,-1695 58,-1689 58,-1683 58,-1683 58,-1669 58,-1669 58,-1663 64,-1657 70,-1657 70,-1657 186,-1657 186,-1657 192,-1657 198,-1663 198,-1669 198,-1669 198,-1683 198,-1683 198,-1689 192,-1695 186,-1695"/>
<text text-anchor="middle" x="128" y="-1679.8" font-family="Courier,monospace" font-size="14.00" fill="#c9d1d9">frontier&#45;ai&#45;dlc</text>
<text text-anchor="middle" x="128" y="-1664.8" font-family="Courier,monospace" font-size="14.00" fill="#c9d1d9">[]</text>
</g>
<!-- Gitautoworks -->
<g id="node26" class="node">
<title>Gitautoworks</title>
<path fill="#161b22" stroke="#58a6ff" d="M174,-1751C174,-1751 82,-1751 82,-1751 76,-1751 70,-1745 70,-1739 70,-1739 70,-1725 70,-1725 70,-1719 76,-1713 82,-1713 82,-1713 174,-1713 174,-1713 180,-1713 186,-1719 186,-1725 186,-1725 186,-1739 186,-1739 186,-1745 180,-1751 174,-1751"/>
<text text-anchor="middle" x="128" y="-1735.8" font-family="Courier,monospace" font-size="14.00" fill="#c9d1d9">Gitautoworks</text>
<text text-anchor="middle" x="128" y="-1720.8" font-family="Courier,monospace" font-size="14.00" fill="#c9d1d9">[]</text>
</g>
<!-- H2O_MATRIX -->
<g id="node27" class="node">
<title>H2O_MATRIX</title>
<path fill="#161b22" stroke="#58a6ff" d="M165.5,-1807C165.5,-1807 90.5,-1807 90.5,-1807 84.5,-1807 78.5,-1801 78.5,-1795 78.5,-1795 78.5,-1781 78.5,-1781 78.5,-1775 84.5,-1769 90.5,-1769 90.5,-1769 165.5,-1769 165.5,-1769 171.5,-1769 177.5,-1775 177.5,-1781 177.5,-1781 177.5,-1795 177.5,-1795 177.5,-1801 171.5,-1807 165.5,-1807"/>
<text text-anchor="middle" x="128" y="-1791.8" font-family="Courier,monospace" font-size="14.00" fill="#c9d1d9">H2O_MATRIX</text>
<text text-anchor="middle" x="128" y="-1776.8" font-family="Courier,monospace" font-size="14.00" fill="#c9d1d9">[]</text>
</g>
<!-- house&#45;inference -->
<g id="node28" class="node">
<title>house&#45;inference</title>
<path fill="#161b22" stroke="#58a6ff" d="M186,-1863C186,-1863 70,-1863 70,-1863 64,-1863 58,-1857 58,-1851 58,-1851 58,-1837 58,-1837 58,-1831 64,-1825 70,-1825 70,-1825 186,-1825 186,-1825 192,-1825 198,-1831 198,-1837 198,-1837 198,-1851 198,-1851 198,-1857 192,-1863 186,-1863"/>
<text text-anchor="middle" x="128" y="-1847.8" font-family="Courier,monospace" font-size="14.00" fill="#c9d1d9">house&#45;inference</text>
<text text-anchor="middle" x="128" y="-1832.8" font-family="Courier,monospace" font-size="14.00" fill="#c9d1d9">[]</text>
</g>
<!-- JRM -->
<g id="node29" class="node">
<title>JRM</title>
<path fill="#161b22" stroke="#58a6ff" d="M143,-1919C143,-1919 113,-1919 113,-1919 107,-1919 101,-1913 101,-1907 101,-1907 101,-1893 101,-1893 101,-1887 107,-1881 113,-1881 113,-1881 143,-1881 143,-1881 149,-1881 155,-1887 155,-1893 155,-1893 155,-1907 155,-1907 155,-1913 149,-1919 143,-1919"/>
<text text-anchor="middle" x="128" y="-1903.8" font-family="Courier,monospace" font-size="14.00" fill="#c9d1d9">JRM</text>
<text text-anchor="middle" x="128" y="-1888.8" font-family="Courier,monospace" font-size="14.00" fill="#c9d1d9">[]</text>
</g>
<!-- living&#45;ascii&#45;art -->
<g id="node30" class="node">
<title>living&#45;ascii&#45;art</title>
<path fill="#161b22" stroke="#58a6ff" d="M190.5,-1975C190.5,-1975 65.5,-1975 65.5,-1975 59.5,-1975 53.5,-1969 53.5,-1963 53.5,-1963 53.5,-1949 53.5,-1949 53.5,-1943 59.5,-1937 65.5,-1937 65.5,-1937 190.5,-1937 190.5,-1937 196.5,-1937 202.5,-1943 202.5,-1949 202.5,-1949 202.5,-1963 202.5,-1963 202.5,-1969 196.5,-1975 190.5,-1975"/>
<text text-anchor="middle" x="128" y="-1959.8" font-family="Courier,monospace" font-size="14.00" fill="#c9d1d9">living&#45;ascii&#45;art</text>
<text text-anchor="middle" x="128" y="-1944.8" font-family="Courier,monospace" font-size="14.00" fill="#c9d1d9">[]</text>
</g>
<!-- Machine2 -->
<g id="node31" class="node">
<title>Machine2</title>
<path fill="#161b22" stroke="#58a6ff" d="M157.5,-2031C157.5,-2031 98.5,-2031 98.5,-2031 92.5,-2031 86.5,-2025 86.5,-2019 86.5,-2019 86.5,-2005 86.5,-2005 86.5,-1999 92.5,-1993 98.5,-1993 98.5,-1993 157.5,-1993 157.5,-1993 163.5,-1993 169.5,-1999 169.5,-2005 169.5,-2005 169.5,-2019 169.5,-2019 169.5,-2025 163.5,-2031 157.5,-2031"/>
<text text-anchor="middle" x="128" y="-2015.8" font-family="Courier,monospace" font-size="14.00" fill="#c9d1d9">Machine2</text>
<text text-anchor="middle" x="128" y="-2000.8" font-family="Courier,monospace" font-size="14.00" fill="#c9d1d9">[]</text>
</g>
<!-- Matrix_CEAGENTS -->
<g id="node32" class="node">
<title>Matrix_CEAGENTS</title>
<path fill="#161b22" stroke="#58a6ff" d="M186,-2087C186,-2087 70,-2087 70,-2087 64,-2087 58,-2081 58,-2075 58,-2075 58,-2061 58,-2061 58,-2055 64,-2049 70,-2049 70,-2049 186,-2049 186,-2049 192,-2049 198,-2055 198,-2061 198,-2061 198,-2075 198,-2075 198,-2081 192,-2087 186,-2087"/>
<text text-anchor="middle" x="128" y="-2071.8" font-family="Courier,monospace" font-size="14.00" fill="#c9d1d9">Matrix_CEAGENTS</text>
<text text-anchor="middle" x="128" y="-2056.8" font-family="Courier,monospace" font-size="14.00" fill="#c9d1d9">[]</text>
</g>
<!-- Matrix_CEAPK -->
<g id="node33" class="node">
<title>Matrix_CEAPK</title>
<path fill="#161b22" stroke="#58a6ff" d="M174,-2143C174,-2143 82,-2143 82,-2143 76,-2143 70,-2137 70,-2131 70,-2131 70,-2117 70,-2117 70,-2111 76,-2105 82,-2105 82,-2105 174,-2105 174,-2105 180,-2105 186,-2111 186,-2117 186,-2117 186,-2131 186,-2131 186,-2137 180,-2143 174,-2143"/>
<text text-anchor="middle" x="128" y="-2127.8" font-family="Courier,monospace" font-size="14.00" fill="#c9d1d9">Matrix_CEAPK</text>
<text text-anchor="middle" x="128" y="-2112.8" font-family="Courier,monospace" font-size="14.00" fill="#c9d1d9">[]</text>
</g>
<!-- Matrix_CEAPPS -->
<g id="node34" class="node">
<title>Matrix_CEAPPS</title>
<path fill="#161b22" stroke="#58a6ff" d="M178,-2199C178,-2199 78,-2199 78,-2199 72,-2199 66,-2193 66,-2187 66,-2187 66,-2173 66,-2173 66,-2167 72,-2161 78,-2161 78,-2161 178,-2161 178,-2161 184,-2161 190,-2167 190,-2173 190,-2173 190,-2187 190,-2187 190,-2193 184,-2199 178,-2199"/>
<text text-anchor="middle" x="128" y="-2183.8" font-family="Courier,monospace" font-size="14.00" fill="#c9d1d9">Matrix_CEAPPS</text>
<text text-anchor="middle" x="128" y="-2168.8" font-family="Courier,monospace" font-size="14.00" fill="#c9d1d9">[]</text>
</g>
<!-- Matrix_CEBack -->
<g id="node35" class="node">
<title>Matrix_CEBack</title>
<path fill="#161b22" stroke="#58a6ff" d="M178,-2255C178,-2255 78,-2255 78,-2255 72,-2255 66,-2249 66,-2243 66,-2243 66,-2229 66,-2229 66,-2223 72,-2217 78,-2217 78,-2217 178,-2217 178,-2217 184,-2217 190,-2223 190,-2229 190,-2229 190,-2243 190,-2243 190,-2249 184,-2255 178,-2255"/>
<text text-anchor="middle" x="128" y="-2239.8" font-family="Courier,monospace" font-size="14.00" fill="#c9d1d9">Matrix_CEBack</text>
<text text-anchor="middle" x="128" y="-2224.8" font-family="Courier,monospace" font-size="14.00" fill="#c9d1d9">[]</text>
</g>
<!-- Matrix_CEKAI9000 -->
<g id="node36" class="node">
<title>Matrix_CEKAI9000</title>
<path fill="#161b22" stroke="#58a6ff" d="M190.5,-2311C190.5,-2311 65.5,-2311 65.5,-2311 59.5,-2311 53.5,-2305 53.5,-2299 53.5,-2299 53.5,-2285 53.5,-2285 53.5,-2279 59.5,-2273 65.5,-2273 65.5,-2273 190.5,-2273 190.5,-2273 196.5,-2273 202.5,-2279 202.5,-2285 202.5,-2285 202.5,-2299 202.5,-2299 202.5,-2305 196.5,-2311 190.5,-2311"/>
<text text-anchor="middle" x="128" y="-2295.8" font-family="Courier,monospace" font-size="14.00" fill="#c9d1d9">Matrix_CEKAI9000</text>
<text text-anchor="middle" x="128" y="-2280.8" font-family="Courier,monospace" font-size="14.00" fill="#c9d1d9">[]</text>
</g>
<!-- Matrix_CESERVERS -->
<g id="node37" class="node">
<title>Matrix_CESERVERS</title>
<path fill="#161b22" stroke="#58a6ff" d="M190.5,-2367C190.5,-2367 65.5,-2367 65.5,-2367 59.5,-2367 53.5,-2361 53.5,-2355 53.5,-2355 53.5,-2341 53.5,-2341 53.5,-2335 59.5,-2329 65.5,-2329 65.5,-2329 190.5,-2329 190.5,-2329 196.5,-2329 202.5,-2335 202.5,-2341 202.5,-2341 202.5,-2355 202.5,-2355 202.5,-2361 196.5,-2367 190.5,-2367"/>
<text text-anchor="middle" x="128" y="-2351.8" font-family="Courier,monospace" font-size="14.00" fill="#c9d1d9">Matrix_CESERVERS</text>
<text text-anchor="middle" x="128" y="-2336.8" font-family="Courier,monospace" font-size="14.00" fill="#c9d1d9">[]</text>
</g>
<!-- matrix_dash -->
<g id="node38" class="node">
<title>matrix_dash</title>
<path fill="#161b22" stroke="#58a6ff" d="M169.5,-2423C169.5,-2423 86.5,-2423 86.5,-2423 80.5,-2423 74.5,-2417 74.5,-2411 74.5,-2411 74.5,-2397 74.5,-2397 74.5,-2391 80.5,-2385 86.5,-2385 86.5,-2385 169.5,-2385 169.5,-2385 175.5,-2385 181.5,-2391 181.5,-2397 181.5,-2397 181.5,-2411 181.5,-2411 181.5,-2417 175.5,-2423 169.5,-2423"/>
<text text-anchor="middle" x="128" y="-2407.8" font-family="Courier,monospace" font-size="14.00" fill="#c9d1d9">matrix_dash</text>
<text text-anchor="middle" x="128" y="-2392.8" font-family="Courier,monospace" font-size="14.00" fill="#c9d1d9">[]</text>
</g>
<!-- moe&#45;kai&#45;skill -->
<g id="node39" class="node">
<title>moe&#45;kai&#45;skill</title>
<path fill="#161b22" stroke="#58a6ff" d="M178,-2479C178,-2479 78,-2479 78,-2479 72,-2479 66,-2473 66,-2467 66,-2467 66,-2453 66,-2453 66,-2447 72,-2441 78,-2441 78,-2441 178,-2441 178,-2441 184,-2441 190,-2447 190,-2453 190,-2453 190,-2467 190,-2467 190,-2473 184,-2479 178,-2479"/>
<text text-anchor="middle" x="128" y="-2463.8" font-family="Courier,monospace" font-size="14.00" fill="#c9d1d9">moe&#45;kai&#45;skill</text>
<text text-anchor="middle" x="128" y="-2448.8" font-family="Courier,monospace" font-size="14.00" fill="#c9d1d9">[]</text>
</g>
<!-- MultiPage_E2E_20010 -->
<g id="node40" class="node">
<title>MultiPage_E2E_20010</title>
<path fill="#161b22" stroke="#58a6ff" d="M202.5,-2535C202.5,-2535 53.5,-2535 53.5,-2535 47.5,-2535 41.5,-2529 41.5,-2523 41.5,-2523 41.5,-2509 41.5,-2509 41.5,-2503 47.5,-2497 53.5,-2497 53.5,-2497 202.5,-2497 202.5,-2497 208.5,-2497 214.5,-2503 214.5,-2509 214.5,-2509 214.5,-2523 214.5,-2523 214.5,-2529 208.5,-2535 202.5,-2535"/>
<text text-anchor="middle" x="128" y="-2519.8" font-family="Courier,monospace" font-size="14.00" fill="#c9d1d9">MultiPage_E2E_20010</text>
<text text-anchor="middle" x="128" y="-2504.8" font-family="Courier,monospace" font-size="14.00" fill="#c9d1d9">[]</text>
</g>
<!-- NAS_SHARE -->
<g id="node41" class="node">
<title>NAS_SHARE</title>
<path fill="#161b22" stroke="#58a6ff" d="M161.5,-2591C161.5,-2591 94.5,-2591 94.5,-2591 88.5,-2591 82.5,-2585 82.5,-2579 82.5,-2579 82.5,-2565 82.5,-2565 82.5,-2559 88.5,-2553 94.5,-2553 94.5,-2553 161.5,-2553 161.5,-2553 167.5,-2553 173.5,-2559 173.5,-2565 173.5,-2565 173.5,-2579 173.5,-2579 173.5,-2585 167.5,-2591 161.5,-2591"/>
<text text-anchor="middle" x="128" y="-2575.8" font-family="Courier,monospace" font-size="14.00" fill="#c9d1d9">NAS_SHARE</text>
<text text-anchor="middle" x="128" y="-2560.8" font-family="Courier,monospace" font-size="14.00" fill="#c9d1d9">[]</text>
</g>
<!-- openrouter -->
<g id="node42" class="node">
<title>openrouter</title>
<path fill="#161b22" stroke="#58a6ff" d="M165.5,-2647C165.5,-2647 90.5,-2647 90.5,-2647 84.5,-2647 78.5,-2641 78.5,-2635 78.5,-2635 78.5,-2621 78.5,-2621 78.5,-2615 84.5,-2609 90.5,-2609 90.5,-2609 165.5,-2609 165.5,-2609 171.5,-2609 177.5,-2615 177.5,-2621 177.5,-2621 177.5,-2635 177.5,-2635 177.5,-2641 171.5,-2647 165.5,-2647"/>
<text text-anchor="middle" x="128" y="-2631.8" font-family="Courier,monospace" font-size="14.00" fill="#c9d1d9">openrouter</text>
<text text-anchor="middle" x="128" y="-2616.8" font-family="Courier,monospace" font-size="14.00" fill="#c9d1d9">[]</text>
</g>
<!-- RandomTestProject -->
<g id="node43" class="node">
<title>RandomTestProject</title>
<path fill="#161b22" stroke="#58a6ff" d="M194.5,-2703C194.5,-2703 61.5,-2703 61.5,-2703 55.5,-2703 49.5,-2697 49.5,-2691 49.5,-2691 49.5,-2677 49.5,-2677 49.5,-2671 55.5,-2665 61.5,-2665 61.5,-2665 194.5,-2665 194.5,-2665 200.5,-2665 206.5,-2671 206.5,-2677 206.5,-2677 206.5,-2691 206.5,-2691 206.5,-2697 200.5,-2703 194.5,-2703"/>
<text text-anchor="middle" x="128" y="-2687.8" font-family="Courier,monospace" font-size="14.00" fill="#c9d1d9">RandomTestProject</text>
<text text-anchor="middle" x="128" y="-2672.8" font-family="Courier,monospace" font-size="14.00" fill="#c9d1d9">[]</text>
</g>
<!-- Ryush -->
<g id="node44" class="node">
<title>Ryush</title>
<path fill="#161b22" stroke="#58a6ff" d="M145,-2759C145,-2759 111,-2759 111,-2759 105,-2759 99,-2753 99,-2747 99,-2747 99,-2733 99,-2733 99,-2727 105,-2721 111,-2721 111,-2721 145,-2721 145,-2721 151,-2721 157,-2727 157,-2733 157,-2733 157,-2747 157,-2747 157,-2753 151,-2759 145,-2759"/>
<text text-anchor="middle" x="128" y="-2743.8" font-family="Courier,monospace" font-size="14.00" fill="#c9d1d9">Ryush</text>
<text text-anchor="middle" x="128" y="-2728.8" font-family="Courier,monospace" font-size="14.00" fill="#c9d1d9">[]</text>
</g>
<!-- SimAgentCity -->
<g id="node45" class="node">
<title>SimAgentCity</title>
<path fill="#161b22" stroke="#58a6ff" d="M174,-2815C174,-2815 82,-2815 82,-2815 76,-2815 70,-2809 70,-2803 70,-2803 70,-2789 70,-2789 70,-2783 76,-2777 82,-2777 82,-2777 174,-2777 174,-2777 180,-2777 186,-2783 186,-2789 186,-2789 186,-2803 186,-2803 186,-2809 180,-2815 174,-2815"/>
<text text-anchor="middle" x="128" y="-2799.8" font-family="Courier,monospace" font-size="14.00" fill="#c9d1d9">SimAgentCity</text>
<text text-anchor="middle" x="128" y="-2784.8" font-family="Courier,monospace" font-size="14.00" fill="#c9d1d9">[]</text>
</g>
<!-- SIMS1337 -->
<g id="node46" class="node">
<title>SIMS1337</title>
<path fill="#161b22" stroke="#58a6ff" d="M157.5,-2871C157.5,-2871 98.5,-2871 98.5,-2871 92.5,-2871 86.5,-2865 86.5,-2859 86.5,-2859 86.5,-2845 86.5,-2845 86.5,-2839 92.5,-2833 98.5,-2833 98.5,-2833 157.5,-2833 157.5,-2833 163.5,-2833 169.5,-2839 169.5,-2845 169.5,-2845 169.5,-2859 169.5,-2859 169.5,-2865 163.5,-2871 157.5,-2871"/>
<text text-anchor="middle" x="128" y="-2855.8" font-family="Courier,monospace" font-size="14.00" fill="#c9d1d9">SIMS1337</text>
<text text-anchor="middle" x="128" y="-2840.8" font-family="Courier,monospace" font-size="14.00" fill="#c9d1d9">[]</text>
</g>
<!-- SIMS1337&#45;BACKEND -->
<g id="node47" class="node">
<title>SIMS1337&#45;BACKEND</title>
<path fill="#161b22" stroke="#58a6ff" d="M190.5,-2927C190.5,-2927 65.5,-2927 65.5,-2927 59.5,-2927 53.5,-2921 53.5,-2915 53.5,-2915 53.5,-2901 53.5,-2901 53.5,-2895 59.5,-2889 65.5,-2889 65.5,-2889 190.5,-2889 190.5,-2889 196.5,-2889 202.5,-2895 202.5,-2901 202.5,-2901 202.5,-2915 202.5,-2915 202.5,-2921 196.5,-2927 190.5,-2927"/>
<text text-anchor="middle" x="128" y="-2911.8" font-family="Courier,monospace" font-size="14.00" fill="#c9d1d9">SIMS1337&#45;BACKEND</text>
<text text-anchor="middle" x="128" y="-2896.8" font-family="Courier,monospace" font-size="14.00" fill="#c9d1d9">[]</text>
</g>
<!-- SIMS1337&#45;SKY -->
<g id="node48" class="node">
<title>SIMS1337&#45;SKY</title>
<path fill="#161b22" stroke="#58a6ff" d="M174,-2983C174,-2983 82,-2983 82,-2983 76,-2983 70,-2977 70,-2971 70,-2971 70,-2957 70,-2957 70,-2951 76,-2945 82,-2945 82,-2945 174,-2945 174,-2945 180,-2945 186,-2951 186,-2957 186,-2957 186,-2971 186,-2971 186,-2977 180,-2983 174,-2983"/>
<text text-anchor="middle" x="128" y="-2967.8" font-family="Courier,monospace" font-size="14.00" fill="#c9d1d9">SIMS1337&#45;SKY</text>
<text text-anchor="middle" x="128" y="-2952.8" font-family="Courier,monospace" font-size="14.00" fill="#c9d1d9">[]</text>
</g>
<!-- SIMS1337BACKEND -->
<g id="node49" class="node">
<title>SIMS1337BACKEND</title>
<path fill="#161b22" stroke="#58a6ff" d="M186,-3039C186,-3039 70,-3039 70,-3039 64,-3039 58,-3033 58,-3027 58,-3027 58,-3013 58,-3013 58,-3007 64,-3001 70,-3001 70,-3001 186,-3001 186,-3001 192,-3001 198,-3007 198,-3013 198,-3013 198,-3027 198,-3027 198,-3033 192,-3039 186,-3039"/>
<text text-anchor="middle" x="128" y="-3023.8" font-family="Courier,monospace" font-size="14.00" fill="#c9d1d9">SIMS1337BACKEND</text>
<text text-anchor="middle" x="128" y="-3008.8" font-family="Courier,monospace" font-size="14.00" fill="#c9d1d9">[]</text>
</g>
<!-- SIMS1337SKY -->
<g id="node50" class="node">
<title>SIMS1337SKY</title>
<path fill="#161b22" stroke="#58a6ff" d="M169.5,-3095C169.5,-3095 86.5,-3095 86.5,-3095 80.5,-3095 74.5,-3089 74.5,-3083 74.5,-3083 74.5,-3069 74.5,-3069 74.5,-3063 80.5,-3057 86.5,-3057 86.5,-3057 169.5,-3057 169.5,-3057 175.5,-3057 181.5,-3063 181.5,-3069 181.5,-3069 181.5,-3083 181.5,-3083 181.5,-3089 175.5,-3095 169.5,-3095"/>
<text text-anchor="middle" x="128" y="-3079.8" font-family="Courier,monospace" font-size="14.00" fill="#c9d1d9">SIMS1337SKY</text>
<text text-anchor="middle" x="128" y="-3064.8" font-family="Courier,monospace" font-size="14.00" fill="#c9d1d9">[]</text>
</g>
<!-- sovereign&#45;analytics -->
<g id="node51" class="node">
<title>sovereign&#45;analytics</title>
<path fill="#161b22" stroke="#58a6ff" d="M202.5,-3151C202.5,-3151 53.5,-3151 53.5,-3151 47.5,-3151 41.5,-3145 41.5,-3139 41.5,-3139 41.5,-3125 41.5,-3125 41.5,-3119 47.5,-3113 53.5,-3113 53.5,-3113 202.5,-3113 202.5,-3113 208.5,-3113 214.5,-3119 214.5,-3125 214.5,-3125 214.5,-3139 214.5,-3139 214.5,-3145 208.5,-3151 202.5,-3151"/>
<text text-anchor="middle" x="128" y="-3135.8" font-family="Courier,monospace" font-size="14.00" fill="#c9d1d9">sovereign&#45;analytics</text>
<text text-anchor="middle" x="128" y="-3120.8" font-family="Courier,monospace" font-size="14.00" fill="#c9d1d9">[]</text>
</g>
<!-- Sprite -->
<g id="node52" class="node">
<title>Sprite</title>
<path fill="#161b22" stroke="#58a6ff" d="M149,-3207C149,-3207 107,-3207 107,-3207 101,-3207 95,-3201 95,-3195 95,-3195 95,-3181 95,-3181 95,-3175 101,-3169 107,-3169 107,-3169 149,-3169 149,-3169 155,-3169 161,-3175 161,-3181 161,-3181 161,-3195 161,-3195 161,-3201 155,-3207 149,-3207"/>
<text text-anchor="middle" x="128" y="-3191.8" font-family="Courier,monospace" font-size="14.00" fill="#c9d1d9">Sprite</text>
<text text-anchor="middle" x="128" y="-3176.8" font-family="Courier,monospace" font-size="14.00" fill="#c9d1d9">[]</text>
</g>
<!-- teaching_sandbox -->
<g id="node53" class="node">
<title>teaching_sandbox</title>
<path fill="#161b22" stroke="#58a6ff" d="M190.5,-3263C190.5,-3263 65.5,-3263 65.5,-3263 59.5,-3263 53.5,-3257 53.5,-3251 53.5,-3251 53.5,-3237 53.5,-3237 53.5,-3231 59.5,-3225 65.5,-3225 65.5,-3225 190.5,-3225 190.5,-3225 196.5,-3225 202.5,-3231 202.5,-3237 202.5,-3237 202.5,-3251 202.5,-3251 202.5,-3257 196.5,-3263 190.5,-3263"/>
<text text-anchor="middle" x="128" y="-3247.8" font-family="Courier,monospace" font-size="14.00" fill="#c9d1d9">teaching_sandbox</text>
<text text-anchor="middle" x="128" y="-3232.8" font-family="Courier,monospace" font-size="14.00" fill="#c9d1d9">[]</text>
</g>
<!-- TestRepo999 -->
<g id="node54" class="node">
<title>TestRepo999</title>
<path fill="#161b22" stroke="#58a6ff" d="M169.5,-3319C169.5,-3319 86.5,-3319 86.5,-3319 80.5,-3319 74.5,-3313 74.5,-3307 74.5,-3307 74.5,-3293 74.5,-3293 74.5,-3287 80.5,-3281 86.5,-3281 86.5,-3281 169.5,-3281 169.5,-3281 175.5,-3281 181.5,-3287 181.5,-3293 181.5,-3293 181.5,-3307 181.5,-3307 181.5,-3313 175.5,-3319 169.5,-3319"/>
<text text-anchor="middle" x="128" y="-3303.8" font-family="Courier,monospace" font-size="14.00" fill="#c9d1d9">TestRepo999</text>
<text text-anchor="middle" x="128" y="-3288.8" font-family="Courier,monospace" font-size="14.00" fill="#c9d1d9">[]</text>
</g>
<!-- TestRepoPush -->
<g id="node55" class="node">
<title>TestRepoPush</title>
<path fill="#161b22" stroke="#58a6ff" d="M174,-3375C174,-3375 82,-3375 82,-3375 76,-3375 70,-3369 70,-3363 70,-3363 70,-3349 70,-3349 70,-3343 76,-3337 82,-3337 82,-3337 174,-3337 174,-3337 180,-3337 186,-3343 186,-3349 186,-3349 186,-3363 186,-3363 186,-3369 180,-3375 174,-3375"/>
<text text-anchor="middle" x="128" y="-3359.8" font-family="Courier,monospace" font-size="14.00" fill="#c9d1d9">TestRepoPush</text>
<text text-anchor="middle" x="128" y="-3344.8" font-family="Courier,monospace" font-size="14.00" fill="#c9d1d9">[]</text>
</g>
<!-- training_sandbox -->
<g id="node56" class="node">
<title>training_sandbox</title>
<path fill="#161b22" stroke="#58a6ff" d="M190.5,-3431C190.5,-3431 65.5,-3431 65.5,-3431 59.5,-3431 53.5,-3425 53.5,-3419 53.5,-3419 53.5,-3405 53.5,-3405 53.5,-3399 59.5,-3393 65.5,-3393 65.5,-3393 190.5,-3393 190.5,-3393 196.5,-3393 202.5,-3399 202.5,-3405 202.5,-3405 202.5,-3419 202.5,-3419 202.5,-3425 196.5,-3431 190.5,-3431"/>
<text text-anchor="middle" x="128" y="-3415.8" font-family="Courier,monospace" font-size="14.00" fill="#c9d1d9">training_sandbox</text>
<text text-anchor="middle" x="128" y="-3400.8" font-family="Courier,monospace" font-size="14.00" fill="#c9d1d9">[]</text>
</g>
<!-- vidalialed&#45;lite -->
<g id="node57" class="node">
<title>vidalialed&#45;lite</title>
<path fill="#161b22" stroke="#58a6ff" d="M186,-3487C186,-3487 70,-3487 70,-3487 64,-3487 58,-3481 58,-3475 58,-3475 58,-3461 58,-3461 58,-3455 64,-3449 70,-3449 70,-3449 186,-3449 186,-3449 192,-3449 198,-3455 198,-3461 198,-3461 198,-3475 198,-3475 198,-3481 192,-3487 186,-3487"/>
<text text-anchor="middle" x="128" y="-3471.8" font-family="Courier,monospace" font-size="14.00" fill="#c9d1d9">vidalialed&#45;lite</text>
<text text-anchor="middle" x="128" y="-3456.8" font-family="Courier,monospace" font-size="14.00" fill="#c9d1d9">[]</text>
</g>
<!-- wip&#45;quantum&#45;asm -->
<g id="node58" class="node">
<title>wip&#45;quantum&#45;asm</title>
<path fill="#161b22" stroke="#58a6ff" d="M186,-3543C186,-3543 70,-3543 70,-3543 64,-3543 58,-3537 58,-3531 58,-3531 58,-3517 58,-3517 58,-3511 64,-3505 70,-3505 70,-3505 186,-3505 186,-3505 192,-3505 198,-3511 198,-3517 198,-3517 198,-3531 198,-3531 198,-3537 192,-3543 186,-3543"/>
<text text-anchor="middle" x="128" y="-3527.8" font-family="Courier,monospace" font-size="14.00" fill="#c9d1d9">wip&#45;quantum&#45;asm</text>
<text text-anchor="middle" x="128" y="-3512.8" font-family="Courier,monospace" font-size="14.00" fill="#c9d1d9">[]</text>
</g>
<!-- WORKER_PACKAGE -->
<g id="node59" class="node">
<title>WORKER_PACKAGE</title>
<path fill="#161b22" stroke="#58a6ff" d="M182,-3599C182,-3599 74,-3599 74,-3599 68,-3599 62,-3593 62,-3587 62,-3587 62,-3573 62,-3573 62,-3567 68,-3561 74,-3561 74,-3561 182,-3561 182,-3561 188,-3561 194,-3567 194,-3573 194,-3573 194,-3587 194,-3587 194,-3593 188,-3599 182,-3599"/>
<text text-anchor="middle" x="128" y="-3583.8" font-family="Courier,monospace" font-size="14.00" fill="#c9d1d9">WORKER_PACKAGE</text>
<text text-anchor="middle" x="128" y="-3568.8" font-family="Courier,monospace" font-size="14.00" fill="#c9d1d9">[]</text>
</g>
</g>
</svg>
