<?xml version="1.0" encoding="UTF-8" standalone="no"?>
<!DOCTYPE svg PUBLIC "-//W3C//DTD SVG 1.1//EN"
 "http://www.w3.org/Graphics/SVG/1.1/DTD/svg11.dtd">
<!-- Generated by graphviz version 2.43.0 (0)
 -->
<!-- Title: UnifiedArchitecture Pages: 1 -->
<svg width="3008pt" height="3543pt"
 viewBox="0.00 0.00 3008.20 3542.97" xmlns="http://www.w3.org/2000/svg" xmlns:xlink="http://www.w3.org/1999/xlink">
<g id="graph0" class="graph" transform="scale(1 1) rotate(0) translate(21.6 3521.37)">
<title>UnifiedArchitecture</title>
<polygon fill="#0d1117" stroke="transparent" points="-21.6,21.6 -21.6,-3521.37 2986.6,-3521.37 2986.6,21.6 -21.6,21.6"/>
<!-- Aegis_Agents -->
<g id="node1" class="node">
<title>Aegis_Agents</title>
<path fill="#161b22" stroke="#58a6ff" d="M215,-923.77C215,-923.77 41,-923.77 41,-923.77 35,-923.77 29,-917.77 29,-911.77 29,-911.77 29,-897.77 29,-897.77 29,-891.77 35,-885.77 41,-885.77 41,-885.77 215,-885.77 215,-885.77 221,-885.77 227,-891.77 227,-897.77 227,-897.77 227,-911.77 227,-911.77 227,-917.77 221,-923.77 215,-923.77"/>
<text text-anchor="middle" x="128" y="-908.57" font-family="Courier,monospace" font-size="14.00" fill="#c9d1d9">Aegis_Agents</text>
<text text-anchor="middle" x="128" y="-893.57" font-family="Courier,monospace" font-size="14.00" fill="#c9d1d9">[Agent/BDI, Telemetry]</text>
</g>
<!-- Chrisalunlloyd2&#45;sudo -->
<g id="node2" class="node">
<title>Chrisalunlloyd2&#45;sudo</title>
<path fill="#161b22" stroke="#58a6ff" d="M536,-923.77C536,-923.77 362,-923.77 362,-923.77 356,-923.77 350,-917.77 350,-911.77 350,-911.77 350,-897.77 350,-897.77 350,-891.77 356,-885.77 362,-885.77 362,-885.77 536,-885.77 536,-885.77 542,-885.77 548,-891.77 548,-897.77 548,-897.77 548,-911.77 548,-911.77 548,-917.77 542,-923.77 536,-923.77"/>
<text text-anchor="middle" x="449" y="-908.57" font-family="Courier,monospace" font-size="14.00" fill="#c9d1d9">Chrisalunlloyd2&#45;sudo</text>
<text text-anchor="middle" x="449" y="-893.57" font-family="Courier,monospace" font-size="14.00" fill="#c9d1d9">[Agent/BDI, Telemetry]</text>
</g>
<!-- Aegis_Agents&#45;&gt;Chrisalunlloyd2&#45;sudo -->
<g id="edge1" class="edge">
<title>Aegis_Agents&#45;&gt;Chrisalunlloyd2&#45;sudo</title>
<path fill="none" stroke="#58a6ff" stroke-width="1.2" d="M227.31,-904.77C263.48,-904.77 304.59,-904.77 341.45,-904.77"/>
<polygon fill="#58a6ff" stroke="#58a6ff" stroke-width="1.2" points="341.74,-907.57 349.74,-904.77 341.74,-901.97 341.74,-907.57"/>
<text text-anchor="middle" x="303" y="-907.57" font-family="Courier,monospace" font-size="9.00" fill="#8b949e"> Agent/BDI </text>
</g>
<!-- H2OIDE -->
<g id="node3" class="node">
<title>H2OIDE</title>
<path fill="#161b22" stroke="#58a6ff" d="M737,-746.77C737,-746.77 654,-746.77 654,-746.77 648,-746.77 642,-740.77 642,-734.77 642,-734.77 642,-720.77 642,-720.77 642,-714.77 648,-708.77 654,-708.77 654,-708.77 737,-708.77 737,-708.77 743,-708.77 749,-714.77 749,-720.77 749,-720.77 749,-734.77 749,-734.77 749,-740.77 743,-746.77 737,-746.77"/>
<text text-anchor="middle" x="695.5" y="-731.57" font-family="Courier,monospace" font-size="14.00" fill="#c9d1d9">H2OIDE</text>
<text text-anchor="middle" x="695.5" y="-716.57" font-family="Courier,monospace" font-size="14.00" fill="#c9d1d9">[Telemetry]</text>
</g>
<!-- Aegis_Agents&#45;&gt;H2OIDE -->
<g id="edge2" class="edge">
<title>Aegis_Agents&#45;&gt;H2OIDE</title>
<path fill="none" stroke="#58a6ff" stroke-width="1.2" d="M156.05,-885.68C184.26,-866.61 230.35,-837.77 274,-820.77 397.05,-772.85 550.46,-746.79 633.77,-735.23"/>
<polygon fill="#58a6ff" stroke="#58a6ff" stroke-width="1.2" points="634.31,-737.98 641.86,-734.13 633.55,-732.44 634.31,-737.98"/>
<text text-anchor="middle" x="449" y="-795.57" font-family="Courier,monospace" font-size="9.00" fill="#8b949e"> Telemetry </text>
</g>
<!-- H2OMatrixCE -->
<g id="node4" class="node">
<title>H2OMatrixCE</title>
<path fill="#161b22" stroke="#58a6ff" d="M938,-519.77C938,-519.77 855,-519.77 855,-519.77 849,-519.77 843,-513.77 843,-507.77 843,-507.77 843,-493.77 843,-493.77 843,-487.77 849,-481.77 855,-481.77 855,-481.77 938,-481.77 938,-481.77 944,-481.77 950,-487.77 950,-493.77 950,-493.77 950,-507.77 950,-507.77 950,-513.77 944,-519.77 938,-519.77"/>
<text text-anchor="middle" x="896.5" y="-504.57" font-family="Courier,monospace" font-size="14.00" fill="#c9d1d9">H2OMatrixCE</text>
<text text-anchor="middle" x="896.5" y="-489.57" font-family="Courier,monospace" font-size="14.00" fill="#c9d1d9">[Telemetry]</text>
</g>
<!-- Aegis_Agents&#45;&gt;H2OMatrixCE -->
<g id="edge3" class="edge">
<title>Aegis_Agents&#45;&gt;H2OMatrixCE</title>
<path fill="none" stroke="#58a6ff" stroke-width="1.2" d="M153.92,-885.74C182.63,-863.92 231.34,-827.24 274,-796.77 475.93,-652.58 531.7,-613.54 767,-534.77 788.93,-527.44 813.37,-520.63 835.01,-515.07"/>
<polygon fill="#58a6ff" stroke="#58a6ff" stroke-width="1.2" points="835.78,-517.76 842.84,-513.08 834.4,-512.34 835.78,-517.76"/>
<text text-anchor="middle" x="595" y="-613.57" font-family="Courier,monospace" font-size="9.00" fill="#8b949e"> Telemetry </text>
</g>
<!-- MasterLogs -->
<g id="node6" class="node">
<title>MasterLogs</title>
<path fill="#161b22" stroke="#58a6ff" d="M1176.5,-732.77C1176.5,-732.77 1093.5,-732.77 1093.5,-732.77 1087.5,-732.77 1081.5,-726.77 1081.5,-720.77 1081.5,-720.77 1081.5,-706.77 1081.5,-706.77 1081.5,-700.77 1087.5,-694.77 1093.5,-694.77 1093.5,-694.77 1176.5,-694.77 1176.5,-694.77 1182.5,-694.77 1188.5,-700.77 1188.5,-706.77 1188.5,-706.77 1188.5,-720.77 1188.5,-720.77 1188.5,-726.77 1182.5,-732.77 1176.5,-732.77"/>
<text text-anchor="middle" x="1135" y="-717.57" font-family="Courier,monospace" font-size="14.00" fill="#c9d1d9">MasterLogs</text>
<text text-anchor="middle" x="1135" y="-702.57" font-family="Courier,monospace" font-size="14.00" fill="#c9d1d9">[Telemetry]</text>
</g>
<!-- Aegis_Agents&#45;&gt;MasterLogs -->
<g id="edge4" class="edge">
<title>Aegis_Agents&#45;&gt;MasterLogs</title>
<path fill="none" stroke="#58a6ff" stroke-width="1.2" d="M227.16,-888.19C362.11,-865.15 612.38,-821.56 825,-779.77 911.41,-762.79 1010.97,-741.15 1073.19,-727.38"/>
<polygon fill="#58a6ff" stroke="#58a6ff" stroke-width="1.2" points="1074.14,-730.04 1081.35,-725.57 1072.93,-724.57 1074.14,-730.04"/>
<text text-anchor="middle" x="695.5" y="-816.57" font-family="Courier,monospace" font-size="9.00" fill="#8b949e"> Telemetry </text>
</g>
<!-- MatrixCE_GUI -->
<g id="node7" class="node">
<title>MatrixCE_GUI</title>
<path fill="#161b22" stroke="#58a6ff" d="M1214,-1355.77C1214,-1355.77 1056,-1355.77 1056,-1355.77 1050,-1355.77 1044,-1349.77 1044,-1343.77 1044,-1343.77 1044,-1329.77 1044,-1329.77 1044,-1323.77 1050,-1317.77 1056,-1317.77 1056,-1317.77 1214,-1317.77 1214,-1317.77 1220,-1317.77 1226,-1323.77 1226,-1329.77 1226,-1329.77 1226,-1343.77 1226,-1343.77 1226,-1349.77 1220,-1355.77 1214,-1355.77"/>
<text text-anchor="middle" x="1135" y="-1340.57" font-family="Courier,monospace" font-size="14.00" fill="#c9d1d9">MatrixCE_GUI</text>
<text text-anchor="middle" x="1135" y="-1325.57" font-family="Courier,monospace" font-size="14.00" fill="#c9d1d9">[Agent/BDI, API/Web]</text>
</g>
<!-- Aegis_Agents&#45;&gt;MatrixCE_GUI -->
<g id="edge5" class="edge">
<title>Aegis_Agents&#45;&gt;MatrixCE_GUI</title>
<path fill="none" stroke="#58a6ff" stroke-width="1.2" d="M227.05,-912.29C238.13,-916.95 248.21,-923.54 256,-932.77 282.62,-964.31 249.15,-1270.82 274,-1303.77 323.17,-1368.97 366.34,-1362.77 448,-1362.77 448,-1362.77 448,-1362.77 897.5,-1362.77 943.1,-1362.77 993.34,-1357.94 1035.75,-1352.44"/>
<polygon fill="#58a6ff" stroke="#58a6ff" stroke-width="1.2" points="1036.29,-1355.19 1043.85,-1351.37 1035.55,-1349.64 1036.29,-1355.19"/>
<text text-anchor="middle" x="695.5" y="-1365.57" font-family="Courier,monospace" font-size="9.00" fill="#8b949e"> Agent/BDI </text>
</g>
<!-- MATRIX_GEN8_HOME -->
<g id="node8" class="node">
<title>MATRIX_GEN8_HOME</title>
<path fill="#161b22" stroke="#58a6ff" d="M1506,-954.77C1506,-954.77 1332,-954.77 1332,-954.77 1326,-954.77 1320,-948.77 1320,-942.77 1320,-942.77 1320,-928.77 1320,-928.77 1320,-922.77 1326,-916.77 1332,-916.77 1332,-916.77 1506,-916.77 1506,-916.77 1512,-916.77 1518,-922.77 1518,-928.77 1518,-928.77 1518,-942.77 1518,-942.77 1518,-948.77 1512,-954.77 1506,-954.77"/>
<text text-anchor="middle" x="1419" y="-939.57" font-family="Courier,monospace" font-size="14.00" fill="#c9d1d9">MATRIX_GEN8_HOME</text>
<text text-anchor="middle" x="1419" y="-924.57" font-family="Courier,monospace" font-size="14.00" fill="#c9d1d9">[Agent/BDI, Telemetry]</text>
</g>
<!-- Aegis_Agents&#45;&gt;MATRIX_GEN8_HOME -->
<g id="edge6" class="edge">
<title>Aegis_Agents&#45;&gt;MATRIX_GEN8_HOME</title>
<path fill="none" stroke="#58a6ff" stroke-width="1.2" d="M227.25,-912.51C238.22,-917.15 248.22,-923.68 256,-932.77 298.68,-982.69 226.17,-1182.77 274,-1227.77 363.18,-1311.68 702.56,-1229.24 825,-1227.77 880.57,-1227.11 896.73,-1240.59 950,-1224.77 1136.23,-1169.48 1322.02,-1019.56 1390.47,-960.33"/>
<polygon fill="#58a6ff" stroke="#58a6ff" stroke-width="1.2" points="1392.52,-962.25 1396.72,-954.89 1388.85,-958.03 1392.52,-962.25"/>
<text text-anchor="middle" x="796" y="-1234.57" font-family="Courier,monospace" font-size="9.00" fill="#8b949e"> Agent/BDI </text>
</g>
<!-- mind&#45;palace -->
<g id="node9" class="node">
<title>mind&#45;palace</title>
<path fill="#161b22" stroke="#58a6ff" d="M1744.5,-752.77C1744.5,-752.77 1661.5,-752.77 1661.5,-752.77 1655.5,-752.77 1649.5,-746.77 1649.5,-740.77 1649.5,-740.77 1649.5,-726.77 1649.5,-726.77 1649.5,-720.77 1655.5,-714.77 1661.5,-714.77 1661.5,-714.77 1744.5,-714.77 1744.5,-714.77 1750.5,-714.77 1756.5,-720.77 1756.5,-726.77 1756.5,-726.77 1756.5,-740.77 1756.5,-740.77 1756.5,-746.77 1750.5,-752.77 1744.5,-752.77"/>
<text text-anchor="middle" x="1703" y="-737.57" font-family="Courier,monospace" font-size="14.00" fill="#c9d1d9">mind&#45;palace</text>
<text text-anchor="middle" x="1703" y="-722.57" font-family="Courier,monospace" font-size="14.00" fill="#c9d1d9">[Telemetry]</text>
</g>
<!-- Aegis_Agents&#45;&gt;mind&#45;palace -->
<g id="edge7" class="edge">
<title>Aegis_Agents&#45;&gt;mind&#45;palace</title>
<path fill="none" stroke="#58a6ff" stroke-width="1.2" d="M227.28,-921.62C237.2,-924.74 246.94,-928.42 256,-932.77 415.54,-1009.42 401.24,-1118.09 566,-1182.77 670.21,-1223.69 1040.14,-1211.97 1302,-1196.77 1432.44,-1189.21 1504.69,-1258.14 1594,-1162.77 1621.15,-1133.79 1593.9,-841.13 1612,-805.77 1622.22,-785.81 1640.76,-769.52 1658.36,-757.52"/>
<polygon fill="#58a6ff" stroke="#58a6ff" stroke-width="1.2" points="1660.14,-759.69 1665.3,-752.97 1657.07,-755.01 1660.14,-759.69"/>
<text text-anchor="middle" x="896.5" y="-1213.57" font-family="Courier,monospace" font-size="9.00" fill="#8b949e"> Telemetry </text>
</g>
<!-- mindpalace -->
<g id="node10" class="node">
<title>mindpalace</title>
<path fill="#161b22" stroke="#58a6ff" d="M1983,-530.77C1983,-530.77 1900,-530.77 1900,-530.77 1894,-530.77 1888,-524.77 1888,-518.77 1888,-518.77 1888,-504.77 1888,-504.77 1888,-498.77 1894,-492.77 1900,-492.77 1900,-492.77 1983,-492.77 1983,-492.77 1989,-492.77 1995,-498.77 1995,-504.77 1995,-504.77 1995,-518.77 1995,-518.77 1995,-524.77 1989,-530.77 1983,-530.77"/>
<text text-anchor="middle" x="1941.5" y="-515.57" font-family="Courier,monospace" font-size="14.00" fill="#c9d1d9">mindpalace</text>
<text text-anchor="middle" x="1941.5" y="-500.57" font-family="Courier,monospace" font-size="14.00" fill="#c9d1d9">[Telemetry]</text>
</g>
<!-- Aegis_Agents&#45;&gt;mindpalace -->
<g id="edge8" class="edge">
<title>Aegis_Agents&#45;&gt;mindpalace</title>
<path fill="none" stroke="#58a6ff" stroke-width="1.2" d="M140.51,-885.46C170.43,-836.34 254.99,-704.33 350,-616.77 541.74,-440.08 599.51,-392.03 843,-298.77 1044.79,-221.49 1476.93,-260.13 1594,-280.77 1725.21,-303.91 1774.89,-304.48 1870,-397.77 1896.05,-423.32 1916.63,-460.34 1928.68,-485.19"/>
<polygon fill="#58a6ff" stroke="#58a6ff" stroke-width="1.2" points="1926.18,-486.46 1932.14,-492.49 1931.24,-484.06 1926.18,-486.46"/>
<text text-anchor="middle" x="997" y="-269.57" font-family="Courier,monospace" font-size="9.00" fill="#8b949e"> Telemetry </text>
</g>
<!-- Nova -->
<g id="node11" class="node">
<title>Nova</title>
<path fill="#161b22" stroke="#58a6ff" d="M2184,-461.77C2184,-461.77 2101,-461.77 2101,-461.77 2095,-461.77 2089,-455.77 2089,-449.77 2089,-449.77 2089,-435.77 2089,-435.77 2089,-429.77 2095,-423.77 2101,-423.77 2101,-423.77 2184,-423.77 2184,-423.77 2190,-423.77 2196,-429.77 2196,-435.77 2196,-435.77 2196,-449.77 2196,-449.77 2196,-455.77 2190,-461.77 2184,-461.77"/>
<text text-anchor="middle" x="2142.5" y="-446.57" font-family="Courier,monospace" font-size="14.00" fill="#c9d1d9">Nova</text>
<text text-anchor="middle" x="2142.5" y="-431.57" font-family="Courier,monospace" font-size="14.00" fill="#c9d1d9">[Telemetry]</text>
</g>
<!-- Aegis_Agents&#45;&gt;Nova -->
<g id="edge9" class="edge">
<title>Aegis_Agents&#45;&gt;Nova</title>
<path fill="none" stroke="#58a6ff" stroke-width="1.2" d="M132.16,-885.69C152.83,-763.94 273.43,-100.77 448,-100.77 448,-100.77 448,-100.77 1942.5,-100.77 2087.65,-100.77 2128.76,-333.77 2138.69,-415.14"/>
<polygon fill="#58a6ff" stroke="#58a6ff" stroke-width="1.2" points="2135.95,-415.79 2139.66,-423.41 2141.51,-415.14 2135.95,-415.79"/>
<text text-anchor="middle" x="1135" y="-103.57" font-family="Courier,monospace" font-size="9.00" fill="#8b949e"> Telemetry </text>
</g>
<!-- openrouter_manager -->
<g id="node12" class="node">
<title>openrouter_manager</title>
<path fill="#161b22" stroke="#58a6ff" d="M1782,-1318.77C1782,-1318.77 1624,-1318.77 1624,-1318.77 1618,-1318.77 1612,-1312.77 1612,-1306.77 1612,-1306.77 1612,-1292.77 1612,-1292.77 1612,-1286.77 1618,-1280.77 1624,-1280.77 1624,-1280.77 1782,-1280.77 1782,-1280.77 1788,-1280.77 1794,-1286.77 1794,-1292.77 1794,-1292.77 1794,-1306.77 1794,-1306.77 1794,-1312.77 1788,-1318.77 1782,-1318.77"/>
<text text-anchor="middle" x="1703" y="-1303.57" font-family="Courier,monospace" font-size="14.00" fill="#c9d1d9">openrouter_manager</text>
<text text-anchor="middle" x="1703" y="-1288.57" font-family="Courier,monospace" font-size="14.00" fill="#c9d1d9">[Agent/BDI, API/Web]</text>
</g>
<!-- Aegis_Agents&#45;&gt;openrouter_manager -->
<g id="edge10" class="edge">
<title>Aegis_Agents&#45;&gt;openrouter_manager</title>
<path fill="none" stroke="#58a6ff" stroke-width="1.2" d="M227.09,-912.26C238.16,-916.92 248.23,-923.53 256,-932.77 285.2,-967.51 248.28,-1303.39 274,-1340.77 281.65,-1351.9 438.89,-1412.77 448,-1412.77 448,-1412.77 448,-1412.77 1420,-1412.77 1515.21,-1412.77 1616.36,-1356.59 1667.73,-1323.46"/>
<polygon fill="#58a6ff" stroke="#58a6ff" stroke-width="1.2" points="1669.48,-1325.66 1674.65,-1318.94 1666.42,-1320.97 1669.48,-1325.66"/>
<text text-anchor="middle" x="896.5" y="-1415.57" font-family="Courier,monospace" font-size="9.00" fill="#8b949e"> Agent/BDI </text>
</g>
<!-- sims&#45;java&#45;neo&#45;fx -->
<g id="node13" class="node">
<title>sims&#45;java&#45;neo&#45;fx</title>
<path fill="#161b22" stroke="#58a6ff" d="M2427,-837.77C2427,-837.77 2302,-837.77 2302,-837.77 2296,-837.77 2290,-831.77 2290,-825.77 2290,-825.77 2290,-811.77 2290,-811.77 2290,-805.77 2296,-799.77 2302,-799.77 2302,-799.77 2427,-799.77 2427,-799.77 2433,-799.77 2439,-805.77 2439,-811.77 2439,-811.77 2439,-825.77 2439,-825.77 2439,-831.77 2433,-837.77 2427,-837.77"/>
<text text-anchor="middle" x="2364.5" y="-822.57" font-family="Courier,monospace" font-size="14.00" fill="#c9d1d9">sims&#45;java&#45;neo&#45;fx</text>
<text text-anchor="middle" x="2364.5" y="-807.57" font-family="Courier,monospace" font-size="14.00" fill="#c9d1d9">[Telemetry]</text>
</g>
<!-- Aegis_Agents&#45;&gt;sims&#45;java&#45;neo&#45;fx -->
<g id="edge11" class="edge">
<title>Aegis_Agents&#45;&gt;sims&#45;java&#45;neo&#45;fx</title>
<path fill="none" stroke="#58a6ff" stroke-width="1.2" d="M227.3,-912.48C238.26,-917.12 248.25,-923.66 256,-932.77 302.43,-987.37 229.02,-1198.98 274,-1254.77 295.99,-1282.06 315.27,-1271.07 350,-1275.77 516.63,-1298.37 1141.8,-1338.09 1794,-1228.77 1983.01,-1197.09 2043.9,-1189.37 2196,-1072.77 2233.91,-1043.71 2243.85,-1035.37 2272,-996.77 2308.07,-947.32 2337.83,-881.63 2352.88,-845.47"/>
<polygon fill="#58a6ff" stroke="#58a6ff" stroke-width="1.2" points="2355.58,-846.26 2356.04,-837.8 2350.41,-844.13 2355.58,-846.26"/>
<text text-anchor="middle" x="1273" y="-1292.57" font-family="Courier,monospace" font-size="9.00" fill="#8b949e"> Telemetry </text>
</g>
<!-- sims&#45;javafx&#45;neo -->
<g id="node14" class="node">
<title>sims&#45;javafx&#45;neo</title>
<path fill="#161b22" stroke="#58a6ff" d="M2661,-623.77C2661,-623.77 2545,-623.77 2545,-623.77 2539,-623.77 2533,-617.77 2533,-611.77 2533,-611.77 2533,-597.77 2533,-597.77 2533,-591.77 2539,-585.77 2545,-585.77 2545,-585.77 2661,-585.77 2661,-585.77 2667,-585.77 2673,-591.77 2673,-597.77 2673,-597.77 2673,-611.77 2673,-611.77 2673,-617.77 2667,-623.77 2661,-623.77"/>
<text text-anchor="middle" x="2603" y="-608.57" font-family="Courier,monospace" font-size="14.00" fill="#c9d1d9">sims&#45;javafx&#45;neo</text>
<text text-anchor="middle" x="2603" y="-593.57" font-family="Courier,monospace" font-size="14.00" fill="#c9d1d9">[Telemetry]</text>
</g>
<!-- Aegis_Agents&#45;&gt;sims&#45;javafx&#45;neo -->
<g id="edge12" class="edge">
<title>Aegis_Agents&#45;&gt;sims&#45;javafx&#45;neo</title>
<path fill="none" stroke="#58a6ff" stroke-width="1.2" d="M129.83,-885.5C134.11,-800.48 158.27,-451.85 274,-196.77 315.24,-105.88 348.18,-54.77 448,-54.77 448,-54.77 448,-54.77 998,-54.77 1475.79,-54.77 1649.57,104.34 2071,-120.77 2286.7,-236 2378.88,-242.61 2515,-445.77 2544.83,-490.31 2573.49,-545.97 2589.32,-578.24"/>
<polygon fill="#58a6ff" stroke="#58a6ff" stroke-width="1.2" points="2586.85,-579.57 2592.87,-585.53 2591.88,-577.11 2586.85,-579.57"/>
<text text-anchor="middle" x="1419" y="-34.57" font-family="Courier,monospace" font-size="9.00" fill="#8b949e"> Telemetry </text>
</g>
<!-- SimsMerged -->
<g id="node15" class="node">
<title>SimsMerged</title>
<path fill="#161b22" stroke="#58a6ff" d="M2953,-1078.77C2953,-1078.77 2779,-1078.77 2779,-1078.77 2773,-1078.77 2767,-1072.77 2767,-1066.77 2767,-1066.77 2767,-1052.77 2767,-1052.77 2767,-1046.77 2773,-1040.77 2779,-1040.77 2779,-1040.77 2953,-1040.77 2953,-1040.77 2959,-1040.77 2965,-1046.77 2965,-1052.77 2965,-1052.77 2965,-1066.77 2965,-1066.77 2965,-1072.77 2959,-1078.77 2953,-1078.77"/>
<text text-anchor="middle" x="2866" y="-1063.57" font-family="Courier,monospace" font-size="14.00" fill="#c9d1d9">SimsMerged</text>
<text text-anchor="middle" x="2866" y="-1048.57" font-family="Courier,monospace" font-size="14.00" fill="#c9d1d9">[Agent/BDI, Telemetry]</text>
</g>
<!-- Aegis_Agents&#45;&gt;SimsMerged -->
<g id="edge13" class="edge">
<title>Aegis_Agents&#45;&gt;SimsMerged</title>
<path fill="none" stroke="#58a6ff" stroke-width="1.2" d="M227.11,-912.24C238.18,-916.91 248.24,-923.52 256,-932.77 287.14,-969.94 248.09,-1327.79 274,-1368.77 319.69,-1441.03 362.51,-1450.77 448,-1450.77 448,-1450.77 448,-1450.77 2604,-1450.77 2779.33,-1450.77 2844.19,-1175.45 2860.52,-1086.87"/>
<polygon fill="#58a6ff" stroke="#58a6ff" stroke-width="1.2" points="2863.3,-1087.27 2861.95,-1078.9 2857.78,-1086.28 2863.3,-1087.27"/>
<text text-anchor="middle" x="1565" y="-1453.57" font-family="Courier,monospace" font-size="9.00" fill="#8b949e"> Agent/BDI </text>
</g>
<!-- Chrisalunlloyd2&#45;sudo&#45;&gt;H2OIDE -->
<g id="edge14" class="edge">
<title>Chrisalunlloyd2&#45;sudo&#45;&gt;H2OIDE</title>
<path fill="none" stroke="#58a6ff" stroke-width="1.2" d="M476.63,-885.5C521.55,-852.98 612.26,-787.31 661.27,-751.83"/>
<polygon fill="#58a6ff" stroke="#58a6ff" stroke-width="1.2" points="663.06,-753.99 667.9,-747.03 659.78,-749.45 663.06,-753.99"/>
<text text-anchor="middle" x="595" y="-818.57" font-family="Courier,monospace" font-size="9.00" fill="#8b949e"> Telemetry </text>
</g>
<!-- Chrisalunlloyd2&#45;sudo&#45;&gt;H2OMatrixCE -->
<g id="edge15" class="edge">
<title>Chrisalunlloyd2&#45;sudo&#45;&gt;H2OMatrixCE</title>
<path fill="none" stroke="#58a6ff" stroke-width="1.2" d="M472.3,-885.58C493.33,-866.79 524.97,-836.72 548,-806.77 557.71,-794.15 556.68,-788.7 566,-775.77 639.73,-673.57 665.46,-650.41 767,-575.77 793.52,-556.28 825.48,-537.61 850.89,-523.78"/>
<polygon fill="#58a6ff" stroke="#58a6ff" stroke-width="1.2" points="852.5,-526.09 858.21,-519.82 849.84,-521.16 852.5,-526.09"/>
<text text-anchor="middle" x="695.5" y="-680.57" font-family="Courier,monospace" font-size="9.00" fill="#8b949e"> Telemetry </text>
</g>
<!-- Chrisalunlloyd2&#45;sudo&#45;&gt;MasterLogs -->
<g id="edge16" class="edge">
<title>Chrisalunlloyd2&#45;sudo&#45;&gt;MasterLogs</title>
<path fill="none" stroke="#58a6ff" stroke-width="1.2" d="M548.17,-901.86C702.96,-896.38 989.95,-882.34 1026,-852.77 1047.86,-834.85 1028.7,-815.54 1044,-791.77 1057.75,-770.4 1079.04,-751.58 1097.47,-737.77"/>
<polygon fill="#58a6ff" stroke="#58a6ff" stroke-width="1.2" points="1099.3,-739.9 1104.1,-732.92 1095.99,-735.38 1099.3,-739.9"/>
<text text-anchor="middle" x="796" y="-893.57" font-family="Courier,monospace" font-size="9.00" fill="#8b949e"> Telemetry </text>
</g>
<!-- Chrisalunlloyd2&#45;sudo&#45;&gt;MatrixCE_GUI -->
<g id="edge17" class="edge">
<title>Chrisalunlloyd2&#45;sudo&#45;&gt;MatrixCE_GUI</title>
<path fill="none" stroke="#58a6ff" stroke-width="1.2" d="M453.26,-923.93C462.22,-970.51 491.68,-1090.36 566,-1151.77 657.57,-1227.45 711.88,-1181.51 825,-1217.77 833.17,-1220.39 834.99,-1221.68 843,-1224.77 924.05,-1256.13 1017.89,-1292.21 1076.6,-1314.75"/>
<polygon fill="#58a6ff" stroke="#58a6ff" stroke-width="1.2" points="1075.82,-1317.45 1084.29,-1317.7 1077.83,-1312.22 1075.82,-1317.45"/>
<text text-anchor="middle" x="796" y="-1220.57" font-family="Courier,monospace" font-size="9.00" fill="#8b949e"> Agent/BDI </text>
</g>
<!-- Chrisalunlloyd2&#45;sudo&#45;&gt;MATRIX_GEN8_HOME -->
<g id="edge18" class="edge">
<title>Chrisalunlloyd2&#45;sudo&#45;&gt;MATRIX_GEN8_HOME</title>
<path fill="none" stroke="#58a6ff" stroke-width="1.2" d="M490.88,-923.94C550.16,-950.57 664.18,-997.44 767,-1014.77 977.98,-1050.34 1230.03,-991.11 1349.15,-957.1"/>
<polygon fill="#58a6ff" stroke="#58a6ff" stroke-width="1.2" points="1350.24,-959.7 1357.15,-954.8 1348.69,-954.32 1350.24,-959.7"/>
<text text-anchor="middle" x="896.5" y="-1027.57" font-family="Courier,monospace" font-size="9.00" fill="#8b949e"> Agent/BDI </text>
</g>
<!-- Chrisalunlloyd2&#45;sudo&#45;&gt;mind&#45;palace -->
<g id="edge19" class="edge">
<title>Chrisalunlloyd2&#45;sudo&#45;&gt;mind&#45;palace</title>
<path fill="none" stroke="#58a6ff" stroke-width="1.2" d="M548.32,-905.98C623.98,-906.55 731.13,-906.59 825,-903.77 914.22,-901.1 1138.16,-896.62 1226,-880.77 1381.95,-852.65 1558.5,-789.49 1646.27,-755.84"/>
<polygon fill="#58a6ff" stroke="#58a6ff" stroke-width="1.2" points="1647.51,-758.37 1653.97,-752.88 1645.5,-753.14 1647.51,-758.37"/>
<text text-anchor="middle" x="997" y="-901.57" font-family="Courier,monospace" font-size="9.00" fill="#8b949e"> Telemetry </text>
</g>
<!-- Chrisalunlloyd2&#45;sudo&#45;&gt;mindpalace -->
<g id="edge20" class="edge">
<title>Chrisalunlloyd2&#45;sudo&#45;&gt;mindpalace</title>
<path fill="none" stroke="#58a6ff" stroke-width="1.2" d="M477.12,-885.51C499.89,-867.77 531.31,-839.32 548,-806.77 570.6,-762.69 547.57,-742.76 566,-696.77 621.31,-558.82 873.98,-302.77 895.5,-302.77 895.5,-302.77 895.5,-302.77 1274,-302.77 1511.9,-302.77 1572.62,-342.66 1794,-429.77 1833.76,-445.42 1876.01,-470.03 1904.88,-488.21"/>
<polygon fill="#58a6ff" stroke="#58a6ff" stroke-width="1.2" points="1903.66,-490.76 1911.91,-492.69 1906.66,-486.03 1903.66,-490.76"/>
<text text-anchor="middle" x="1135" y="-305.57" font-family="Courier,monospace" font-size="9.00" fill="#8b949e"> Telemetry </text>
</g>
<!-- Chrisalunlloyd2&#45;sudo&#45;&gt;Nova -->
<g id="edge21" class="edge">
<title>Chrisalunlloyd2&#45;sudo&#45;&gt;Nova</title>
<path fill="none" stroke="#58a6ff" stroke-width="1.2" d="M478.24,-885.48C501.4,-867.92 532.76,-839.75 548,-806.77 589.72,-716.52 538.5,-679.33 566,-583.77 617.75,-403.97 672.1,-342.93 843,-266.77 1051.6,-173.81 1678.64,-104.12 1870,-228.77 1885.66,-238.97 1874.13,-254.25 1888,-266.77 1925.44,-300.61 1951.93,-278.47 1995,-304.77 2045.94,-335.9 2094.14,-386.94 2120.57,-417.46"/>
<polygon fill="#58a6ff" stroke="#58a6ff" stroke-width="1.2" points="2118.54,-419.39 2125.87,-423.64 2122.79,-415.75 2118.54,-419.39"/>
<text text-anchor="middle" x="1273" y="-179.57" font-family="Courier,monospace" font-size="9.00" fill="#8b949e"> Telemetry </text>
</g>
<!-- Chrisalunlloyd2&#45;sudo&#45;&gt;openrouter_manager -->
<g id="edge22" class="edge">
<title>Chrisalunlloyd2&#45;sudo&#45;&gt;openrouter_manager</title>
<path fill="none" stroke="#58a6ff" stroke-width="1.2" d="M454.76,-924.02C466.16,-965.86 499.2,-1065.22 566,-1113.77 706.66,-1216.01 780.79,-1148.72 950,-1188.77 1082.01,-1220.02 1110.25,-1248.14 1244,-1270.77 1366.89,-1291.57 1510.62,-1297.78 1603.83,-1299.46"/>
<polygon fill="#58a6ff" stroke="#58a6ff" stroke-width="1.2" points="1603.8,-1302.26 1611.85,-1299.6 1603.9,-1296.66 1603.8,-1302.26"/>
<text text-anchor="middle" x="997" y="-1211.57" font-family="Courier,monospace" font-size="9.00" fill="#8b949e"> Agent/BDI </text>
</g>
<!-- Chrisalunlloyd2&#45;sudo&#45;&gt;sims&#45;java&#45;neo&#45;fx -->
<g id="edge23" class="edge">
<title>Chrisalunlloyd2&#45;sudo&#45;&gt;sims&#45;java&#45;neo&#45;fx</title>
<path fill="none" stroke="#58a6ff" stroke-width="1.2" d="M476.33,-923.83C499.3,-939.95 533.89,-963.03 566,-979.77 677.61,-1037.97 717.26,-1033 843,-1038.77 952.7,-1043.82 1926.17,-1039.21 2071,-999.77 2169.05,-973.08 2192.18,-953.68 2272,-890.77 2281.39,-883.37 2281.06,-878.72 2290,-870.77 2301.33,-860.7 2314.64,-850.79 2326.78,-842.37"/>
<polygon fill="#58a6ff" stroke="#58a6ff" stroke-width="1.2" points="2328.37,-844.68 2333.4,-837.85 2325.21,-840.05 2328.37,-844.68"/>
<text text-anchor="middle" x="1419" y="-1040.57" font-family="Courier,monospace" font-size="9.00" fill="#8b949e"> Telemetry </text>
</g>
<!-- Chrisalunlloyd2&#45;sudo&#45;&gt;sims&#45;javafx&#45;neo -->
<g id="edge24" class="edge">
<title>Chrisalunlloyd2&#45;sudo&#45;&gt;sims&#45;javafx&#45;neo</title>
<path fill="none" stroke="#58a6ff" stroke-width="1.2" d="M478.51,-885.61C501.84,-868.12 533.29,-840 548,-806.77 581.68,-730.69 547.02,-513.79 566,-432.77 598.52,-293.93 551.9,-138.77 694.5,-138.77 694.5,-138.77 694.5,-138.77 1566,-138.77 1667.85,-138.77 1694.23,-141.3 1794,-161.77 1920.41,-187.72 1950.1,-203.66 2071,-248.77 2171.79,-286.39 2435.94,-368.81 2515,-441.77 2556.25,-479.84 2581.75,-542.02 2593.77,-577.56"/>
<polygon fill="#58a6ff" stroke="#58a6ff" stroke-width="1.2" points="2591.24,-578.85 2596.4,-585.57 2596.56,-577.1 2591.24,-578.85"/>
<text text-anchor="middle" x="1565" y="-141.57" font-family="Courier,monospace" font-size="9.00" fill="#8b949e"> Telemetry </text>
</g>
<!-- Chrisalunlloyd2&#45;sudo&#45;&gt;SimsMerged -->
<g id="edge25" class="edge">
<title>Chrisalunlloyd2&#45;sudo&#45;&gt;SimsMerged</title>
<path fill="none" stroke="#58a6ff" stroke-width="1.2" d="M471.38,-923.9C503.44,-952.53 560.77,-1003.54 566,-1006.77 597.02,-1025.98 607.18,-1026.88 642,-1037.77 903.6,-1119.6 972.81,-1131.89 1244,-1171.77 1271.5,-1175.82 2214.2,-1244.77 2242,-1244.77 2242,-1244.77 2242,-1244.77 2604,-1244.77 2712.97,-1244.77 2808.21,-1136.12 2846.76,-1085.35"/>
<polygon fill="#58a6ff" stroke="#58a6ff" stroke-width="1.2" points="2849.05,-1086.96 2851.61,-1078.88 2844.57,-1083.6 2849.05,-1086.96"/>
<text text-anchor="middle" x="1703" y="-1215.57" font-family="Courier,monospace" font-size="9.00" fill="#8b949e"> Agent/BDI </text>
</g>
<!-- H2OIDE&#45;&gt;H2OMatrixCE -->
<g id="edge26" class="edge">
<title>H2OIDE&#45;&gt;H2OMatrixCE</title>
<path fill="none" stroke="#58a6ff" stroke-width="1.2" d="M711.95,-708.67C726.08,-691.32 747.67,-665.09 767,-642.77 803.03,-601.19 846.17,-554.03 872.18,-525.88"/>
<polygon fill="#58a6ff" stroke="#58a6ff" stroke-width="1.2" points="874.4,-527.61 877.78,-519.83 870.29,-523.8 874.4,-527.61"/>
<text text-anchor="middle" x="796" y="-645.57" font-family="Courier,monospace" font-size="9.00" fill="#8b949e"> Telemetry </text>
</g>
<!-- H2OIDE&#45;&gt;MasterLogs -->
<g id="edge27" class="edge">
<title>H2OIDE&#45;&gt;MasterLogs</title>
<path fill="none" stroke="#58a6ff" stroke-width="1.2" d="M749.27,-726.09C830.84,-723.48 987.12,-718.48 1073.27,-715.72"/>
<polygon fill="#58a6ff" stroke="#58a6ff" stroke-width="1.2" points="1073.47,-718.51 1081.38,-715.46 1073.3,-712.92 1073.47,-718.51"/>
<text text-anchor="middle" x="896.5" y="-725.57" font-family="Courier,monospace" font-size="9.00" fill="#8b949e"> Telemetry </text>
</g>
<!-- H2OIDE&#45;&gt;MATRIX_GEN8_HOME -->
<g id="edge28" class="edge">
<title>H2OIDE&#45;&gt;MATRIX_GEN8_HOME</title>
<path fill="none" stroke="#58a6ff" stroke-width="1.2" d="M716.16,-746.9C758.17,-786.34 861.58,-875.92 968,-910.77 1029.45,-930.9 1199.13,-935.46 1311.67,-936.16"/>
<polygon fill="#58a6ff" stroke="#58a6ff" stroke-width="1.2" points="1311.66,-938.96 1319.68,-936.21 1311.69,-933.36 1311.66,-938.96"/>
<text text-anchor="middle" x="997" y="-924.57" font-family="Courier,monospace" font-size="9.00" fill="#8b949e"> Telemetry </text>
</g>
<!-- H2OIDE&#45;&gt;mind&#45;palace -->
<g id="edge29" class="edge">
<title>H2OIDE&#45;&gt;mind&#45;palace</title>
<path fill="none" stroke="#58a6ff" stroke-width="1.2" d="M749.21,-717.39C817.06,-704.6 938.76,-683.61 1044,-675.77 1264.01,-659.4 1524.95,-700.39 1641.05,-721.78"/>
<polygon fill="#58a6ff" stroke="#58a6ff" stroke-width="1.2" points="1640.78,-724.57 1649.16,-723.28 1641.8,-719.07 1640.78,-724.57"/>
<text text-anchor="middle" x="1135" y="-678.57" font-family="Courier,monospace" font-size="9.00" fill="#8b949e"> Telemetry </text>
</g>
<!-- H2OIDE&#45;&gt;mindpalace -->
<g id="edge30" class="edge">
<title>H2OIDE&#45;&gt;mindpalace</title>
<path fill="none" stroke="#58a6ff" stroke-width="1.2" d="M732.84,-708.75C739.09,-703.98 744.88,-698.32 749,-691.77 776.79,-647.62 748.33,-624.49 767,-575.77 804.41,-478.16 790.96,-378.77 895.5,-378.77 895.5,-378.77 895.5,-378.77 1274,-378.77 1393.01,-378.77 1738.33,-461.36 1879.39,-496.38"/>
<polygon fill="#58a6ff" stroke="#58a6ff" stroke-width="1.2" points="1879.13,-499.2 1887.57,-498.41 1880.48,-493.77 1879.13,-499.2"/>
<text text-anchor="middle" x="1273" y="-381.57" font-family="Courier,monospace" font-size="9.00" fill="#8b949e"> Telemetry </text>
</g>
<!-- H2OIDE&#45;&gt;Nova -->
<g id="edge31" class="edge">
<title>H2OIDE&#45;&gt;Nova</title>
<path fill="none" stroke="#58a6ff" stroke-width="1.2" d="M733.85,-708.62C739.85,-703.91 745.29,-698.31 749,-691.77 780.54,-636.2 730.59,-457.29 767,-404.77 843.86,-293.93 914.73,-319.28 1044,-280.77 1163.05,-245.32 1196.17,-246.58 1320,-236.77 1419.06,-228.93 1855.97,-227.99 1870,-238.77 1894.11,-257.3 1869.14,-280.93 1888,-304.77 1937.46,-367.3 2023.36,-405.41 2081.3,-425.3"/>
<polygon fill="#58a6ff" stroke="#58a6ff" stroke-width="1.2" points="2080.46,-427.97 2088.93,-427.87 2082.24,-422.67 2080.46,-427.97"/>
<text text-anchor="middle" x="1419" y="-239.57" font-family="Courier,monospace" font-size="9.00" fill="#8b949e"> Telemetry </text>
</g>
<!-- H2OIDE&#45;&gt;sims&#45;java&#45;neo&#45;fx -->
<g id="edge32" class="edge">
<title>H2OIDE&#45;&gt;sims&#45;java&#45;neo&#45;fx</title>
<path fill="none" stroke="#58a6ff" stroke-width="1.2" d="M746.52,-746.84C813.23,-771.29 935.54,-812.67 1044,-830.77 1549.04,-915.08 1684.39,-862.23 2196,-841.77 2229.8,-840.42 2238.46,-842.11 2272,-837.77 2275.17,-837.36 2278.39,-836.91 2281.64,-836.41"/>
<polygon fill="#58a6ff" stroke="#58a6ff" stroke-width="1.2" points="2282.3,-839.14 2289.75,-835.09 2281.41,-833.61 2282.3,-839.14"/>
<text text-anchor="middle" x="1565" y="-879.57" font-family="Courier,monospace" font-size="9.00" fill="#8b949e"> Telemetry </text>
</g>
<!-- H2OIDE&#45;&gt;sims&#45;javafx&#45;neo -->
<g id="edge33" class="edge">
<title>H2OIDE&#45;&gt;sims&#45;javafx&#45;neo</title>
<path fill="none" stroke="#58a6ff" stroke-width="1.2" d="M717.11,-746.83C728.35,-758.43 741.47,-774.18 749,-790.77 770.18,-837.49 730.66,-868.57 767,-904.77 831.03,-968.58 878.51,-923.04 968,-935.77 1239.84,-974.46 1929.55,-1139.11 2196,-1072.77 2370,-1029.45 2433.22,-985.35 2515,-825.77 2549.54,-758.38 2579.3,-673.94 2593.36,-631.6"/>
<polygon fill="#58a6ff" stroke="#58a6ff" stroke-width="1.2" points="2596.04,-632.42 2595.88,-623.95 2590.72,-630.67 2596.04,-632.42"/>
<text text-anchor="middle" x="1703" y="-1074.57" font-family="Courier,monospace" font-size="9.00" fill="#8b949e"> Telemetry </text>
</g>
<!-- H2OIDE&#45;&gt;SimsMerged -->
<g id="edge34" class="edge">
<title>H2OIDE&#45;&gt;SimsMerged</title>
<path fill="none" stroke="#58a6ff" stroke-width="1.2" d="M717.57,-747.01C728.82,-758.55 741.8,-774.19 749,-790.77 761.84,-820.36 745.01,-911.18 767,-934.77 790.47,-959.96 809.17,-943.36 843,-949.77 880.45,-956.88 1489.81,-1047.12 1518,-1072.77 1539.85,-1092.66 1513.91,-1117.14 1536,-1136.77 1561.56,-1159.49 1578.07,-1144.54 1612,-1148.77 1891.02,-1183.61 1960.82,-1206.77 2242,-1206.77 2242,-1206.77 2242,-1206.77 2604,-1206.77 2702.34,-1206.77 2797.82,-1126.56 2840.99,-1084.64"/>
<polygon fill="#58a6ff" stroke="#58a6ff" stroke-width="1.2" points="2843,-1086.6 2846.74,-1078.99 2839.07,-1082.61 2843,-1086.6"/>
<text text-anchor="middle" x="1841" y="-1185.57" font-family="Courier,monospace" font-size="9.00" fill="#8b949e"> Telemetry </text>
</g>
<!-- H2OMatrixCE&#45;&gt;MasterLogs -->
<g id="edge35" class="edge">
<title>H2OMatrixCE&#45;&gt;MasterLogs</title>
<path fill="none" stroke="#58a6ff" stroke-width="1.2" d="M908.25,-519.91C929.57,-556.24 980.69,-635.62 1044,-680.77 1052.94,-687.15 1063.25,-692.43 1073.63,-696.76"/>
<polygon fill="#58a6ff" stroke="#58a6ff" stroke-width="1.2" points="1072.72,-699.41 1081.18,-699.75 1074.77,-694.2 1072.72,-699.41"/>
<text text-anchor="middle" x="997" y="-667.57" font-family="Courier,monospace" font-size="9.00" fill="#8b949e"> Telemetry </text>
</g>
<!-- H2OMatrixCE&#45;&gt;MATRIX_GEN8_HOME -->
<g id="edge36" class="edge">
<title>H2OMatrixCE&#45;&gt;MATRIX_GEN8_HOME</title>
<path fill="none" stroke="#58a6ff" stroke-width="1.2" d="M899.84,-519.81C905.52,-559.65 923.02,-653.4 968,-716.77 1049.07,-831 1206.49,-888.21 1311.95,-914.92"/>
<polygon fill="#58a6ff" stroke="#58a6ff" stroke-width="1.2" points="1311.33,-917.65 1319.77,-916.87 1312.69,-912.21 1311.33,-917.65"/>
<text text-anchor="middle" x="1135" y="-889.57" font-family="Courier,monospace" font-size="9.00" fill="#8b949e"> Telemetry </text>
</g>
<!-- H2OMatrixCE&#45;&gt;mind&#45;palace -->
<g id="edge37" class="edge">
<title>H2OMatrixCE&#45;&gt;mind&#45;palace</title>
<path fill="none" stroke="#58a6ff" stroke-width="1.2" d="M950.17,-514.78C1066.7,-545.96 1355,-624.19 1594,-697.77 1609.44,-702.53 1626.03,-707.92 1641.47,-713.05"/>
<polygon fill="#58a6ff" stroke="#58a6ff" stroke-width="1.2" points="1640.95,-715.83 1649.42,-715.71 1642.72,-710.52 1640.95,-715.83"/>
<text text-anchor="middle" x="1273" y="-613.57" font-family="Courier,monospace" font-size="9.00" fill="#8b949e"> Telemetry </text>
</g>
<!-- H2OMatrixCE&#45;&gt;mindpalace -->
<g id="edge38" class="edge">
<title>H2OMatrixCE&#45;&gt;mindpalace</title>
<path fill="none" stroke="#58a6ff" stroke-width="1.2" d="M950.3,-501.33C1126.26,-503.19 1692.21,-509.16 1879.6,-511.13"/>
<polygon fill="#58a6ff" stroke="#58a6ff" stroke-width="1.2" points="1879.68,-513.93 1887.7,-511.22 1879.73,-508.33 1879.68,-513.93"/>
<text text-anchor="middle" x="1419" y="-509.57" font-family="Courier,monospace" font-size="9.00" fill="#8b949e"> Telemetry </text>
</g>
<!-- H2OMatrixCE&#45;&gt;Nova -->
<g id="edge39" class="edge">
<title>H2OMatrixCE&#45;&gt;Nova</title>
<path fill="none" stroke="#58a6ff" stroke-width="1.2" d="M950.03,-497.69C1109.71,-488.42 1603.41,-460.55 2013,-445.77 2035.15,-444.98 2059.45,-444.35 2080.9,-443.87"/>
<polygon fill="#58a6ff" stroke="#58a6ff" stroke-width="1.2" points="2081.04,-446.67 2088.97,-443.7 2080.92,-441.07 2081.04,-446.67"/>
<text text-anchor="middle" x="1565" y="-468.57" font-family="Courier,monospace" font-size="9.00" fill="#8b949e"> Telemetry </text>
</g>
<!-- H2OMatrixCE&#45;&gt;sims&#45;java&#45;neo&#45;fx -->
<g id="edge40" class="edge">
<title>H2OMatrixCE&#45;&gt;sims&#45;java&#45;neo&#45;fx</title>
<path fill="none" stroke="#58a6ff" stroke-width="1.2" d="M901.07,-519.86C908.39,-554.7 927.89,-629.57 968,-678.77 987.47,-702.66 1003.73,-695.47 1026,-716.77 1035.89,-726.24 1032.76,-733.96 1044,-741.77 1112.88,-789.65 1146.36,-765.43 1226,-791.77 1234.15,-794.47 1235.68,-796.65 1244,-798.77 1370.8,-831.17 1405.4,-828.31 1536,-836.77 1679.17,-846.05 2102.45,-829.91 2281.76,-822.35"/>
<polygon fill="#58a6ff" stroke="#58a6ff" stroke-width="1.2" points="2281.98,-825.15 2289.85,-822.01 2281.74,-819.55 2281.98,-825.15"/>
<text text-anchor="middle" x="1703" y="-841.57" font-family="Courier,monospace" font-size="9.00" fill="#8b949e"> Telemetry </text>
</g>
<!-- H2OMatrixCE&#45;&gt;sims&#45;javafx&#45;neo -->
<g id="edge41" class="edge">
<title>H2OMatrixCE&#45;&gt;sims&#45;javafx&#45;neo</title>
<path fill="none" stroke="#58a6ff" stroke-width="1.2" d="M950.21,-491.09C978.02,-486.35 1012.75,-480.97 1044,-477.77 1554.1,-425.58 1684.4,-380.2 2196,-414.77 2341.01,-424.58 2404.29,-392.61 2515,-486.77 2546.01,-513.15 2572.24,-552.64 2587.55,-578.55"/>
<polygon fill="#58a6ff" stroke="#58a6ff" stroke-width="1.2" points="2585.13,-579.97 2591.57,-585.48 2589.97,-577.15 2585.13,-579.97"/>
<text text-anchor="middle" x="1841" y="-405.57" font-family="Courier,monospace" font-size="9.00" fill="#8b949e"> Telemetry </text>
</g>
<!-- H2OMatrixCE&#45;&gt;SimsMerged -->
<g id="edge42" class="edge">
<title>H2OMatrixCE&#45;&gt;SimsMerged</title>
<path fill="none" stroke="#58a6ff" stroke-width="1.2" d="M934.3,-481.65C996.38,-450.28 1126.65,-388.22 1244,-356.77 1416.53,-310.54 1862.39,-252.77 2041,-252.77 2041,-252.77 2041,-252.77 2604,-252.77 2771.67,-252.77 2847.57,-891.39 2862.29,-1032.43"/>
<polygon fill="#58a6ff" stroke="#58a6ff" stroke-width="1.2" points="2859.53,-1032.95 2863.13,-1040.62 2865.1,-1032.38 2859.53,-1032.95"/>
<text text-anchor="middle" x="1941.5" y="-262.57" font-family="Courier,monospace" font-size="9.00" fill="#8b949e"> Telemetry </text>
</g>
<!-- Kernel_Pedagogy -->
<g id="node5" class="node">
<title>Kernel_Pedagogy</title>
<path fill="#161b22" stroke="#58a6ff" d="M186,-979.77C186,-979.77 70,-979.77 70,-979.77 64,-979.77 58,-973.77 58,-967.77 58,-967.77 58,-953.77 58,-953.77 58,-947.77 64,-941.77 70,-941.77 70,-941.77 186,-941.77 186,-941.77 192,-941.77 198,-947.77 198,-953.77 198,-953.77 198,-967.77 198,-967.77 198,-973.77 192,-979.77 186,-979.77"/>
<text text-anchor="middle" x="128" y="-964.57" font-family="Courier,monospace" font-size="14.00" fill="#c9d1d9">Kernel_Pedagogy</text>
<text text-anchor="middle" x="128" y="-949.57" font-family="Courier,monospace" font-size="14.00" fill="#c9d1d9">[Orchestration]</text>
</g>
<!-- MasterLogs&#45;&gt;MATRIX_GEN8_HOME -->
<g id="edge43" class="edge">
<title>MasterLogs&#45;&gt;MATRIX_GEN8_HOME</title>
<path fill="none" stroke="#58a6ff" stroke-width="1.2" d="M1160.53,-733.09C1211.91,-773.53 1330.72,-867.07 1387.16,-911.5"/>
<polygon fill="#58a6ff" stroke="#58a6ff" stroke-width="1.2" points="1385.71,-913.92 1393.73,-916.66 1389.17,-909.52 1385.71,-913.92"/>
<text text-anchor="middle" x="1273" y="-840.57" font-family="Courier,monospace" font-size="9.00" fill="#8b949e"> Telemetry </text>
</g>
<!-- MasterLogs&#45;&gt;mind&#45;palace -->
<g id="edge44" class="edge">
<title>MasterLogs&#45;&gt;mind&#45;palace</title>
<path fill="none" stroke="#58a6ff" stroke-width="1.2" d="M1188.74,-715.64C1293.96,-719.36 1529.41,-727.68 1641.04,-731.62"/>
<polygon fill="#58a6ff" stroke="#58a6ff" stroke-width="1.2" points="1641.09,-734.42 1649.19,-731.91 1641.29,-728.83 1641.09,-734.42"/>
<text text-anchor="middle" x="1419" y="-729.57" font-family="Courier,monospace" font-size="9.00" fill="#8b949e"> Telemetry </text>
</g>
<!-- MasterLogs&#45;&gt;mindpalace -->
<g id="edge45" class="edge">
<title>MasterLogs&#45;&gt;mindpalace</title>
<path fill="none" stroke="#58a6ff" stroke-width="1.2" d="M1188.58,-695.18C1200.92,-690.63 1213.97,-685.66 1226,-680.77 1268.39,-663.55 1276.78,-653.81 1320,-638.77 1413.56,-606.23 1438.75,-602.64 1536,-583.77 1683.04,-555.25 1724.86,-575.81 1870,-538.77 1875.76,-537.3 1881.7,-535.51 1887.56,-533.54"/>
<polygon fill="#58a6ff" stroke="#58a6ff" stroke-width="1.2" points="1888.86,-536.06 1895.49,-530.78 1887.02,-530.77 1888.86,-536.06"/>
<text text-anchor="middle" x="1565" y="-586.57" font-family="Courier,monospace" font-size="9.00" fill="#8b949e"> Telemetry </text>
</g>
<!-- MasterLogs&#45;&gt;Nova -->
<g id="edge46" class="edge">
<title>MasterLogs&#45;&gt;Nova</title>
<path fill="none" stroke="#58a6ff" stroke-width="1.2" d="M1188.76,-708.48C1202.2,-704.93 1215.73,-699.15 1226,-689.77 1243.14,-674.14 1230.23,-659.45 1244,-640.77 1269.22,-606.58 1281.07,-599.8 1320,-582.77 1458.02,-522.42 1915.05,-467.62 2080.79,-449.27"/>
<polygon fill="#58a6ff" stroke="#58a6ff" stroke-width="1.2" points="2081.29,-452.04 2088.93,-448.38 2080.67,-446.47 2081.29,-452.04"/>
<text text-anchor="middle" x="1703" y="-514.57" font-family="Courier,monospace" font-size="9.00" fill="#8b949e"> Telemetry </text>
</g>
<!-- MasterLogs&#45;&gt;sims&#45;java&#45;neo&#45;fx -->
<g id="edge47" class="edge">
<title>MasterLogs&#45;&gt;sims&#45;java&#45;neo&#45;fx</title>
<path fill="none" stroke="#58a6ff" stroke-width="1.2" d="M1188.66,-723.06C1206.23,-726.03 1225.93,-729.2 1244,-731.77 1277.67,-736.57 1286.15,-737.47 1320,-740.77 1550.7,-763.3 1608.21,-780.77 1840,-780.77 1840,-780.77 1840,-780.77 2143.5,-780.77 2190.02,-780.77 2241.27,-789.13 2282.6,-798"/>
<polygon fill="#58a6ff" stroke="#58a6ff" stroke-width="1.2" points="2282.05,-800.74 2290.46,-799.72 2283.24,-795.27 2282.05,-800.74"/>
<text text-anchor="middle" x="1841" y="-783.57" font-family="Courier,monospace" font-size="9.00" fill="#8b949e"> Telemetry </text>
</g>
<!-- MasterLogs&#45;&gt;sims&#45;javafx&#45;neo -->
<g id="edge48" class="edge">
<title>MasterLogs&#45;&gt;sims&#45;javafx&#45;neo</title>
<path fill="none" stroke="#58a6ff" stroke-width="1.2" d="M1188.65,-701.84C1294.49,-678.06 1529.89,-626.22 1612,-616.77 1801.49,-594.98 1850.26,-604.77 2041,-604.77 2041,-604.77 2041,-604.77 2365.5,-604.77 2418.66,-604.77 2478.55,-604.77 2524.75,-604.77"/>
<polygon fill="#58a6ff" stroke="#58a6ff" stroke-width="1.2" points="2524.92,-607.57 2532.92,-604.77 2524.92,-601.97 2524.92,-607.57"/>
<text text-anchor="middle" x="1941.5" y="-606.57" font-family="Courier,monospace" font-size="9.00" fill="#8b949e"> Telemetry </text>
</g>
<!-- MasterLogs&#45;&gt;SimsMerged -->
<g id="edge49" class="edge">
<title>MasterLogs&#45;&gt;SimsMerged</title>
<path fill="none" stroke="#58a6ff" stroke-width="1.2" d="M1165.86,-732.94C1185.56,-747.02 1210.5,-767.82 1226,-791.77 1241.12,-815.15 1232.05,-826.63 1244,-851.77 1269.83,-906.1 1273.28,-925.88 1320,-963.77 1393.84,-1023.67 1455.26,-973.33 1518,-1044.77 1538.63,-1068.27 1511.8,-1092.98 1536,-1112.77 1588.38,-1155.62 1772.33,-1130.77 1840,-1130.77 1840,-1130.77 1840,-1130.77 2604,-1130.77 2679.49,-1130.77 2763.08,-1102.78 2814.84,-1081.95"/>
<polygon fill="#58a6ff" stroke="#58a6ff" stroke-width="1.2" points="2816.2,-1084.42 2822.55,-1078.8 2814.09,-1079.23 2816.2,-1084.42"/>
<text text-anchor="middle" x="2042" y="-1133.57" font-family="Courier,monospace" font-size="9.00" fill="#8b949e"> Telemetry </text>
</g>
<!-- MatrixCE_GUI&#45;&gt;MATRIX_GEN8_HOME -->
<g id="edge50" class="edge">
<title>MatrixCE_GUI&#45;&gt;MATRIX_GEN8_HOME</title>
<path fill="none" stroke="#58a6ff" stroke-width="1.2" d="M1156.57,-1317.65C1191.2,-1284.4 1261.36,-1212.41 1302,-1138.77 1314.63,-1115.89 1308.64,-1106.32 1320,-1082.77 1341.84,-1037.51 1375.87,-989.96 1397.54,-961.6"/>
<polygon fill="#58a6ff" stroke="#58a6ff" stroke-width="1.2" points="1399.84,-963.21 1402.5,-955.16 1395.4,-959.79 1399.84,-963.21"/>
<text text-anchor="middle" x="1273" y="-1222.57" font-family="Courier,monospace" font-size="9.00" fill="#8b949e"> Agent/BDI </text>
</g>
<!-- MatrixCE_GUI&#45;&gt;openrouter_manager -->
<g id="edge51" class="edge">
<title>MatrixCE_GUI&#45;&gt;openrouter_manager</title>
<path fill="none" stroke="#58a6ff" stroke-width="1.2" d="M1226.31,-1330.87C1329.27,-1324.14 1497.05,-1313.17 1603.36,-1306.22"/>
<polygon fill="#58a6ff" stroke="#58a6ff" stroke-width="1.2" points="1603.74,-1309 1611.54,-1305.69 1603.38,-1303.42 1603.74,-1309"/>
<text text-anchor="middle" x="1419" y="-1326.57" font-family="Courier,monospace" font-size="9.00" fill="#8b949e"> Agent/BDI </text>
</g>
<!-- MatrixCE_GUI&#45;&gt;SimsMerged -->
<g id="edge52" class="edge">
<title>MatrixCE_GUI&#45;&gt;SimsMerged</title>
<path fill="none" stroke="#58a6ff" stroke-width="1.2" d="M1226.07,-1355.16C1281.23,-1364.86 1353.41,-1374.77 1418,-1374.77 1418,-1374.77 1418,-1374.77 2604,-1374.77 2753.04,-1374.77 2833.12,-1163.1 2857.14,-1086.79"/>
<polygon fill="#58a6ff" stroke="#58a6ff" stroke-width="1.2" points="2859.86,-1087.48 2859.55,-1079.01 2854.51,-1085.82 2859.86,-1087.48"/>
<text text-anchor="middle" x="2042" y="-1377.57" font-family="Courier,monospace" font-size="9.00" fill="#8b949e"> Agent/BDI </text>
</g>
<!-- MATRIX_GEN8_HOME&#45;&gt;mind&#45;palace -->
<g id="edge53" class="edge">
<title>MATRIX_GEN8_HOME&#45;&gt;mind&#45;palace</title>
<path fill="none" stroke="#58a6ff" stroke-width="1.2" d="M1446.47,-916.59C1477.93,-893.78 1527.31,-858.01 1536,-851.77 1581.6,-819.06 1634.46,-781.56 1668.05,-757.77"/>
<polygon fill="#58a6ff" stroke="#58a6ff" stroke-width="1.2" points="1670.01,-759.82 1674.92,-752.91 1666.77,-755.25 1670.01,-759.82"/>
<text text-anchor="middle" x="1565" y="-854.57" font-family="Courier,monospace" font-size="9.00" fill="#8b949e"> Telemetry </text>
</g>
<!-- MATRIX_GEN8_HOME&#45;&gt;mindpalace -->
<g id="edge54" class="edge">
<title>MATRIX_GEN8_HOME&#45;&gt;mindpalace</title>
<path fill="none" stroke="#58a6ff" stroke-width="1.2" d="M1431.25,-916.73C1451.08,-882.51 1492.56,-807.92 1518,-740.77 1529.08,-711.54 1514.53,-695.5 1536,-672.77 1643.24,-559.28 1738.03,-647.24 1870,-563.77 1879.83,-557.56 1879,-552.15 1888,-544.77 1891.93,-541.55 1896.2,-538.39 1900.55,-535.38"/>
<polygon fill="#58a6ff" stroke="#58a6ff" stroke-width="1.2" points="1902.32,-537.57 1907.41,-530.8 1899.21,-532.92 1902.32,-537.57"/>
<text text-anchor="middle" x="1703" y="-622.57" font-family="Courier,monospace" font-size="9.00" fill="#8b949e"> Telemetry </text>
</g>
<!-- MATRIX_GEN8_HOME&#45;&gt;Nova -->
<g id="edge55" class="edge">
<title>MATRIX_GEN8_HOME&#45;&gt;Nova</title>
<path fill="none" stroke="#58a6ff" stroke-width="1.2" d="M1431.24,-916.65C1457.58,-873.35 1527.48,-766.88 1612,-705.77 1682.5,-654.81 1715.18,-670.58 1794,-633.77 1837.07,-613.66 1844.87,-602.74 1888,-582.77 1967.17,-546.12 1997.66,-559.03 2071,-511.77 2089.48,-499.87 2107.15,-482.56 2120.18,-468.25"/>
<polygon fill="#58a6ff" stroke="#58a6ff" stroke-width="1.2" points="2122.59,-469.76 2125.82,-461.92 2118.41,-466.03 2122.59,-469.76"/>
<text text-anchor="middle" x="1841" y="-626.57" font-family="Courier,monospace" font-size="9.00" fill="#8b949e"> Telemetry </text>
</g>
<!-- MATRIX_GEN8_HOME&#45;&gt;openrouter_manager -->
<g id="edge56" class="edge">
<title>MATRIX_GEN8_HOME&#45;&gt;openrouter_manager</title>
<path fill="none" stroke="#58a6ff" stroke-width="1.2" d="M1433.1,-955.21C1451.99,-983.28 1487.91,-1036.85 1518,-1082.77 1560.29,-1147.33 1560.11,-1171.65 1612,-1228.77 1627.95,-1246.33 1648.55,-1262.93 1666.02,-1275.66"/>
<polygon fill="#58a6ff" stroke="#58a6ff" stroke-width="1.2" points="1664.66,-1278.13 1672.8,-1280.51 1667.93,-1273.57 1664.66,-1278.13"/>
<text text-anchor="middle" x="1565" y="-1208.57" font-family="Courier,monospace" font-size="9.00" fill="#8b949e"> Agent/BDI </text>
</g>
<!-- MATRIX_GEN8_HOME&#45;&gt;sims&#45;java&#45;neo&#45;fx -->
<g id="edge57" class="edge">
<title>MATRIX_GEN8_HOME&#45;&gt;sims&#45;java&#45;neo&#45;fx</title>
<path fill="none" stroke="#58a6ff" stroke-width="1.2" d="M1518.14,-933.67C1711.19,-928.65 2133.58,-913.06 2272,-870.77 2292.64,-864.47 2313.72,-852.91 2330.43,-842.29"/>
<polygon fill="#58a6ff" stroke="#58a6ff" stroke-width="1.2" points="2332.13,-844.52 2337.31,-837.81 2329.08,-839.83 2332.13,-844.52"/>
<text text-anchor="middle" x="1941.5" y="-919.57" font-family="Courier,monospace" font-size="9.00" fill="#8b949e"> Telemetry </text>
</g>
<!-- MATRIX_GEN8_HOME&#45;&gt;sims&#45;javafx&#45;neo -->
<g id="edge58" class="edge">
<title>MATRIX_GEN8_HOME&#45;&gt;sims&#45;javafx&#45;neo</title>
<path fill="none" stroke="#58a6ff" stroke-width="1.2" d="M1518.04,-947.18C1727.05,-970.84 2203.07,-1020.92 2272,-994.77 2446.38,-928.62 2556.94,-708.01 2590.87,-631.32"/>
<polygon fill="#58a6ff" stroke="#58a6ff" stroke-width="1.2" points="2593.46,-632.39 2594.09,-623.94 2588.32,-630.15 2593.46,-632.39"/>
<text text-anchor="middle" x="2042" y="-1000.57" font-family="Courier,monospace" font-size="9.00" fill="#8b949e"> Telemetry </text>
</g>
<!-- MATRIX_GEN8_HOME&#45;&gt;SimsMerged -->
<g id="edge59" class="edge">
<title>MATRIX_GEN8_HOME&#45;&gt;SimsMerged</title>
<path fill="none" stroke="#58a6ff" stroke-width="1.2" d="M1485.2,-954.85C1562.43,-976.52 1695.35,-1010.92 1812,-1026.77 2155.72,-1073.48 2568.07,-1069.09 2758.73,-1063.69"/>
<polygon fill="#58a6ff" stroke="#58a6ff" stroke-width="1.2" points="2758.89,-1066.48 2766.81,-1063.45 2758.73,-1060.88 2758.89,-1066.48"/>
<text text-anchor="middle" x="2142.5" y="-1061.57" font-family="Courier,monospace" font-size="9.00" fill="#8b949e"> Agent/BDI </text>
</g>
<!-- mind&#45;palace&#45;&gt;mindpalace -->
<g id="edge60" class="edge">
<title>mind&#45;palace&#45;&gt;mindpalace</title>
<path fill="none" stroke="#58a6ff" stroke-width="1.2" d="M1733.56,-714.54C1754.88,-701.1 1784.61,-683.22 1812,-669.77 1836.89,-657.56 1851.43,-667.37 1870,-646.77 1889.79,-624.83 1875,-609.31 1888,-582.77 1895.92,-566.6 1907.64,-550.31 1917.99,-537.42"/>
<polygon fill="#58a6ff" stroke="#58a6ff" stroke-width="1.2" points="1920.34,-538.97 1923.25,-531.01 1916.01,-535.42 1920.34,-538.97"/>
<text text-anchor="middle" x="1841" y="-672.57" font-family="Courier,monospace" font-size="9.00" fill="#8b949e"> Telemetry </text>
</g>
<!-- mind&#45;palace&#45;&gt;Nova -->
<g id="edge61" class="edge">
<title>mind&#45;palace&#45;&gt;Nova</title>
<path fill="none" stroke="#58a6ff" stroke-width="1.2" d="M1756.63,-718.71C1789.61,-708.76 1832.77,-694.83 1870,-679.77 1963.82,-641.84 2001.15,-646.01 2071,-572.77 2099.99,-542.38 2120.72,-497.73 2131.91,-469.47"/>
<polygon fill="#58a6ff" stroke="#58a6ff" stroke-width="1.2" points="2134.54,-470.43 2134.81,-461.96 2129.32,-468.41 2134.54,-470.43"/>
<text text-anchor="middle" x="1941.5" y="-674.57" font-family="Courier,monospace" font-size="9.00" fill="#8b949e"> Telemetry </text>
</g>
<!-- mind&#45;palace&#45;&gt;sims&#45;java&#45;neo&#45;fx -->
<g id="edge62" class="edge">
<title>mind&#45;palace&#45;&gt;sims&#45;java&#45;neo&#45;fx</title>
<path fill="none" stroke="#58a6ff" stroke-width="1.2" d="M1756.84,-733.79C1878.73,-734.31 2176.45,-738.53 2272,-766.77 2292.7,-772.89 2313.78,-784.44 2330.48,-795.1"/>
<polygon fill="#58a6ff" stroke="#58a6ff" stroke-width="1.2" points="2329.12,-797.56 2337.35,-799.59 2332.19,-792.87 2329.12,-797.56"/>
<text text-anchor="middle" x="2042" y="-744.57" font-family="Courier,monospace" font-size="9.00" fill="#8b949e"> Telemetry </text>
</g>
<!-- mind&#45;palace&#45;&gt;sims&#45;javafx&#45;neo -->
<g id="edge63" class="edge">
<title>mind&#45;palace&#45;&gt;sims&#45;javafx&#45;neo</title>
<path fill="none" stroke="#58a6ff" stroke-width="1.2" d="M1756.61,-727.9C1815.33,-720.69 1912.9,-706.79 1995,-685.77 2037.89,-674.8 2045.68,-661.95 2089,-652.77 2274.82,-613.43 2326.42,-641.44 2515,-618.77 2518.16,-618.4 2521.37,-617.99 2524.62,-617.55"/>
<polygon fill="#58a6ff" stroke="#58a6ff" stroke-width="1.2" points="2525.2,-620.3 2532.74,-616.43 2524.43,-614.75 2525.2,-620.3"/>
<text text-anchor="middle" x="2142.5" y="-655.57" font-family="Courier,monospace" font-size="9.00" fill="#8b949e"> Telemetry </text>
</g>
<!-- mind&#45;palace&#45;&gt;SimsMerged -->
<g id="edge64" class="edge">
<title>mind&#45;palace&#45;&gt;SimsMerged</title>
<path fill="none" stroke="#58a6ff" stroke-width="1.2" d="M1731.38,-753.03C1749.98,-766.72 1774.61,-786.11 1794,-805.77 1841.81,-854.27 1829,-892.77 1888,-926.77 1906.81,-937.62 2509.66,-1014.84 2758.84,-1046.39"/>
<polygon fill="#58a6ff" stroke="#58a6ff" stroke-width="1.2" points="2758.54,-1049.18 2766.83,-1047.4 2759.25,-1043.62 2758.54,-1049.18"/>
<text text-anchor="middle" x="2243" y="-985.57" font-family="Courier,monospace" font-size="9.00" fill="#8b949e"> Telemetry </text>
</g>
<!-- mindpalace&#45;&gt;Nova -->
<g id="edge65" class="edge">
<title>mindpalace&#45;&gt;Nova</title>
<path fill="none" stroke="#58a6ff" stroke-width="1.2" d="M1995.06,-502.92C2018.72,-498.07 2046.73,-491.11 2071,-481.77 2082.14,-477.49 2093.68,-471.73 2104.12,-465.95"/>
<polygon fill="#58a6ff" stroke="#58a6ff" stroke-width="1.2" points="2105.58,-468.35 2111.16,-461.97 2102.82,-463.47 2105.58,-468.35"/>
<text text-anchor="middle" x="2042" y="-500.57" font-family="Courier,monospace" font-size="9.00" fill="#8b949e"> Telemetry </text>
</g>
<!-- mindpalace&#45;&gt;sims&#45;java&#45;neo&#45;fx -->
<g id="edge66" class="edge">
<title>mindpalace&#45;&gt;sims&#45;java&#45;neo&#45;fx</title>
<path fill="none" stroke="#58a6ff" stroke-width="1.2" d="M1955.61,-530.82C1978.86,-563.22 2030.4,-629.2 2089,-666.77 2161.29,-713.12 2198.88,-683.75 2272,-728.77 2300.08,-746.06 2326.27,-773.44 2343.37,-793.46"/>
<polygon fill="#58a6ff" stroke="#58a6ff" stroke-width="1.2" points="2341.31,-795.36 2348.6,-799.68 2345.6,-791.76 2341.31,-795.36"/>
<text text-anchor="middle" x="2142.5" y="-702.57" font-family="Courier,monospace" font-size="9.00" fill="#8b949e"> Telemetry </text>
</g>
<!-- mindpalace&#45;&gt;sims&#45;javafx&#45;neo -->
<g id="edge67" class="edge">
<title>mindpalace&#45;&gt;sims&#45;javafx&#45;neo</title>
<path fill="none" stroke="#58a6ff" stroke-width="1.2" d="M1995.05,-518.62C2095.93,-531.87 2323.73,-562.19 2515,-590.77 2518.14,-591.24 2521.35,-591.73 2524.59,-592.23"/>
<polygon fill="#58a6ff" stroke="#58a6ff" stroke-width="1.2" points="2524.36,-595.02 2532.69,-593.48 2525.21,-589.49 2524.36,-595.02"/>
<text text-anchor="middle" x="2243" y="-557.57" font-family="Courier,monospace" font-size="9.00" fill="#8b949e"> Telemetry </text>
</g>
<!-- mindpalace&#45;&gt;SimsMerged -->
<g id="edge68" class="edge">
<title>mindpalace&#45;&gt;SimsMerged</title>
<path fill="none" stroke="#58a6ff" stroke-width="1.2" d="M1962.78,-492.59C1989.33,-468.94 2038.47,-429.99 2089,-414.77 2338.52,-339.66 2459.06,-318.01 2673,-466.77 2770.96,-534.9 2842.63,-925.7 2860.61,-1032.7"/>
<polygon fill="#58a6ff" stroke="#58a6ff" stroke-width="1.2" points="2857.87,-1033.32 2861.95,-1040.75 2863.39,-1032.4 2857.87,-1033.32"/>
<text text-anchor="middle" x="2364.5" y="-365.57" font-family="Courier,monospace" font-size="9.00" fill="#8b949e"> Telemetry </text>
</g>
<!-- Nova&#45;&gt;sims&#45;java&#45;neo&#45;fx -->
<g id="edge69" class="edge">
<title>Nova&#45;&gt;sims&#45;java&#45;neo&#45;fx</title>
<path fill="none" stroke="#58a6ff" stroke-width="1.2" d="M2154.71,-461.94C2191.12,-524.17 2306.12,-720.71 2348.03,-792.33"/>
<polygon fill="#58a6ff" stroke="#58a6ff" stroke-width="1.2" points="2345.85,-794.16 2352.31,-799.65 2350.69,-791.33 2345.85,-794.16"/>
<text text-anchor="middle" x="2243" y="-655.57" font-family="Courier,monospace" font-size="9.00" fill="#8b949e"> Telemetry </text>
</g>
<!-- Nova&#45;&gt;sims&#45;javafx&#45;neo -->
<g id="edge70" class="edge">
<title>Nova&#45;&gt;sims&#45;javafx&#45;neo</title>
<path fill="none" stroke="#58a6ff" stroke-width="1.2" d="M2196.29,-443.7C2271.41,-447.07 2411.49,-461.05 2515,-516.77 2543.04,-531.87 2567.78,-558.99 2583.64,-579.15"/>
<polygon fill="#58a6ff" stroke="#58a6ff" stroke-width="1.2" points="2581.57,-581.06 2588.67,-585.69 2586.01,-577.64 2581.57,-581.06"/>
<text text-anchor="middle" x="2364.5" y="-485.57" font-family="Courier,monospace" font-size="9.00" fill="#8b949e"> Telemetry </text>
</g>
<!-- Nova&#45;&gt;SimsMerged -->
<g id="edge71" class="edge">
<title>Nova&#45;&gt;SimsMerged</title>
<path fill="none" stroke="#58a6ff" stroke-width="1.2" d="M2196.23,-440.29C2202.22,-440.08 2208.24,-439.9 2214,-439.77 2239.77,-439.23 2246.23,-439.16 2272,-439.77 2460.28,-444.28 2544.36,-439.22 2673,-576.77 2802.64,-715.4 2848.86,-952.29 2861.23,-1032.39"/>
<polygon fill="#58a6ff" stroke="#58a6ff" stroke-width="1.2" points="2858.49,-1033.01 2862.45,-1040.5 2864.03,-1032.18 2858.49,-1033.01"/>
<text text-anchor="middle" x="2486" y="-466.57" font-family="Courier,monospace" font-size="9.00" fill="#8b949e"> Telemetry </text>
</g>
<!-- openrouter_manager&#45;&gt;SimsMerged -->
<g id="edge72" class="edge">
<title>openrouter_manager&#45;&gt;SimsMerged</title>
<path fill="none" stroke="#58a6ff" stroke-width="1.2" d="M1794.11,-1296.98C1838.23,-1295.83 1892.14,-1294.77 1940.5,-1294.77 1940.5,-1294.77 1940.5,-1294.77 2604,-1294.77 2670.4,-1294.77 2695.87,-1298.6 2749,-1258.77 2808.37,-1214.27 2842.62,-1129.75 2856.97,-1086.59"/>
<polygon fill="#58a6ff" stroke="#58a6ff" stroke-width="1.2" points="2859.7,-1087.25 2859.5,-1078.78 2854.37,-1085.53 2859.7,-1087.25"/>
<text text-anchor="middle" x="2243" y="-1297.57" font-family="Courier,monospace" font-size="9.00" fill="#8b949e"> Agent/BDI </text>
</g>
<!-- sims&#45;java&#45;neo&#45;fx&#45;&gt;sims&#45;javafx&#45;neo -->
<g id="edge73" class="edge">
<title>sims&#45;java&#45;neo&#45;fx&#45;&gt;sims&#45;javafx&#45;neo</title>
<path fill="none" stroke="#58a6ff" stroke-width="1.2" d="M2386.9,-799.41C2430,-760.41 2527.15,-672.51 2574.72,-629.46"/>
<polygon fill="#58a6ff" stroke="#58a6ff" stroke-width="1.2" points="2576.76,-631.39 2580.81,-623.95 2573,-627.24 2576.76,-631.39"/>
<text text-anchor="middle" x="2486" y="-733.57" font-family="Courier,monospace" font-size="9.00" fill="#8b949e"> Telemetry </text>
</g>
<!-- sims&#45;java&#45;neo&#45;fx&#45;&gt;SimsMerged -->
<g id="edge74" class="edge">
<title>sims&#45;java&#45;neo&#45;fx&#45;&gt;SimsMerged</title>
<path fill="none" stroke="#58a6ff" stroke-width="1.2" d="M2429.78,-837.86C2508.07,-862.48 2642.97,-909.42 2749,-969.77 2781.8,-988.45 2815.47,-1015.63 2838.02,-1035.23"/>
<polygon fill="#58a6ff" stroke="#58a6ff" stroke-width="1.2" points="2836.22,-1037.37 2844.08,-1040.55 2839.91,-1033.16 2836.22,-1037.37"/>
<text text-anchor="middle" x="2603" y="-932.57" font-family="Courier,monospace" font-size="9.00" fill="#8b949e"> Telemetry </text>
</g>
<!-- sims&#45;javafx&#45;neo&#45;&gt;SimsMerged -->
<g id="edge75" class="edge">
<title>sims&#45;javafx&#45;neo&#45;&gt;SimsMerged</title>
<path fill="none" stroke="#58a6ff" stroke-width="1.2" d="M2619.73,-623.99C2647.88,-658.93 2707.8,-735.85 2749,-806.77 2794.89,-885.77 2836.27,-986.08 2854.77,-1033.13"/>
<polygon fill="#58a6ff" stroke="#58a6ff" stroke-width="1.2" points="2852.22,-1034.32 2857.74,-1040.75 2857.44,-1032.28 2852.22,-1034.32"/>
<text text-anchor="middle" x="2720" y="-809.57" font-family="Courier,monospace" font-size="9.00" fill="#8b949e"> Telemetry </text>
</g>
<!-- aegis&#45;agent&#45;bridge -->
<g id="node16" class="node">
<title>aegis&#45;agent&#45;bridge</title>
<path fill="#161b22" stroke="#58a6ff" d="M198.5,-1035.77C198.5,-1035.77 57.5,-1035.77 57.5,-1035.77 51.5,-1035.77 45.5,-1029.77 45.5,-1023.77 45.5,-1023.77 45.5,-1009.77 45.5,-1009.77 45.5,-1003.77 51.5,-997.77 57.5,-997.77 57.5,-997.77 198.5,-997.77 198.5,-997.77 204.5,-997.77 210.5,-1003.77 210.5,-1009.77 210.5,-1009.77 210.5,-1023.77 210.5,-1023.77 210.5,-1029.77 204.5,-1035.77 198.5,-1035.77"/>
<text text-anchor="middle" x="128" y="-1020.57" font-family="Courier,monospace" font-size="14.00" fill="#c9d1d9">aegis&#45;agent&#45;bridge</text>
<text text-anchor="middle" x="128" y="-1005.57" font-family="Courier,monospace" font-size="14.00" fill="#c9d1d9">[]</text>
</g>
<!-- AegisAgent -->
<g id="node17" class="node">
<title>AegisAgent</title>
<path fill="#161b22" stroke="#58a6ff" d="M165.5,-1091.77C165.5,-1091.77 90.5,-1091.77 90.5,-1091.77 84.5,-1091.77 78.5,-1085.77 78.5,-1079.77 78.5,-1079.77 78.5,-1065.77 78.5,-1065.77 78.5,-1059.77 84.5,-1053.77 90.5,-1053.77 90.5,-1053.77 165.5,-1053.77 165.5,-1053.77 171.5,-1053.77 177.5,-1059.77 177.5,-1065.77 177.5,-1065.77 177.5,-1079.77 177.5,-1079.77 177.5,-1085.77 171.5,-1091.77 165.5,-1091.77"/>
<text text-anchor="middle" x="128" y="-1076.57" font-family="Courier,monospace" font-size="14.00" fill="#c9d1d9">AegisAgent</text>
<text text-anchor="middle" x="128" y="-1061.57" font-family="Courier,monospace" font-size="14.00" fill="#c9d1d9">[]</text>
</g>
<!-- avatar&#45;creator -->
<g id="node18" class="node">
<title>avatar&#45;creator</title>
<path fill="#161b22" stroke="#58a6ff" d="M182,-1147.77C182,-1147.77 74,-1147.77 74,-1147.77 68,-1147.77 62,-1141.77 62,-1135.77 62,-1135.77 62,-1121.77 62,-1121.77 62,-1115.77 68,-1109.77 74,-1109.77 74,-1109.77 182,-1109.77 182,-1109.77 188,-1109.77 194,-1115.77 194,-1121.77 194,-1121.77 194,-1135.77 194,-1135.77 194,-1141.77 188,-1147.77 182,-1147.77"/>
<text text-anchor="middle" x="128" y="-1132.57" font-family="Courier,monospace" font-size="14.00" fill="#c9d1d9">avatar&#45;creator</text>
<text text-anchor="middle" x="128" y="-1117.57" font-family="Courier,monospace" font-size="14.00" fill="#c9d1d9">[]</text>
</g>
<!-- batch_termux -->
<g id="node19" class="node">
<title>batch_termux</title>
<path fill="#161b22" stroke="#58a6ff" d="M174,-1203.77C174,-1203.77 82,-1203.77 82,-1203.77 76,-1203.77 70,-1197.77 70,-1191.77 70,-1191.77 70,-1177.77 70,-1177.77 70,-1171.77 76,-1165.77 82,-1165.77 82,-1165.77 174,-1165.77 174,-1165.77 180,-1165.77 186,-1171.77 186,-1177.77 186,-1177.77 186,-1191.77 186,-1191.77 186,-1197.77 180,-1203.77 174,-1203.77"/>
<text text-anchor="middle" x="128" y="-1188.57" font-family="Courier,monospace" font-size="14.00" fill="#c9d1d9">batch_termux</text>
<text text-anchor="middle" x="128" y="-1173.57" font-family="Courier,monospace" font-size="14.00" fill="#c9d1d9">[]</text>
</g>
<!-- DARWIN_GRID_DEPLOY -->
<g id="node20" class="node">
<title>DARWIN_GRID_DEPLOY</title>
<path fill="#161b22" stroke="#58a6ff" d="M198.5,-1259.77C198.5,-1259.77 57.5,-1259.77 57.5,-1259.77 51.5,-1259.77 45.5,-1253.77 45.5,-1247.77 45.5,-1247.77 45.5,-1233.77 45.5,-1233.77 45.5,-1227.77 51.5,-1221.77 57.5,-1221.77 57.5,-1221.77 198.5,-1221.77 198.5,-1221.77 204.5,-1221.77 210.5,-1227.77 210.5,-1233.77 210.5,-1233.77 210.5,-1247.77 210.5,-1247.77 210.5,-1253.77 204.5,-1259.77 198.5,-1259.77"/>
<text text-anchor="middle" x="128" y="-1244.57" font-family="Courier,monospace" font-size="14.00" fill="#c9d1d9">DARWIN_GRID_DEPLOY</text>
<text text-anchor="middle" x="128" y="-1229.57" font-family="Courier,monospace" font-size="14.00" fill="#c9d1d9">[]</text>
</g>
<!-- E2E_Final_Test -->
<g id="node21" class="node">
<title>E2E_Final_Test</title>
<path fill="#161b22" stroke="#58a6ff" d="M182,-1315.77C182,-1315.77 74,-1315.77 74,-1315.77 68,-1315.77 62,-1309.77 62,-1303.77 62,-1303.77 62,-1289.77 62,-1289.77 62,-1283.77 68,-1277.77 74,-1277.77 74,-1277.77 182,-1277.77 182,-1277.77 188,-1277.77 194,-1283.77 194,-1289.77 194,-1289.77 194,-1303.77 194,-1303.77 194,-1309.77 188,-1315.77 182,-1315.77"/>
<text text-anchor="middle" x="128" y="-1300.57" font-family="Courier,monospace" font-size="14.00" fill="#c9d1d9">E2E_Final_Test</text>
<text text-anchor="middle" x="128" y="-1285.57" font-family="Courier,monospace" font-size="14.00" fill="#c9d1d9">[]</text>
</g>
<!-- E2E_Test_Deploy_6172 -->
<g id="node22" class="node">
<title>E2E_Test_Deploy_6172</title>
<path fill="#161b22" stroke="#58a6ff" d="M207,-1371.77C207,-1371.77 49,-1371.77 49,-1371.77 43,-1371.77 37,-1365.77 37,-1359.77 37,-1359.77 37,-1345.77 37,-1345.77 37,-1339.77 43,-1333.77 49,-1333.77 49,-1333.77 207,-1333.77 207,-1333.77 213,-1333.77 219,-1339.77 219,-1345.77 219,-1345.77 219,-1359.77 219,-1359.77 219,-1365.77 213,-1371.77 207,-1371.77"/>
<text text-anchor="middle" x="128" y="-1356.57" font-family="Courier,monospace" font-size="14.00" fill="#c9d1d9">E2E_Test_Deploy_6172</text>
<text text-anchor="middle" x="128" y="-1341.57" font-family="Courier,monospace" font-size="14.00" fill="#c9d1d9">[]</text>
</g>
<!-- evolved_system -->
<g id="node23" class="node">
<title>evolved_system</title>
<path fill="#161b22" stroke="#58a6ff" d="M182,-1427.77C182,-1427.77 74,-1427.77 74,-1427.77 68,-1427.77 62,-1421.77 62,-1415.77 62,-1415.77 62,-1401.77 62,-1401.77 62,-1395.77 68,-1389.77 74,-1389.77 74,-1389.77 182,-1389.77 182,-1389.77 188,-1389.77 194,-1395.77 194,-1401.77 194,-1401.77 194,-1415.77 194,-1415.77 194,-1421.77 188,-1427.77 182,-1427.77"/>
<text text-anchor="middle" x="128" y="-1412.57" font-family="Courier,monospace" font-size="14.00" fill="#c9d1d9">evolved_system</text>
<text text-anchor="middle" x="128" y="-1397.57" font-family="Courier,monospace" font-size="14.00" fill="#c9d1d9">[]</text>
</g>
<!-- Flappy_bird_except_python_and -->
<g id="node24" class="node">
<title>Flappy_bird_except_python_and</title>
<path fill="#161b22" stroke="#58a6ff" d="M244,-1483.77C244,-1483.77 12,-1483.77 12,-1483.77 6,-1483.77 0,-1477.77 0,-1471.77 0,-1471.77 0,-1457.77 0,-1457.77 0,-1451.77 6,-1445.77 12,-1445.77 12,-1445.77 244,-1445.77 244,-1445.77 250,-1445.77 256,-1451.77 256,-1457.77 256,-1457.77 256,-1471.77 256,-1471.77 256,-1477.77 250,-1483.77 244,-1483.77"/>
<text text-anchor="middle" x="128" y="-1468.57" font-family="Courier,monospace" font-size="14.00" fill="#c9d1d9">Flappy_bird_except_python_and</text>
<text text-anchor="middle" x="128" y="-1453.57" font-family="Courier,monospace" font-size="14.00" fill="#c9d1d9">[]</text>
</g>
<!-- fleet&#45;repo&#45;scanner -->
<g id="node25" class="node">
<title>fleet&#45;repo&#45;scanner</title>
<path fill="#161b22" stroke="#58a6ff" d="M198.5,-1539.77C198.5,-1539.77 57.5,-1539.77 57.5,-1539.77 51.5,-1539.77 45.5,-1533.77 45.5,-1527.77 45.5,-1527.77 45.5,-1513.77 45.5,-1513.77 45.5,-1507.77 51.5,-1501.77 57.5,-1501.77 57.5,-1501.77 198.5,-1501.77 198.5,-1501.77 204.5,-1501.77 210.5,-1507.77 210.5,-1513.77 210.5,-1513.77 210.5,-1527.77 210.5,-1527.77 210.5,-1533.77 204.5,-1539.77 198.5,-1539.77"/>
<text text-anchor="middle" x="128" y="-1524.57" font-family="Courier,monospace" font-size="14.00" fill="#c9d1d9">fleet&#45;repo&#45;scanner</text>
<text text-anchor="middle" x="128" y="-1509.57" font-family="Courier,monospace" font-size="14.00" fill="#c9d1d9">[]</text>
</g>
<!-- frontier&#45;ai&#45;dlc -->
<g id="node26" class="node">
<title>frontier&#45;ai&#45;dlc</title>
<path fill="#161b22" stroke="#58a6ff" d="M186,-1595.77C186,-1595.77 70,-1595.77 70,-1595.77 64,-1595.77 58,-1589.77 58,-1583.77 58,-1583.77 58,-1569.77 58,-1569.77 58,-1563.77 64,-1557.77 70,-1557.77 70,-1557.77 186,-1557.77 186,-1557.77 192,-1557.77 198,-1563.77 198,-1569.77 198,-1569.77 198,-1583.77 198,-1583.77 198,-1589.77 192,-1595.77 186,-1595.77"/>
<text text-anchor="middle" x="128" y="-1580.57" font-family="Courier,monospace" font-size="14.00" fill="#c9d1d9">frontier&#45;ai&#45;dlc</text>
<text text-anchor="middle" x="128" y="-1565.57" font-family="Courier,monospace" font-size="14.00" fill="#c9d1d9">[]</text>
</g>
<!-- Gitautoworks -->
<g id="node27" class="node">
<title>Gitautoworks</title>
<path fill="#161b22" stroke="#58a6ff" d="M174,-1651.77C174,-1651.77 82,-1651.77 82,-1651.77 76,-1651.77 70,-1645.77 70,-1639.77 70,-1639.77 70,-1625.77 70,-1625.77 70,-1619.77 76,-1613.77 82,-1613.77 82,-1613.77 174,-1613.77 174,-1613.77 180,-1613.77 186,-1619.77 186,-1625.77 186,-1625.77 186,-1639.77 186,-1639.77 186,-1645.77 180,-1651.77 174,-1651.77"/>
<text text-anchor="middle" x="128" y="-1636.57" font-family="Courier,monospace" font-size="14.00" fill="#c9d1d9">Gitautoworks</text>
<text text-anchor="middle" x="128" y="-1621.57" font-family="Courier,monospace" font-size="14.00" fill="#c9d1d9">[]</text>
</g>
<!-- H2O_MATRIX -->
<g id="node28" class="node">
<title>H2O_MATRIX</title>
<path fill="#161b22" stroke="#58a6ff" d="M165.5,-1707.77C165.5,-1707.77 90.5,-1707.77 90.5,-1707.77 84.5,-1707.77 78.5,-1701.77 78.5,-1695.77 78.5,-1695.77 78.5,-1681.77 78.5,-1681.77 78.5,-1675.77 84.5,-1669.77 90.5,-1669.77 90.5,-1669.77 165.5,-1669.77 165.5,-1669.77 171.5,-1669.77 177.5,-1675.77 177.5,-1681.77 177.5,-1681.77 177.5,-1695.77 177.5,-1695.77 177.5,-1701.77 171.5,-1707.77 165.5,-1707.77"/>
<text text-anchor="middle" x="128" y="-1692.57" font-family="Courier,monospace" font-size="14.00" fill="#c9d1d9">H2O_MATRIX</text>
<text text-anchor="middle" x="128" y="-1677.57" font-family="Courier,monospace" font-size="14.00" fill="#c9d1d9">[]</text>
</g>
<!-- house&#45;inference -->
<g id="node29" class="node">
<title>house&#45;inference</title>
<path fill="#161b22" stroke="#58a6ff" d="M186,-1763.77C186,-1763.77 70,-1763.77 70,-1763.77 64,-1763.77 58,-1757.77 58,-1751.77 58,-1751.77 58,-1737.77 58,-1737.77 58,-1731.77 64,-1725.77 70,-1725.77 70,-1725.77 186,-1725.77 186,-1725.77 192,-1725.77 198,-1731.77 198,-1737.77 198,-1737.77 198,-1751.77 198,-1751.77 198,-1757.77 192,-1763.77 186,-1763.77"/>
<text text-anchor="middle" x="128" y="-1748.57" font-family="Courier,monospace" font-size="14.00" fill="#c9d1d9">house&#45;inference</text>
<text text-anchor="middle" x="128" y="-1733.57" font-family="Courier,monospace" font-size="14.00" fill="#c9d1d9">[]</text>
</g>
<!-- JRM -->
<g id="node30" class="node">
<title>JRM</title>
<path fill="#161b22" stroke="#58a6ff" d="M143,-1819.77C143,-1819.77 113,-1819.77 113,-1819.77 107,-1819.77 101,-1813.77 101,-1807.77 101,-1807.77 101,-1793.77 101,-1793.77 101,-1787.77 107,-1781.77 113,-1781.77 113,-1781.77 143,-1781.77 143,-1781.77 149,-1781.77 155,-1787.77 155,-1793.77 155,-1793.77 155,-1807.77 155,-1807.77 155,-1813.77 149,-1819.77 143,-1819.77"/>
<text text-anchor="middle" x="128" y="-1804.57" font-family="Courier,monospace" font-size="14.00" fill="#c9d1d9">JRM</text>
<text text-anchor="middle" x="128" y="-1789.57" font-family="Courier,monospace" font-size="14.00" fill="#c9d1d9">[]</text>
</g>
<!-- living&#45;ascii&#45;art -->
<g id="node31" class="node">
<title>living&#45;ascii&#45;art</title>
<path fill="#161b22" stroke="#58a6ff" d="M190.5,-1875.77C190.5,-1875.77 65.5,-1875.77 65.5,-1875.77 59.5,-1875.77 53.5,-1869.77 53.5,-1863.77 53.5,-1863.77 53.5,-1849.77 53.5,-1849.77 53.5,-1843.77 59.5,-1837.77 65.5,-1837.77 65.5,-1837.77 190.5,-1837.77 190.5,-1837.77 196.5,-1837.77 202.5,-1843.77 202.5,-1849.77 202.5,-1849.77 202.5,-1863.77 202.5,-1863.77 202.5,-1869.77 196.5,-1875.77 190.5,-1875.77"/>
<text text-anchor="middle" x="128" y="-1860.57" font-family="Courier,monospace" font-size="14.00" fill="#c9d1d9">living&#45;ascii&#45;art</text>
<text text-anchor="middle" x="128" y="-1845.57" font-family="Courier,monospace" font-size="14.00" fill="#c9d1d9">[]</text>
</g>
<!-- Machine2 -->
<g id="node32" class="node">
<title>Machine2</title>
<path fill="#161b22" stroke="#58a6ff" d="M157.5,-1931.77C157.5,-1931.77 98.5,-1931.77 98.5,-1931.77 92.5,-1931.77 86.5,-1925.77 86.5,-1919.77 86.5,-1919.77 86.5,-1905.77 86.5,-1905.77 86.5,-1899.77 92.5,-1893.77 98.5,-1893.77 98.5,-1893.77 157.5,-1893.77 157.5,-1893.77 163.5,-1893.77 169.5,-1899.77 169.5,-1905.77 169.5,-1905.77 169.5,-1919.77 169.5,-1919.77 169.5,-1925.77 163.5,-1931.77 157.5,-1931.77"/>
<text text-anchor="middle" x="128" y="-1916.57" font-family="Courier,monospace" font-size="14.00" fill="#c9d1d9">Machine2</text>
<text text-anchor="middle" x="128" y="-1901.57" font-family="Courier,monospace" font-size="14.00" fill="#c9d1d9">[]</text>
</g>
<!-- Matrix_CEAGENTS -->
<g id="node33" class="node">
<title>Matrix_CEAGENTS</title>
<path fill="#161b22" stroke="#58a6ff" d="M186,-1987.77C186,-1987.77 70,-1987.77 70,-1987.77 64,-1987.77 58,-1981.77 58,-1975.77 58,-1975.77 58,-1961.77 58,-1961.77 58,-1955.77 64,-1949.77 70,-1949.77 70,-1949.77 186,-1949.77 186,-1949.77 192,-1949.77 198,-1955.77 198,-1961.77 198,-1961.77 198,-1975.77 198,-1975.77 198,-1981.77 192,-1987.77 186,-1987.77"/>
<text text-anchor="middle" x="128" y="-1972.57" font-family="Courier,monospace" font-size="14.00" fill="#c9d1d9">Matrix_CEAGENTS</text>
<text text-anchor="middle" x="128" y="-1957.57" font-family="Courier,monospace" font-size="14.00" fill="#c9d1d9">[]</text>
</g>
<!-- Matrix_CEAPK -->
<g id="node34" class="node">
<title>Matrix_CEAPK</title>
<path fill="#161b22" stroke="#58a6ff" d="M174,-2043.77C174,-2043.77 82,-2043.77 82,-2043.77 76,-2043.77 70,-2037.77 70,-2031.77 70,-2031.77 70,-2017.77 70,-2017.77 70,-2011.77 76,-2005.77 82,-2005.77 82,-2005.77 174,-2005.77 174,-2005.77 180,-2005.77 186,-2011.77 186,-2017.77 186,-2017.77 186,-2031.77 186,-2031.77 186,-2037.77 180,-2043.77 174,-2043.77"/>
<text text-anchor="middle" x="128" y="-2028.57" font-family="Courier,monospace" font-size="14.00" fill="#c9d1d9">Matrix_CEAPK</text>
<text text-anchor="middle" x="128" y="-2013.57" font-family="Courier,monospace" font-size="14.00" fill="#c9d1d9">[]</text>
</g>
<!-- Matrix_CEAPPS -->
<g id="node35" class="node">
<title>Matrix_CEAPPS</title>
<path fill="#161b22" stroke="#58a6ff" d="M178,-2099.77C178,-2099.77 78,-2099.77 78,-2099.77 72,-2099.77 66,-2093.77 66,-2087.77 66,-2087.77 66,-2073.77 66,-2073.77 66,-2067.77 72,-2061.77 78,-2061.77 78,-2061.77 178,-2061.77 178,-2061.77 184,-2061.77 190,-2067.77 190,-2073.77 190,-2073.77 190,-2087.77 190,-2087.77 190,-2093.77 184,-2099.77 178,-2099.77"/>
<text text-anchor="middle" x="128" y="-2084.57" font-family="Courier,monospace" font-size="14.00" fill="#c9d1d9">Matrix_CEAPPS</text>
<text text-anchor="middle" x="128" y="-2069.57" font-family="Courier,monospace" font-size="14.00" fill="#c9d1d9">[]</text>
</g>
<!-- Matrix_CEBack -->
<g id="node36" class="node">
<title>Matrix_CEBack</title>
<path fill="#161b22" stroke="#58a6ff" d="M178,-2155.77C178,-2155.77 78,-2155.77 78,-2155.77 72,-2155.77 66,-2149.77 66,-2143.77 66,-2143.77 66,-2129.77 66,-2129.77 66,-2123.77 72,-2117.77 78,-2117.77 78,-2117.77 178,-2117.77 178,-2117.77 184,-2117.77 190,-2123.77 190,-2129.77 190,-2129.77 190,-2143.77 190,-2143.77 190,-2149.77 184,-2155.77 178,-2155.77"/>
<text text-anchor="middle" x="128" y="-2140.57" font-family="Courier,monospace" font-size="14.00" fill="#c9d1d9">Matrix_CEBack</text>
<text text-anchor="middle" x="128" y="-2125.57" font-family="Courier,monospace" font-size="14.00" fill="#c9d1d9">[]</text>
</g>
<!-- Matrix_CEKAI9000 -->
<g id="node37" class="node">
<title>Matrix_CEKAI9000</title>
<path fill="#161b22" stroke="#58a6ff" d="M190.5,-2211.77C190.5,-2211.77 65.5,-2211.77 65.5,-2211.77 59.5,-2211.77 53.5,-2205.77 53.5,-2199.77 53.5,-2199.77 53.5,-2185.77 53.5,-2185.77 53.5,-2179.77 59.5,-2173.77 65.5,-2173.77 65.5,-2173.77 190.5,-2173.77 190.5,-2173.77 196.5,-2173.77 202.5,-2179.77 202.5,-2185.77 202.5,-2185.77 202.5,-2199.77 202.5,-2199.77 202.5,-2205.77 196.5,-2211.77 190.5,-2211.77"/>
<text text-anchor="middle" x="128" y="-2196.57" font-family="Courier,monospace" font-size="14.00" fill="#c9d1d9">Matrix_CEKAI9000</text>
<text text-anchor="middle" x="128" y="-2181.57" font-family="Courier,monospace" font-size="14.00" fill="#c9d1d9">[]</text>
</g>
<!-- Matrix_CESERVERS -->
<g id="node38" class="node">
<title>Matrix_CESERVERS</title>
<path fill="#161b22" stroke="#58a6ff" d="M190.5,-2267.77C190.5,-2267.77 65.5,-2267.77 65.5,-2267.77 59.5,-2267.77 53.5,-2261.77 53.5,-2255.77 53.5,-2255.77 53.5,-2241.77 53.5,-2241.77 53.5,-2235.77 59.5,-2229.77 65.5,-2229.77 65.5,-2229.77 190.5,-2229.77 190.5,-2229.77 196.5,-2229.77 202.5,-2235.77 202.5,-2241.77 202.5,-2241.77 202.5,-2255.77 202.5,-2255.77 202.5,-2261.77 196.5,-2267.77 190.5,-2267.77"/>
<text text-anchor="middle" x="128" y="-2252.57" font-family="Courier,monospace" font-size="14.00" fill="#c9d1d9">Matrix_CESERVERS</text>
<text text-anchor="middle" x="128" y="-2237.57" font-family="Courier,monospace" font-size="14.00" fill="#c9d1d9">[]</text>
</g>
<!-- matrix_dash -->
<g id="node39" class="node">
<title>matrix_dash</title>
<path fill="#161b22" stroke="#58a6ff" d="M169.5,-2323.77C169.5,-2323.77 86.5,-2323.77 86.5,-2323.77 80.5,-2323.77 74.5,-2317.77 74.5,-2311.77 74.5,-2311.77 74.5,-2297.77 74.5,-2297.77 74.5,-2291.77 80.5,-2285.77 86.5,-2285.77 86.5,-2285.77 169.5,-2285.77 169.5,-2285.77 175.5,-2285.77 181.5,-2291.77 181.5,-2297.77 181.5,-2297.77 181.5,-2311.77 181.5,-2311.77 181.5,-2317.77 175.5,-2323.77 169.5,-2323.77"/>
<text text-anchor="middle" x="128" y="-2308.57" font-family="Courier,monospace" font-size="14.00" fill="#c9d1d9">matrix_dash</text>
<text text-anchor="middle" x="128" y="-2293.57" font-family="Courier,monospace" font-size="14.00" fill="#c9d1d9">[]</text>
</g>
<!-- moe&#45;kai&#45;skill -->
<g id="node40" class="node">
<title>moe&#45;kai&#45;skill</title>
<path fill="#161b22" stroke="#58a6ff" d="M178,-2379.77C178,-2379.77 78,-2379.77 78,-2379.77 72,-2379.77 66,-2373.77 66,-2367.77 66,-2367.77 66,-2353.77 66,-2353.77 66,-2347.77 72,-2341.77 78,-2341.77 78,-2341.77 178,-2341.77 178,-2341.77 184,-2341.77 190,-2347.77 190,-2353.77 190,-2353.77 190,-2367.77 190,-2367.77 190,-2373.77 184,-2379.77 178,-2379.77"/>
<text text-anchor="middle" x="128" y="-2364.57" font-family="Courier,monospace" font-size="14.00" fill="#c9d1d9">moe&#45;kai&#45;skill</text>
<text text-anchor="middle" x="128" y="-2349.57" font-family="Courier,monospace" font-size="14.00" fill="#c9d1d9">[]</text>
</g>
<!-- MultiPage_E2E_20010 -->
<g id="node41" class="node">
<title>MultiPage_E2E_20010</title>
<path fill="#161b22" stroke="#58a6ff" d="M202.5,-2435.77C202.5,-2435.77 53.5,-2435.77 53.5,-2435.77 47.5,-2435.77 41.5,-2429.77 41.5,-2423.77 41.5,-2423.77 41.5,-2409.77 41.5,-2409.77 41.5,-2403.77 47.5,-2397.77 53.5,-2397.77 53.5,-2397.77 202.5,-2397.77 202.5,-2397.77 208.5,-2397.77 214.5,-2403.77 214.5,-2409.77 214.5,-2409.77 214.5,-2423.77 214.5,-2423.77 214.5,-2429.77 208.5,-2435.77 202.5,-2435.77"/>
<text text-anchor="middle" x="128" y="-2420.57" font-family="Courier,monospace" font-size="14.00" fill="#c9d1d9">MultiPage_E2E_20010</text>
<text text-anchor="middle" x="128" y="-2405.57" font-family="Courier,monospace" font-size="14.00" fill="#c9d1d9">[]</text>
</g>
<!-- NAS_SHARE -->
<g id="node42" class="node">
<title>NAS_SHARE</title>
<path fill="#161b22" stroke="#58a6ff" d="M161.5,-2491.77C161.5,-2491.77 94.5,-2491.77 94.5,-2491.77 88.5,-2491.77 82.5,-2485.77 82.5,-2479.77 82.5,-2479.77 82.5,-2465.77 82.5,-2465.77 82.5,-2459.77 88.5,-2453.77 94.5,-2453.77 94.5,-2453.77 161.5,-2453.77 161.5,-2453.77 167.5,-2453.77 173.5,-2459.77 173.5,-2465.77 173.5,-2465.77 173.5,-2479.77 173.5,-2479.77 173.5,-2485.77 167.5,-2491.77 161.5,-2491.77"/>
<text text-anchor="middle" x="128" y="-2476.57" font-family="Courier,monospace" font-size="14.00" fill="#c9d1d9">NAS_SHARE</text>
<text text-anchor="middle" x="128" y="-2461.57" font-family="Courier,monospace" font-size="14.00" fill="#c9d1d9">[]</text>
</g>
<!-- openrouter -->
<g id="node43" class="node">
<title>openrouter</title>
<path fill="#161b22" stroke="#58a6ff" d="M165.5,-2547.77C165.5,-2547.77 90.5,-2547.77 90.5,-2547.77 84.5,-2547.77 78.5,-2541.77 78.5,-2535.77 78.5,-2535.77 78.5,-2521.77 78.5,-2521.77 78.5,-2515.77 84.5,-2509.77 90.5,-2509.77 90.5,-2509.77 165.5,-2509.77 165.5,-2509.77 171.5,-2509.77 177.5,-2515.77 177.5,-2521.77 177.5,-2521.77 177.5,-2535.77 177.5,-2535.77 177.5,-2541.77 171.5,-2547.77 165.5,-2547.77"/>
<text text-anchor="middle" x="128" y="-2532.57" font-family="Courier,monospace" font-size="14.00" fill="#c9d1d9">openrouter</text>
<text text-anchor="middle" x="128" y="-2517.57" font-family="Courier,monospace" font-size="14.00" fill="#c9d1d9">[]</text>
</g>
<!-- RandomTestProject -->
<g id="node44" class="node">
<title>RandomTestProject</title>
<path fill="#161b22" stroke="#58a6ff" d="M194.5,-2603.77C194.5,-2603.77 61.5,-2603.77 61.5,-2603.77 55.5,-2603.77 49.5,-2597.77 49.5,-2591.77 49.5,-2591.77 49.5,-2577.77 49.5,-2577.77 49.5,-2571.77 55.5,-2565.77 61.5,-2565.77 61.5,-2565.77 194.5,-2565.77 194.5,-2565.77 200.5,-2565.77 206.5,-2571.77 206.5,-2577.77 206.5,-2577.77 206.5,-2591.77 206.5,-2591.77 206.5,-2597.77 200.5,-2603.77 194.5,-2603.77"/>
<text text-anchor="middle" x="128" y="-2588.57" font-family="Courier,monospace" font-size="14.00" fill="#c9d1d9">RandomTestProject</text>
<text text-anchor="middle" x="128" y="-2573.57" font-family="Courier,monospace" font-size="14.00" fill="#c9d1d9">[]</text>
</g>
<!-- Ryush -->
<g id="node45" class="node">
<title>Ryush</title>
<path fill="#161b22" stroke="#58a6ff" d="M145,-2659.77C145,-2659.77 111,-2659.77 111,-2659.77 105,-2659.77 99,-2653.77 99,-2647.77 99,-2647.77 99,-2633.77 99,-2633.77 99,-2627.77 105,-2621.77 111,-2621.77 111,-2621.77 145,-2621.77 145,-2621.77 151,-2621.77 157,-2627.77 157,-2633.77 157,-2633.77 157,-2647.77 157,-2647.77 157,-2653.77 151,-2659.77 145,-2659.77"/>
<text text-anchor="middle" x="128" y="-2644.57" font-family="Courier,monospace" font-size="14.00" fill="#c9d1d9">Ryush</text>
<text text-anchor="middle" x="128" y="-2629.57" font-family="Courier,monospace" font-size="14.00" fill="#c9d1d9">[]</text>
</g>
<!-- SimAgentCity -->
<g id="node46" class="node">
<title>SimAgentCity</title>
<path fill="#161b22" stroke="#58a6ff" d="M174,-2715.77C174,-2715.77 82,-2715.77 82,-2715.77 76,-2715.77 70,-2709.77 70,-2703.77 70,-2703.77 70,-2689.77 70,-2689.77 70,-2683.77 76,-2677.77 82,-2677.77 82,-2677.77 174,-2677.77 174,-2677.77 180,-2677.77 186,-2683.77 186,-2689.77 186,-2689.77 186,-2703.77 186,-2703.77 186,-2709.77 180,-2715.77 174,-2715.77"/>
<text text-anchor="middle" x="128" y="-2700.57" font-family="Courier,monospace" font-size="14.00" fill="#c9d1d9">SimAgentCity</text>
<text text-anchor="middle" x="128" y="-2685.57" font-family="Courier,monospace" font-size="14.00" fill="#c9d1d9">[]</text>
</g>
<!-- SIMS1337 -->
<g id="node47" class="node">
<title>SIMS1337</title>
<path fill="#161b22" stroke="#58a6ff" d="M157.5,-2771.77C157.5,-2771.77 98.5,-2771.77 98.5,-2771.77 92.5,-2771.77 86.5,-2765.77 86.5,-2759.77 86.5,-2759.77 86.5,-2745.77 86.5,-2745.77 86.5,-2739.77 92.5,-2733.77 98.5,-2733.77 98.5,-2733.77 157.5,-2733.77 157.5,-2733.77 163.5,-2733.77 169.5,-2739.77 169.5,-2745.77 169.5,-2745.77 169.5,-2759.77 169.5,-2759.77 169.5,-2765.77 163.5,-2771.77 157.5,-2771.77"/>
<text text-anchor="middle" x="128" y="-2756.57" font-family="Courier,monospace" font-size="14.00" fill="#c9d1d9">SIMS1337</text>
<text text-anchor="middle" x="128" y="-2741.57" font-family="Courier,monospace" font-size="14.00" fill="#c9d1d9">[]</text>
</g>
<!-- SIMS1337&#45;BACKEND -->
<g id="node48" class="node">
<title>SIMS1337&#45;BACKEND</title>
<path fill="#161b22" stroke="#58a6ff" d="M190.5,-2827.77C190.5,-2827.77 65.5,-2827.77 65.5,-2827.77 59.5,-2827.77 53.5,-2821.77 53.5,-2815.77 53.5,-2815.77 53.5,-2801.77 53.5,-2801.77 53.5,-2795.77 59.5,-2789.77 65.5,-2789.77 65.5,-2789.77 190.5,-2789.77 190.5,-2789.77 196.5,-2789.77 202.5,-2795.77 202.5,-2801.77 202.5,-2801.77 202.5,-2815.77 202.5,-2815.77 202.5,-2821.77 196.5,-2827.77 190.5,-2827.77"/>
<text text-anchor="middle" x="128" y="-2812.57" font-family="Courier,monospace" font-size="14.00" fill="#c9d1d9">SIMS1337&#45;BACKEND</text>
<text text-anchor="middle" x="128" y="-2797.57" font-family="Courier,monospace" font-size="14.00" fill="#c9d1d9">[]</text>
</g>
<!-- SIMS1337&#45;SKY -->
<g id="node49" class="node">
<title>SIMS1337&#45;SKY</title>
<path fill="#161b22" stroke="#58a6ff" d="M174,-2883.77C174,-2883.77 82,-2883.77 82,-2883.77 76,-2883.77 70,-2877.77 70,-2871.77 70,-2871.77 70,-2857.77 70,-2857.77 70,-2851.77 76,-2845.77 82,-2845.77 82,-2845.77 174,-2845.77 174,-2845.77 180,-2845.77 186,-2851.77 186,-2857.77 186,-2857.77 186,-2871.77 186,-2871.77 186,-2877.77 180,-2883.77 174,-2883.77"/>
<text text-anchor="middle" x="128" y="-2868.57" font-family="Courier,monospace" font-size="14.00" fill="#c9d1d9">SIMS1337&#45;SKY</text>
<text text-anchor="middle" x="128" y="-2853.57" font-family="Courier,monospace" font-size="14.00" fill="#c9d1d9">[]</text>
</g>
<!-- SIMS1337BACKEND -->
<g id="node50" class="node">
<title>SIMS1337BACKEND</title>
<path fill="#161b22" stroke="#58a6ff" d="M186,-2939.77C186,-2939.77 70,-2939.77 70,-2939.77 64,-2939.77 58,-2933.77 58,-2927.77 58,-2927.77 58,-2913.77 58,-2913.77 58,-2907.77 64,-2901.77 70,-2901.77 70,-2901.77 186,-2901.77 186,-2901.77 192,-2901.77 198,-2907.77 198,-2913.77 198,-2913.77 198,-2927.77 198,-2927.77 198,-2933.77 192,-2939.77 186,-2939.77"/>
<text text-anchor="middle" x="128" y="-2924.57" font-family="Courier,monospace" font-size="14.00" fill="#c9d1d9">SIMS1337BACKEND</text>
<text text-anchor="middle" x="128" y="-2909.57" font-family="Courier,monospace" font-size="14.00" fill="#c9d1d9">[]</text>
</g>
<!-- SIMS1337SKY -->
<g id="node51" class="node">
<title>SIMS1337SKY</title>
<path fill="#161b22" stroke="#58a6ff" d="M169.5,-2995.77C169.5,-2995.77 86.5,-2995.77 86.5,-2995.77 80.5,-2995.77 74.5,-2989.77 74.5,-2983.77 74.5,-2983.77 74.5,-2969.77 74.5,-2969.77 74.5,-2963.77 80.5,-2957.77 86.5,-2957.77 86.5,-2957.77 169.5,-2957.77 169.5,-2957.77 175.5,-2957.77 181.5,-2963.77 181.5,-2969.77 181.5,-2969.77 181.5,-2983.77 181.5,-2983.77 181.5,-2989.77 175.5,-2995.77 169.5,-2995.77"/>
<text text-anchor="middle" x="128" y="-2980.57" font-family="Courier,monospace" font-size="14.00" fill="#c9d1d9">SIMS1337SKY</text>
<text text-anchor="middle" x="128" y="-2965.57" font-family="Courier,monospace" font-size="14.00" fill="#c9d1d9">[]</text>
</g>
<!-- sovereign&#45;analytics -->
<g id="node52" class="node">
<title>sovereign&#45;analytics</title>
<path fill="#161b22" stroke="#58a6ff" d="M202.5,-3051.77C202.5,-3051.77 53.5,-3051.77 53.5,-3051.77 47.5,-3051.77 41.5,-3045.77 41.5,-3039.77 41.5,-3039.77 41.5,-3025.77 41.5,-3025.77 41.5,-3019.77 47.5,-3013.77 53.5,-3013.77 53.5,-3013.77 202.5,-3013.77 202.5,-3013.77 208.5,-3013.77 214.5,-3019.77 214.5,-3025.77 214.5,-3025.77 214.5,-3039.77 214.5,-3039.77 214.5,-3045.77 208.5,-3051.77 202.5,-3051.77"/>
<text text-anchor="middle" x="128" y="-3036.57" font-family="Courier,monospace" font-size="14.00" fill="#c9d1d9">sovereign&#45;analytics</text>
<text text-anchor="middle" x="128" y="-3021.57" font-family="Courier,monospace" font-size="14.00" fill="#c9d1d9">[]</text>
</g>
<!-- Sprite -->
<g id="node53" class="node">
<title>Sprite</title>
<path fill="#161b22" stroke="#58a6ff" d="M149,-3107.77C149,-3107.77 107,-3107.77 107,-3107.77 101,-3107.77 95,-3101.77 95,-3095.77 95,-3095.77 95,-3081.77 95,-3081.77 95,-3075.77 101,-3069.77 107,-3069.77 107,-3069.77 149,-3069.77 149,-3069.77 155,-3069.77 161,-3075.77 161,-3081.77 161,-3081.77 161,-3095.77 161,-3095.77 161,-3101.77 155,-3107.77 149,-3107.77"/>
<text text-anchor="middle" x="128" y="-3092.57" font-family="Courier,monospace" font-size="14.00" fill="#c9d1d9">Sprite</text>
<text text-anchor="middle" x="128" y="-3077.57" font-family="Courier,monospace" font-size="14.00" fill="#c9d1d9">[]</text>
</g>
<!-- teaching_sandbox -->
<g id="node54" class="node">
<title>teaching_sandbox</title>
<path fill="#161b22" stroke="#58a6ff" d="M190.5,-3163.77C190.5,-3163.77 65.5,-3163.77 65.5,-3163.77 59.5,-3163.77 53.5,-3157.77 53.5,-3151.77 53.5,-3151.77 53.5,-3137.77 53.5,-3137.77 53.5,-3131.77 59.5,-3125.77 65.5,-3125.77 65.5,-3125.77 190.5,-3125.77 190.5,-3125.77 196.5,-3125.77 202.5,-3131.77 202.5,-3137.77 202.5,-3137.77 202.5,-3151.77 202.5,-3151.77 202.5,-3157.77 196.5,-3163.77 190.5,-3163.77"/>
<text text-anchor="middle" x="128" y="-3148.57" font-family="Courier,monospace" font-size="14.00" fill="#c9d1d9">teaching_sandbox</text>
<text text-anchor="middle" x="128" y="-3133.57" font-family="Courier,monospace" font-size="14.00" fill="#c9d1d9">[]</text>
</g>
<!-- TestRepo999 -->
<g id="node55" class="node">
<title>TestRepo999</title>
<path fill="#161b22" stroke="#58a6ff" d="M169.5,-3219.77C169.5,-3219.77 86.5,-3219.77 86.5,-3219.77 80.5,-3219.77 74.5,-3213.77 74.5,-3207.77 74.5,-3207.77 74.5,-3193.77 74.5,-3193.77 74.5,-3187.77 80.5,-3181.77 86.5,-3181.77 86.5,-3181.77 169.5,-3181.77 169.5,-3181.77 175.5,-3181.77 181.5,-3187.77 181.5,-3193.77 181.5,-3193.77 181.5,-3207.77 181.5,-3207.77 181.5,-3213.77 175.5,-3219.77 169.5,-3219.77"/>
<text text-anchor="middle" x="128" y="-3204.57" font-family="Courier,monospace" font-size="14.00" fill="#c9d1d9">TestRepo999</text>
<text text-anchor="middle" x="128" y="-3189.57" font-family="Courier,monospace" font-size="14.00" fill="#c9d1d9">[]</text>
</g>
<!-- TestRepoPush -->
<g id="node56" class="node">
<title>TestRepoPush</title>
<path fill="#161b22" stroke="#58a6ff" d="M174,-3275.77C174,-3275.77 82,-3275.77 82,-3275.77 76,-3275.77 70,-3269.77 70,-3263.77 70,-3263.77 70,-3249.77 70,-3249.77 70,-3243.77 76,-3237.77 82,-3237.77 82,-3237.77 174,-3237.77 174,-3237.77 180,-3237.77 186,-3243.77 186,-3249.77 186,-3249.77 186,-3263.77 186,-3263.77 186,-3269.77 180,-3275.77 174,-3275.77"/>
<text text-anchor="middle" x="128" y="-3260.57" font-family="Courier,monospace" font-size="14.00" fill="#c9d1d9">TestRepoPush</text>
<text text-anchor="middle" x="128" y="-3245.57" font-family="Courier,monospace" font-size="14.00" fill="#c9d1d9">[]</text>
</g>
<!-- training_sandbox -->
<g id="node57" class="node">
<title>training_sandbox</title>
<path fill="#161b22" stroke="#58a6ff" d="M190.5,-3331.77C190.5,-3331.77 65.5,-3331.77 65.5,-3331.77 59.5,-3331.77 53.5,-3325.77 53.5,-3319.77 53.5,-3319.77 53.5,-3305.77 53.5,-3305.77 53.5,-3299.77 59.5,-3293.77 65.5,-3293.77 65.5,-3293.77 190.5,-3293.77 190.5,-3293.77 196.5,-3293.77 202.5,-3299.77 202.5,-3305.77 202.5,-3305.77 202.5,-3319.77 202.5,-3319.77 202.5,-3325.77 196.5,-3331.77 190.5,-3331.77"/>
<text text-anchor="middle" x="128" y="-3316.57" font-family="Courier,monospace" font-size="14.00" fill="#c9d1d9">training_sandbox</text>
<text text-anchor="middle" x="128" y="-3301.57" font-family="Courier,monospace" font-size="14.00" fill="#c9d1d9">[]</text>
</g>
<!-- vidalialed&#45;lite -->
<g id="node58" class="node">
<title>vidalialed&#45;lite</title>
<path fill="#161b22" stroke="#58a6ff" d="M186,-3387.77C186,-3387.77 70,-3387.77 70,-3387.77 64,-3387.77 58,-3381.77 58,-3375.77 58,-3375.77 58,-3361.77 58,-3361.77 58,-3355.77 64,-3349.77 70,-3349.77 70,-3349.77 186,-3349.77 186,-3349.77 192,-3349.77 198,-3355.77 198,-3361.77 198,-3361.77 198,-3375.77 198,-3375.77 198,-3381.77 192,-3387.77 186,-3387.77"/>
<text text-anchor="middle" x="128" y="-3372.57" font-family="Courier,monospace" font-size="14.00" fill="#c9d1d9">vidalialed&#45;lite</text>
<text text-anchor="middle" x="128" y="-3357.57" font-family="Courier,monospace" font-size="14.00" fill="#c9d1d9">[]</text>
</g>
<!-- wip&#45;quantum&#45;asm -->
<g id="node59" class="node">
<title>wip&#45;quantum&#45;asm</title>
<path fill="#161b22" stroke="#58a6ff" d="M186,-3443.77C186,-3443.77 70,-3443.77 70,-3443.77 64,-3443.77 58,-3437.77 58,-3431.77 58,-3431.77 58,-3417.77 58,-3417.77 58,-3411.77 64,-3405.77 70,-3405.77 70,-3405.77 186,-3405.77 186,-3405.77 192,-3405.77 198,-3411.77 198,-3417.77 198,-3417.77 198,-3431.77 198,-3431.77 198,-3437.77 192,-3443.77 186,-3443.77"/>
<text text-anchor="middle" x="128" y="-3428.57" font-family="Courier,monospace" font-size="14.00" fill="#c9d1d9">wip&#45;quantum&#45;asm</text>
<text text-anchor="middle" x="128" y="-3413.57" font-family="Courier,monospace" font-size="14.00" fill="#c9d1d9">[]</text>
</g>
<!-- WORKER_PACKAGE -->
<g id="node60" class="node">
<title>WORKER_PACKAGE</title>
<path fill="#161b22" stroke="#58a6ff" d="M182,-3499.77C182,-3499.77 74,-3499.77 74,-3499.77 68,-3499.77 62,-3493.77 62,-3487.77 62,-3487.77 62,-3473.77 62,-3473.77 62,-3467.77 68,-3461.77 74,-3461.77 74,-3461.77 182,-3461.77 182,-3461.77 188,-3461.77 194,-3467.77 194,-3473.77 194,-3473.77 194,-3487.77 194,-3487.77 194,-3493.77 188,-3499.77 182,-3499.77"/>
<text text-anchor="middle" x="128" y="-3484.57" font-family="Courier,monospace" font-size="14.00" fill="#c9d1d9">WORKER_PACKAGE</text>
<text text-anchor="middle" x="128" y="-3469.57" font-family="Courier,monospace" font-size="14.00" fill="#c9d1d9">[]</text>
</g>
</g>
</svg>
