<?xml version="1.0" encoding="UTF-8" standalone="no"?>
<!DOCTYPE svg PUBLIC "-//W3C//DTD SVG 1.1//EN"
 "http://www.w3.org/Graphics/SVG/1.1/DTD/svg11.dtd">
<!-- Generated by graphviz version 2.43.0 (0)
 -->
<!-- Title: UnifiedArchitecture Pages: 1 -->
<svg width="3153pt" height="3642pt"
 viewBox="0.00 0.00 3153.20 3642.20" xmlns="http://www.w3.org/2000/svg" xmlns:xlink="http://www.w3.org/1999/xlink">
<g id="graph0" class="graph" transform="scale(1 1) rotate(0) translate(21.6 3620.6)">
<title>UnifiedArchitecture</title>
<polygon fill="#0d1117" stroke="transparent" points="-21.6,21.6 -21.6,-3620.6 3131.6,-3620.6 3131.6,21.6 -21.6,21.6"/>
<!-- Aegis_Agents -->
<g id="node1" class="node">
<title>Aegis_Agents</title>
<path fill="#161b22" stroke="#58a6ff" d="M215,-1135C215,-1135 41,-1135 41,-1135 35,-1135 29,-1129 29,-1123 29,-1123 29,-1109 29,-1109 29,-1103 35,-1097 41,-1097 41,-1097 215,-1097 215,-1097 221,-1097 227,-1103 227,-1109 227,-1109 227,-1123 227,-1123 227,-1129 221,-1135 215,-1135"/>
<text text-anchor="middle" x="128" y="-1119.8" font-family="Courier,monospace" font-size="14.00" fill="#c9d1d9">Aegis_Agents</text>
<text text-anchor="middle" x="128" y="-1104.8" font-family="Courier,monospace" font-size="14.00" fill="#c9d1d9">[Agent/BDI, Telemetry]</text>
</g>
<!-- Chrisalunlloyd2&#45;sudo -->
<g id="node2" class="node">
<title>Chrisalunlloyd2&#45;sudo</title>
<path fill="#161b22" stroke="#58a6ff" d="M536,-971C536,-971 362,-971 362,-971 356,-971 350,-965 350,-959 350,-959 350,-945 350,-945 350,-939 356,-933 362,-933 362,-933 536,-933 536,-933 542,-933 548,-939 548,-945 548,-945 548,-959 548,-959 548,-965 542,-971 536,-971"/>
<text text-anchor="middle" x="449" y="-955.8" font-family="Courier,monospace" font-size="14.00" fill="#c9d1d9">Chrisalunlloyd2&#45;sudo</text>
<text text-anchor="middle" x="449" y="-940.8" font-family="Courier,monospace" font-size="14.00" fill="#c9d1d9">[Agent/BDI, Telemetry]</text>
</g>
<!-- Aegis_Agents&#45;&gt;Chrisalunlloyd2&#45;sudo -->
<g id="edge1" class="edge">
<title>Aegis_Agents&#45;&gt;Chrisalunlloyd2&#45;sudo</title>
<path fill="none" stroke="#58a6ff" stroke-width="1.2" d="M166.22,-1096.87C225.28,-1066.5 340.27,-1007.39 403.56,-974.84"/>
<polygon fill="#58a6ff" stroke="#58a6ff" stroke-width="1.2" points="405.18,-977.16 411.02,-971.01 402.62,-972.18 405.18,-977.16"/>
<text text-anchor="middle" x="303" y="-1040.8" font-family="Courier,monospace" font-size="9.00" fill="#8b949e"> Agent/BDI </text>
</g>
<!-- H2OIDE -->
<g id="node3" class="node">
<title>H2OIDE</title>
<path fill="#161b22" stroke="#58a6ff" d="M737,-709C737,-709 654,-709 654,-709 648,-709 642,-703 642,-697 642,-697 642,-683 642,-683 642,-677 648,-671 654,-671 654,-671 737,-671 737,-671 743,-671 749,-677 749,-683 749,-683 749,-697 749,-697 749,-703 743,-709 737,-709"/>
<text text-anchor="middle" x="695.5" y="-693.8" font-family="Courier,monospace" font-size="14.00" fill="#c9d1d9">H2OIDE</text>
<text text-anchor="middle" x="695.5" y="-678.8" font-family="Courier,monospace" font-size="14.00" fill="#c9d1d9">[Telemetry]</text>
</g>
<!-- Aegis_Agents&#45;&gt;H2OIDE -->
<g id="edge2" class="edge">
<title>Aegis_Agents&#45;&gt;H2OIDE</title>
<path fill="none" stroke="#58a6ff" stroke-width="1.2" d="M148.34,-1096.72C185.85,-1059.68 271.7,-976.72 350,-914 441.42,-840.78 466.97,-825.55 566,-763 593.94,-745.35 626.29,-726.99 651.54,-713.09"/>
<polygon fill="#58a6ff" stroke="#58a6ff" stroke-width="1.2" points="653.13,-715.41 658.8,-709.11 650.44,-710.5 653.13,-715.41"/>
<text text-anchor="middle" x="449" y="-916.8" font-family="Courier,monospace" font-size="9.00" fill="#8b949e"> Telemetry </text>
</g>
<!-- H2OMatrixCE -->
<g id="node4" class="node">
<title>H2OMatrixCE</title>
<path fill="#161b22" stroke="#58a6ff" d="M938,-541C938,-541 855,-541 855,-541 849,-541 843,-535 843,-529 843,-529 843,-515 843,-515 843,-509 849,-503 855,-503 855,-503 938,-503 938,-503 944,-503 950,-509 950,-515 950,-515 950,-529 950,-529 950,-535 944,-541 938,-541"/>
<text text-anchor="middle" x="896.5" y="-525.8" font-family="Courier,monospace" font-size="14.00" fill="#c9d1d9">H2OMatrixCE</text>
<text text-anchor="middle" x="896.5" y="-510.8" font-family="Courier,monospace" font-size="14.00" fill="#c9d1d9">[Telemetry]</text>
</g>
<!-- Aegis_Agents&#45;&gt;H2OMatrixCE -->
<g id="edge3" class="edge">
<title>Aegis_Agents&#45;&gt;H2OMatrixCE</title>
<path fill="none" stroke="#58a6ff" stroke-width="1.2" d="M137.7,-1096.86C163.64,-1041.25 245.24,-876.91 350,-770 497.83,-619.13 560.25,-585.26 767,-542 788.95,-537.41 813.2,-533.37 834.68,-530.14"/>
<polygon fill="#58a6ff" stroke="#58a6ff" stroke-width="1.2" points="835.26,-532.89 842.76,-528.95 834.44,-527.35 835.26,-532.89"/>
<text text-anchor="middle" x="595" y="-602.8" font-family="Courier,monospace" font-size="9.00" fill="#8b949e"> Telemetry </text>
</g>
<!-- MasterLogs -->
<g id="node6" class="node">
<title>MasterLogs</title>
<path fill="#161b22" stroke="#58a6ff" d="M1176.5,-377C1176.5,-377 1093.5,-377 1093.5,-377 1087.5,-377 1081.5,-371 1081.5,-365 1081.5,-365 1081.5,-351 1081.5,-351 1081.5,-345 1087.5,-339 1093.5,-339 1093.5,-339 1176.5,-339 1176.5,-339 1182.5,-339 1188.5,-345 1188.5,-351 1188.5,-351 1188.5,-365 1188.5,-365 1188.5,-371 1182.5,-377 1176.5,-377"/>
<text text-anchor="middle" x="1135" y="-361.8" font-family="Courier,monospace" font-size="14.00" fill="#c9d1d9">MasterLogs</text>
<text text-anchor="middle" x="1135" y="-346.8" font-family="Courier,monospace" font-size="14.00" fill="#c9d1d9">[Telemetry]</text>
</g>
<!-- Aegis_Agents&#45;&gt;MasterLogs -->
<g id="edge4" class="edge">
<title>Aegis_Agents&#45;&gt;MasterLogs</title>
<path fill="none" stroke="#58a6ff" stroke-width="1.2" d="M131.16,-1096.88C146.73,-963.71 246.92,-180 448,-180 448,-180 448,-180 797,-180 926.71,-180 1055.37,-284.37 1108.54,-333.27"/>
<polygon fill="#58a6ff" stroke="#58a6ff" stroke-width="1.2" points="1106.88,-335.55 1114.64,-338.95 1110.69,-331.45 1106.88,-335.55"/>
<text text-anchor="middle" x="695.5" y="-182.8" font-family="Courier,monospace" font-size="9.00" fill="#8b949e"> Telemetry </text>
</g>
<!-- MatrixCE_GUI -->
<g id="node7" class="node">
<title>MatrixCE_GUI</title>
<path fill="#161b22" stroke="#58a6ff" d="M1214,-1236C1214,-1236 1056,-1236 1056,-1236 1050,-1236 1044,-1230 1044,-1224 1044,-1224 1044,-1210 1044,-1210 1044,-1204 1050,-1198 1056,-1198 1056,-1198 1214,-1198 1214,-1198 1220,-1198 1226,-1204 1226,-1210 1226,-1210 1226,-1224 1226,-1224 1226,-1230 1220,-1236 1214,-1236"/>
<text text-anchor="middle" x="1135" y="-1220.8" font-family="Courier,monospace" font-size="14.00" fill="#c9d1d9">MatrixCE_GUI</text>
<text text-anchor="middle" x="1135" y="-1205.8" font-family="Courier,monospace" font-size="14.00" fill="#c9d1d9">[Agent/BDI, API/Web]</text>
</g>
<!-- Aegis_Agents&#45;&gt;MatrixCE_GUI -->
<g id="edge5" class="edge">
<title>Aegis_Agents&#45;&gt;MatrixCE_GUI</title>
<path fill="none" stroke="#58a6ff" stroke-width="1.2" d="M224.52,-1135.04C235.22,-1137.77 245.9,-1140.76 256,-1144 344.36,-1172.33 355.21,-1226 448,-1226 448,-1226 448,-1226 897.5,-1226 942.95,-1226 993.28,-1224.32 1035.79,-1222.41"/>
<polygon fill="#58a6ff" stroke="#58a6ff" stroke-width="1.2" points="1036.04,-1225.2 1043.91,-1222.04 1035.79,-1219.61 1036.04,-1225.2"/>
<text text-anchor="middle" x="695.5" y="-1228.8" font-family="Courier,monospace" font-size="9.00" fill="#8b949e"> Agent/BDI </text>
</g>
<!-- MATRIX_GEN8_HOME -->
<g id="node8" class="node">
<title>MATRIX_GEN8_HOME</title>
<path fill="#161b22" stroke="#58a6ff" d="M1506,-1021C1506,-1021 1332,-1021 1332,-1021 1326,-1021 1320,-1015 1320,-1009 1320,-1009 1320,-995 1320,-995 1320,-989 1326,-983 1332,-983 1332,-983 1506,-983 1506,-983 1512,-983 1518,-989 1518,-995 1518,-995 1518,-1009 1518,-1009 1518,-1015 1512,-1021 1506,-1021"/>
<text text-anchor="middle" x="1419" y="-1005.8" font-family="Courier,monospace" font-size="14.00" fill="#c9d1d9">MATRIX_GEN8_HOME</text>
<text text-anchor="middle" x="1419" y="-990.8" font-family="Courier,monospace" font-size="14.00" fill="#c9d1d9">[Telemetry, Agent/BDI]</text>
</g>
<!-- Aegis_Agents&#45;&gt;MATRIX_GEN8_HOME -->
<g id="edge6" class="edge">
<title>Aegis_Agents&#45;&gt;MATRIX_GEN8_HOME</title>
<path fill="none" stroke="#58a6ff" stroke-width="1.2" d="M227.1,-1128.01C237.5,-1132.01 247.4,-1137.22 256,-1144 270.36,-1155.32 261.48,-1167.67 274,-1181 332.68,-1243.44 362.32,-1264 448,-1264 448,-1264 448,-1264 998,-1264 1099.68,-1264 1137.21,-1294.56 1226,-1245 1275.68,-1217.27 1276.79,-1193 1302,-1142 1314.72,-1116.28 1304.02,-1103.83 1320,-1080 1334.73,-1058.03 1357.59,-1039.32 1377.53,-1025.74"/>
<polygon fill="#58a6ff" stroke="#58a6ff" stroke-width="1.2" points="1379.32,-1027.91 1384.44,-1021.16 1376.23,-1023.25 1379.32,-1027.91"/>
<text text-anchor="middle" x="796" y="-1266.8" font-family="Courier,monospace" font-size="9.00" fill="#8b949e"> Agent/BDI </text>
</g>
<!-- mind&#45;palace -->
<g id="node9" class="node">
<title>mind&#45;palace</title>
<path fill="#161b22" stroke="#58a6ff" d="M1744.5,-768C1744.5,-768 1661.5,-768 1661.5,-768 1655.5,-768 1649.5,-762 1649.5,-756 1649.5,-756 1649.5,-742 1649.5,-742 1649.5,-736 1655.5,-730 1661.5,-730 1661.5,-730 1744.5,-730 1744.5,-730 1750.5,-730 1756.5,-736 1756.5,-742 1756.5,-742 1756.5,-756 1756.5,-756 1756.5,-762 1750.5,-768 1744.5,-768"/>
<text text-anchor="middle" x="1703" y="-752.8" font-family="Courier,monospace" font-size="14.00" fill="#c9d1d9">mind&#45;palace</text>
<text text-anchor="middle" x="1703" y="-737.8" font-family="Courier,monospace" font-size="14.00" fill="#c9d1d9">[Telemetry]</text>
</g>
<!-- Aegis_Agents&#45;&gt;mind&#45;palace -->
<g id="edge7" class="edge">
<title>Aegis_Agents&#45;&gt;mind&#45;palace</title>
<path fill="none" stroke="#58a6ff" stroke-width="1.2" d="M227.08,-1109.78C350.06,-1100.73 566.87,-1080.63 749,-1042 840.45,-1022.6 876.42,-1037.67 950,-980 962.24,-970.41 954.93,-958.43 968,-950 1016.5,-918.7 1168.92,-928.57 1226,-920 1259.97,-914.9 1268.85,-915 1302,-906 1435.24,-869.81 1466.55,-853.09 1594,-800 1614.78,-791.34 1637.37,-780.85 1656.48,-771.64"/>
<polygon fill="#58a6ff" stroke="#58a6ff" stroke-width="1.2" points="1657.92,-774.06 1663.9,-768.05 1655.48,-769.02 1657.92,-774.06"/>
<text text-anchor="middle" x="896.5" y="-1029.8" font-family="Courier,monospace" font-size="9.00" fill="#8b949e"> Telemetry </text>
</g>
<!-- mindpalace -->
<g id="node10" class="node">
<title>mindpalace</title>
<path fill="#161b22" stroke="#58a6ff" d="M2128,-863C2128,-863 1921,-863 1921,-863 1915,-863 1909,-857 1909,-851 1909,-851 1909,-837 1909,-837 1909,-831 1915,-825 1921,-825 1921,-825 2128,-825 2128,-825 2134,-825 2140,-831 2140,-837 2140,-837 2140,-851 2140,-851 2140,-857 2134,-863 2128,-863"/>
<text text-anchor="middle" x="2024.5" y="-847.8" font-family="Courier,monospace" font-size="14.00" fill="#c9d1d9">mindpalace</text>
<text text-anchor="middle" x="2024.5" y="-832.8" font-family="Courier,monospace" font-size="14.00" fill="#c9d1d9">[Orchestration, Telemetry]</text>
</g>
<!-- Aegis_Agents&#45;&gt;mindpalace -->
<g id="edge8" class="edge">
<title>Aegis_Agents&#45;&gt;mindpalace</title>
<path fill="none" stroke="#58a6ff" stroke-width="1.2" d="M227.14,-1124.66C237.99,-1129.17 247.99,-1135.42 256,-1144 292.81,-1183.41 245.16,-1218.43 274,-1264 319.93,-1336.56 362.13,-1348 448,-1348 448,-1348 448,-1348 1136,-1348 1172.98,-1348 1764.98,-1269.92 1794,-1247 1900.54,-1162.84 1835.28,-1078.01 1909,-964 1932.93,-927 1969.16,-891.35 1994.44,-868.66"/>
<polygon fill="#58a6ff" stroke="#58a6ff" stroke-width="1.2" points="1996.49,-870.59 2000.62,-863.18 1992.78,-866.4 1996.49,-870.59"/>
<text text-anchor="middle" x="997" y="-1350.8" font-family="Courier,monospace" font-size="9.00" fill="#8b949e"> Telemetry </text>
</g>
<!-- Nova -->
<g id="node11" class="node">
<title>Nova</title>
<path fill="#161b22" stroke="#58a6ff" d="M2329,-507C2329,-507 2246,-507 2246,-507 2240,-507 2234,-501 2234,-495 2234,-495 2234,-481 2234,-481 2234,-475 2240,-469 2246,-469 2246,-469 2329,-469 2329,-469 2335,-469 2341,-475 2341,-481 2341,-481 2341,-495 2341,-495 2341,-501 2335,-507 2329,-507"/>
<text text-anchor="middle" x="2287.5" y="-491.8" font-family="Courier,monospace" font-size="14.00" fill="#c9d1d9">Nova</text>
<text text-anchor="middle" x="2287.5" y="-476.8" font-family="Courier,monospace" font-size="14.00" fill="#c9d1d9">[Telemetry]</text>
</g>
<!-- Aegis_Agents&#45;&gt;Nova -->
<g id="edge9" class="edge">
<title>Aegis_Agents&#45;&gt;Nova</title>
<path fill="none" stroke="#58a6ff" stroke-width="1.2" d="M128.9,-1096.94C129.08,-1002.84 137.77,-580.13 274,-273 314.58,-181.5 347.9,-130 448,-130 448,-130 448,-130 998,-130 1252.19,-130 1933.7,-46.5 2140,-195 2231.73,-261.03 2269.32,-401.11 2281.56,-460.48"/>
<polygon fill="#58a6ff" stroke="#58a6ff" stroke-width="1.2" points="2278.87,-461.34 2283.18,-468.64 2284.36,-460.24 2278.87,-461.34"/>
<text text-anchor="middle" x="1135" y="-132.8" font-family="Courier,monospace" font-size="9.00" fill="#8b949e"> Telemetry </text>
</g>
<!-- openrouter_manager -->
<g id="node12" class="node">
<title>openrouter_manager</title>
<path fill="#161b22" stroke="#58a6ff" d="M1782,-1238C1782,-1238 1624,-1238 1624,-1238 1618,-1238 1612,-1232 1612,-1226 1612,-1226 1612,-1212 1612,-1212 1612,-1206 1618,-1200 1624,-1200 1624,-1200 1782,-1200 1782,-1200 1788,-1200 1794,-1206 1794,-1212 1794,-1212 1794,-1226 1794,-1226 1794,-1232 1788,-1238 1782,-1238"/>
<text text-anchor="middle" x="1703" y="-1222.8" font-family="Courier,monospace" font-size="14.00" fill="#c9d1d9">openrouter_manager</text>
<text text-anchor="middle" x="1703" y="-1207.8" font-family="Courier,monospace" font-size="14.00" fill="#c9d1d9">[Agent/BDI, API/Web]</text>
</g>
<!-- Aegis_Agents&#45;&gt;openrouter_manager -->
<g id="edge10" class="edge">
<title>Aegis_Agents&#45;&gt;openrouter_manager</title>
<path fill="none" stroke="#58a6ff" stroke-width="1.2" d="M227.12,-1125.54C237.84,-1129.93 247.81,-1135.91 256,-1144 281.01,-1168.69 253.49,-1192.46 274,-1221 324.7,-1291.53 361.14,-1310 448,-1310 448,-1310 448,-1310 1136,-1310 1225.17,-1310 1466.79,-1265.42 1603.78,-1238.66"/>
<polygon fill="#58a6ff" stroke="#58a6ff" stroke-width="1.2" points="1604.52,-1241.37 1611.84,-1237.09 1603.45,-1235.88 1604.52,-1241.37"/>
<text text-anchor="middle" x="896.5" y="-1312.8" font-family="Courier,monospace" font-size="9.00" fill="#8b949e"> Agent/BDI </text>
</g>
<!-- sims&#45;java&#45;neo&#45;fx -->
<g id="node13" class="node">
<title>sims&#45;java&#45;neo&#45;fx</title>
<path fill="#161b22" stroke="#58a6ff" d="M2572,-718C2572,-718 2447,-718 2447,-718 2441,-718 2435,-712 2435,-706 2435,-706 2435,-692 2435,-692 2435,-686 2441,-680 2447,-680 2447,-680 2572,-680 2572,-680 2578,-680 2584,-686 2584,-692 2584,-692 2584,-706 2584,-706 2584,-712 2578,-718 2572,-718"/>
<text text-anchor="middle" x="2509.5" y="-702.8" font-family="Courier,monospace" font-size="14.00" fill="#c9d1d9">sims&#45;java&#45;neo&#45;fx</text>
<text text-anchor="middle" x="2509.5" y="-687.8" font-family="Courier,monospace" font-size="14.00" fill="#c9d1d9">[Telemetry]</text>
</g>
<!-- Aegis_Agents&#45;&gt;sims&#45;java&#45;neo&#45;fx -->
<g id="edge11" class="edge">
<title>Aegis_Agents&#45;&gt;sims&#45;java&#45;neo&#45;fx</title>
<path fill="none" stroke="#58a6ff" stroke-width="1.2" d="M227.16,-1124.23C238.07,-1128.8 248.08,-1135.18 256,-1144 280.49,-1171.28 254.43,-1277 274,-1308 319.24,-1379.66 363.25,-1386 448,-1386 448,-1386 448,-1386 998,-1386 1613.29,-1386 1815.87,-1370.65 2341,-1050 2378.69,-1026.99 2394.26,-1023.85 2417,-986 2436.66,-953.27 2424.48,-938.7 2435,-902 2453.47,-837.58 2481.99,-764.13 2497.51,-725.68"/>
<polygon fill="#58a6ff" stroke="#58a6ff" stroke-width="1.2" points="2500.21,-726.49 2500.62,-718.03 2495.02,-724.39 2500.21,-726.49"/>
<text text-anchor="middle" x="1273" y="-1386.8" font-family="Courier,monospace" font-size="9.00" fill="#8b949e"> Telemetry </text>
</g>
<!-- sims&#45;javafx&#45;neo -->
<g id="node14" class="node">
<title>sims&#45;javafx&#45;neo</title>
<path fill="#161b22" stroke="#58a6ff" d="M2806,-480C2806,-480 2690,-480 2690,-480 2684,-480 2678,-474 2678,-468 2678,-468 2678,-454 2678,-454 2678,-448 2684,-442 2690,-442 2690,-442 2806,-442 2806,-442 2812,-442 2818,-448 2818,-454 2818,-454 2818,-468 2818,-468 2818,-474 2812,-480 2806,-480"/>
<text text-anchor="middle" x="2748" y="-464.8" font-family="Courier,monospace" font-size="14.00" fill="#c9d1d9">sims&#45;javafx&#45;neo</text>
<text text-anchor="middle" x="2748" y="-449.8" font-family="Courier,monospace" font-size="14.00" fill="#c9d1d9">[Telemetry]</text>
</g>
<!-- Aegis_Agents&#45;&gt;sims&#45;javafx&#45;neo -->
<g id="edge12" class="edge">
<title>Aegis_Agents&#45;&gt;sims&#45;javafx&#45;neo</title>
<path fill="none" stroke="#58a6ff" stroke-width="1.2" d="M130.31,-1096.8C138.63,-978.05 186.68,-343.14 274,-172 323.42,-75.14 339.26,0 448,0 448,0 448,0 2510.5,0 2706.72,0 2740.26,-334.73 2745.89,-433.74"/>
<polygon fill="#58a6ff" stroke="#58a6ff" stroke-width="1.2" points="2743.09,-433.94 2746.31,-441.78 2748.69,-433.64 2743.09,-433.94"/>
<text text-anchor="middle" x="1419" y="-2.8" font-family="Courier,monospace" font-size="9.00" fill="#8b949e"> Telemetry </text>
</g>
<!-- SimsMerged -->
<g id="node15" class="node">
<title>SimsMerged</title>
<path fill="#161b22" stroke="#58a6ff" d="M3098,-718C3098,-718 2924,-718 2924,-718 2918,-718 2912,-712 2912,-706 2912,-706 2912,-692 2912,-692 2912,-686 2918,-680 2924,-680 2924,-680 3098,-680 3098,-680 3104,-680 3110,-686 3110,-692 3110,-692 3110,-706 3110,-706 3110,-712 3104,-718 3098,-718"/>
<text text-anchor="middle" x="3011" y="-702.8" font-family="Courier,monospace" font-size="14.00" fill="#c9d1d9">SimsMerged</text>
<text text-anchor="middle" x="3011" y="-687.8" font-family="Courier,monospace" font-size="14.00" fill="#c9d1d9">[Agent/BDI, Telemetry]</text>
</g>
<!-- Aegis_Agents&#45;&gt;SimsMerged -->
<g id="edge13" class="edge">
<title>Aegis_Agents&#45;&gt;SimsMerged</title>
<path fill="none" stroke="#58a6ff" stroke-width="1.2" d="M227.03,-1123.93C238.04,-1128.54 248.11,-1135.01 256,-1144 286.46,-1178.71 249.22,-1312.04 274,-1351 319,-1421.77 364.14,-1424 448,-1424 448,-1424 448,-1424 2749,-1424 2760.16,-1424 2891.79,-1279.28 2894,-1275 2993.45,-1082.17 3007.72,-812.15 3009.7,-726.32"/>
<polygon fill="#58a6ff" stroke="#58a6ff" stroke-width="1.2" points="3012.51,-726.19 3009.87,-718.14 3006.91,-726.08 3012.51,-726.19"/>
<text text-anchor="middle" x="1565" y="-1426.8" font-family="Courier,monospace" font-size="9.00" fill="#8b949e"> Agent/BDI </text>
</g>
<!-- Chrisalunlloyd2&#45;sudo&#45;&gt;H2OIDE -->
<g id="edge14" class="edge">
<title>Chrisalunlloyd2&#45;sudo&#45;&gt;H2OIDE</title>
<path fill="none" stroke="#58a6ff" stroke-width="1.2" d="M467.98,-932.73C511.43,-886.18 622.14,-767.54 670.87,-715.32"/>
<polygon fill="#58a6ff" stroke="#58a6ff" stroke-width="1.2" points="673.08,-717.05 676.49,-709.29 668.99,-713.23 673.08,-717.05"/>
<text text-anchor="middle" x="595" y="-823.8" font-family="Courier,monospace" font-size="9.00" fill="#8b949e"> Telemetry </text>
</g>
<!-- Chrisalunlloyd2&#45;sudo&#45;&gt;H2OMatrixCE -->
<g id="edge15" class="edge">
<title>Chrisalunlloyd2&#45;sudo&#45;&gt;H2OMatrixCE</title>
<path fill="none" stroke="#58a6ff" stroke-width="1.2" d="M543.21,-932.81C544.9,-931.31 546.5,-929.71 548,-928 572.31,-900.26 553.2,-797.59 566,-763 586.75,-706.93 598.47,-692.99 642,-652 698.14,-599.13 779.93,-562.44 835.3,-541.83"/>
<polygon fill="#58a6ff" stroke="#58a6ff" stroke-width="1.2" points="836.39,-544.41 842.93,-539.03 834.46,-539.16 836.39,-544.41"/>
<text text-anchor="middle" x="695.5" y="-654.8" font-family="Courier,monospace" font-size="9.00" fill="#8b949e"> Telemetry </text>
</g>
<!-- Chrisalunlloyd2&#45;sudo&#45;&gt;MasterLogs -->
<g id="edge16" class="edge">
<title>Chrisalunlloyd2&#45;sudo&#45;&gt;MasterLogs</title>
<path fill="none" stroke="#58a6ff" stroke-width="1.2" d="M543.3,-932.89C544.96,-931.37 546.53,-929.74 548,-928 585.72,-883.18 544.01,-719.3 566,-665 601.5,-577.34 824.68,-406.45 843,-397 915.83,-359.42 1011.96,-353.66 1073.4,-354.58"/>
<polygon fill="#58a6ff" stroke="#58a6ff" stroke-width="1.2" points="1073.41,-357.38 1081.46,-354.74 1073.52,-351.78 1073.41,-357.38"/>
<text text-anchor="middle" x="796" y="-454.8" font-family="Courier,monospace" font-size="9.00" fill="#8b949e"> Telemetry </text>
</g>
<!-- Chrisalunlloyd2&#45;sudo&#45;&gt;MatrixCE_GUI -->
<g id="edge17" class="edge">
<title>Chrisalunlloyd2&#45;sudo&#45;&gt;MatrixCE_GUI</title>
<path fill="none" stroke="#58a6ff" stroke-width="1.2" d="M459.92,-971.14C483.95,-1015.02 550.18,-1121.73 642,-1156 711.96,-1182.11 913.11,-1200.85 1035.47,-1210.21"/>
<polygon fill="#58a6ff" stroke="#58a6ff" stroke-width="1.2" points="1035.58,-1213.03 1043.77,-1210.84 1036.01,-1207.45 1035.58,-1213.03"/>
<text text-anchor="middle" x="796" y="-1191.8" font-family="Courier,monospace" font-size="9.00" fill="#8b949e"> Agent/BDI </text>
</g>
<!-- Chrisalunlloyd2&#45;sudo&#45;&gt;MATRIX_GEN8_HOME -->
<g id="edge18" class="edge">
<title>Chrisalunlloyd2&#45;sudo&#45;&gt;MATRIX_GEN8_HOME</title>
<path fill="none" stroke="#58a6ff" stroke-width="1.2" d="M548.29,-952.62C649.19,-953.75 810.7,-956.95 950,-966 1081.07,-974.51 1112.96,-987.07 1244,-996 1265.89,-997.49 1289.35,-998.62 1311.74,-999.47"/>
<polygon fill="#58a6ff" stroke="#58a6ff" stroke-width="1.2" points="1311.84,-1002.28 1319.94,-999.77 1312.04,-996.68 1311.84,-1002.28"/>
<text text-anchor="middle" x="896.5" y="-968.8" font-family="Courier,monospace" font-size="9.00" fill="#8b949e"> Agent/BDI </text>
</g>
<!-- Chrisalunlloyd2&#45;sudo&#45;&gt;mind&#45;palace -->
<g id="edge19" class="edge">
<title>Chrisalunlloyd2&#45;sudo&#45;&gt;mind&#45;palace</title>
<path fill="none" stroke="#58a6ff" stroke-width="1.2" d="M548.24,-937.24C666.02,-919.6 869.38,-889.28 1044,-864 1254.57,-833.52 1308.93,-836.45 1518,-797 1559.62,-789.15 1605.74,-777.11 1641.39,-767.05"/>
<polygon fill="#58a6ff" stroke="#58a6ff" stroke-width="1.2" points="1642.36,-769.69 1649.29,-764.81 1640.83,-764.3 1642.36,-769.69"/>
<text text-anchor="middle" x="997" y="-876.8" font-family="Courier,monospace" font-size="9.00" fill="#8b949e"> Telemetry </text>
</g>
<!-- Chrisalunlloyd2&#45;sudo&#45;&gt;mindpalace -->
<g id="edge20" class="edge">
<title>Chrisalunlloyd2&#45;sudo&#45;&gt;mindpalace</title>
<path fill="none" stroke="#58a6ff" stroke-width="1.2" d="M548.26,-965.4C775.75,-995.41 1333.25,-1062.91 1518,-1030 1608.8,-1013.82 1859.82,-912.14 1970.22,-866.33"/>
<polygon fill="#58a6ff" stroke="#58a6ff" stroke-width="1.2" points="1971.61,-868.78 1977.92,-863.13 1969.46,-863.61 1971.61,-868.78"/>
<text text-anchor="middle" x="1135" y="-1035.8" font-family="Courier,monospace" font-size="9.00" fill="#8b949e"> Telemetry </text>
</g>
<!-- Chrisalunlloyd2&#45;sudo&#45;&gt;Nova -->
<g id="edge21" class="edge">
<title>Chrisalunlloyd2&#45;sudo&#45;&gt;Nova</title>
<path fill="none" stroke="#58a6ff" stroke-width="1.2" d="M543.34,-932.92C544.99,-931.39 546.55,-929.75 548,-928 572.54,-898.34 554.04,-618.59 566,-582 585.15,-523.42 599.44,-510.59 642,-466 765.5,-336.61 800.14,-291.79 968,-230 1095.19,-183.18 1136.47,-206 1272,-206 1272,-206 1272,-206 1852.5,-206 1982.85,-206 2049.47,-170.21 2140,-264 2174.1,-299.33 2133.09,-330.68 2158,-373 2174.69,-401.35 2191.32,-397.24 2216,-419 2231.82,-432.95 2248.73,-449.44 2262.03,-462.81"/>
<polygon fill="#58a6ff" stroke="#58a6ff" stroke-width="1.2" points="2260.25,-464.99 2267.86,-468.71 2264.23,-461.05 2260.25,-464.99"/>
<text text-anchor="middle" x="1273" y="-208.8" font-family="Courier,monospace" font-size="9.00" fill="#8b949e"> Telemetry </text>
</g>
<!-- Chrisalunlloyd2&#45;sudo&#45;&gt;openrouter_manager -->
<g id="edge22" class="edge">
<title>Chrisalunlloyd2&#45;sudo&#45;&gt;openrouter_manager</title>
<path fill="none" stroke="#58a6ff" stroke-width="1.2" d="M462.04,-971.08C480.71,-999 519.41,-1050.53 566,-1077 645.43,-1122.13 676.78,-1105.61 767,-1120 926.37,-1145.41 1397.36,-1190.63 1603.51,-1209.9"/>
<polygon fill="#58a6ff" stroke="#58a6ff" stroke-width="1.2" points="1603.4,-1212.7 1611.63,-1210.66 1603.92,-1207.12 1603.4,-1212.7"/>
<text text-anchor="middle" x="997" y="-1154.8" font-family="Courier,monospace" font-size="9.00" fill="#8b949e"> Agent/BDI </text>
</g>
<!-- Chrisalunlloyd2&#45;sudo&#45;&gt;sims&#45;java&#45;neo&#45;fx -->
<g id="edge23" class="edge">
<title>Chrisalunlloyd2&#45;sudo&#45;&gt;sims&#45;java&#45;neo&#45;fx</title>
<path fill="none" stroke="#58a6ff" stroke-width="1.2" d="M512.29,-971.05C529.59,-975.98 548.44,-981.01 566,-985 709.77,-1017.65 905.09,-1037.52 1044,-1047 1563.72,-1082.47 1713.56,-1199.58 2216,-1062 2316.13,-1034.58 2350.32,-1022.57 2417,-943 2424.34,-934.25 2477.03,-787.48 2498.96,-725.88"/>
<polygon fill="#58a6ff" stroke="#58a6ff" stroke-width="1.2" points="2501.68,-726.6 2501.72,-718.12 2496.4,-724.72 2501.68,-726.6"/>
<text text-anchor="middle" x="1419" y="-1106.8" font-family="Courier,monospace" font-size="9.00" fill="#8b949e"> Telemetry </text>
</g>
<!-- Chrisalunlloyd2&#45;sudo&#45;&gt;sims&#45;javafx&#45;neo -->
<g id="edge24" class="edge">
<title>Chrisalunlloyd2&#45;sudo&#45;&gt;sims&#45;javafx&#45;neo</title>
<path fill="none" stroke="#58a6ff" stroke-width="1.2" d="M543.37,-932.94C545.01,-931.41 546.56,-929.76 548,-928 579.47,-889.52 551.88,-528.66 566,-481 584.79,-417.56 595.27,-399.84 642,-353 788.32,-206.33 845.24,-175.47 1044,-117 1277.66,-48.27 1896.93,-103.64 2140,-119 2337.55,-131.49 2394.71,-96.11 2584,-154 2621.11,-165.35 2635.38,-167 2660,-197 2719.01,-268.92 2738.48,-382.22 2744.5,-433.8"/>
<polygon fill="#58a6ff" stroke="#58a6ff" stroke-width="1.2" points="2741.72,-434.18 2745.38,-441.82 2747.29,-433.56 2741.72,-434.18"/>
<text text-anchor="middle" x="1565" y="-89.8" font-family="Courier,monospace" font-size="9.00" fill="#8b949e"> Telemetry </text>
</g>
<!-- Chrisalunlloyd2&#45;sudo&#45;&gt;SimsMerged -->
<g id="edge25" class="edge">
<title>Chrisalunlloyd2&#45;sudo&#45;&gt;SimsMerged</title>
<path fill="none" stroke="#58a6ff" stroke-width="1.2" d="M487.67,-971.07C510.02,-981.82 539.14,-994.89 566,-1004 598.87,-1015.15 607.89,-1015.56 642,-1022 1363.26,-1158.18 1552.5,-1174 2286.5,-1174 2286.5,-1174 2286.5,-1174 2749,-1174 2954.72,-1174 2999.42,-827.56 3008.09,-726.41"/>
<polygon fill="#58a6ff" stroke="#58a6ff" stroke-width="1.2" points="3010.9,-726.41 3008.76,-718.21 3005.32,-725.95 3010.9,-726.41"/>
<text text-anchor="middle" x="1703" y="-1170.8" font-family="Courier,monospace" font-size="9.00" fill="#8b949e"> Agent/BDI </text>
</g>
<!-- H2OIDE&#45;&gt;H2OMatrixCE -->
<g id="edge26" class="edge">
<title>H2OIDE&#45;&gt;H2OMatrixCE</title>
<path fill="none" stroke="#58a6ff" stroke-width="1.2" d="M717.94,-670.83C731.84,-658.49 750.37,-642.16 767,-628 800.28,-599.65 839.07,-567.81 865.26,-546.5"/>
<polygon fill="#58a6ff" stroke="#58a6ff" stroke-width="1.2" points="867.19,-548.53 871.63,-541.31 863.66,-544.19 867.19,-548.53"/>
<text text-anchor="middle" x="796" y="-630.8" font-family="Courier,monospace" font-size="9.00" fill="#8b949e"> Telemetry </text>
</g>
<!-- H2OIDE&#45;&gt;MasterLogs -->
<g id="edge27" class="edge">
<title>H2OIDE&#45;&gt;MasterLogs</title>
<path fill="none" stroke="#58a6ff" stroke-width="1.2" d="M706.4,-670.7C736.48,-614.45 833.11,-450.91 968,-391 1001.17,-376.27 1040.98,-368.07 1073.3,-363.53"/>
<polygon fill="#58a6ff" stroke="#58a6ff" stroke-width="1.2" points="1073.79,-366.29 1081.35,-362.45 1073.05,-360.74 1073.79,-366.29"/>
<text text-anchor="middle" x="896.5" y="-481.8" font-family="Courier,monospace" font-size="9.00" fill="#8b949e"> Telemetry </text>
</g>
<!-- H2OIDE&#45;&gt;MATRIX_GEN8_HOME -->
<g id="edge28" class="edge">
<title>H2OIDE&#45;&gt;MATRIX_GEN8_HOME</title>
<path fill="none" stroke="#58a6ff" stroke-width="1.2" d="M701.78,-709.37C710.64,-738.46 731.15,-793.48 767,-826 865.22,-915.12 916.41,-900.78 1044,-937 1132.7,-962.18 1236.15,-979.25 1311.73,-989.56"/>
<polygon fill="#58a6ff" stroke="#58a6ff" stroke-width="1.2" points="1311.58,-992.36 1319.88,-990.66 1312.33,-986.81 1311.58,-992.36"/>
<text text-anchor="middle" x="997" y="-933.8" font-family="Courier,monospace" font-size="9.00" fill="#8b949e"> Telemetry </text>
</g>
<!-- H2OIDE&#45;&gt;mind&#45;palace -->
<g id="edge29" class="edge">
<title>H2OIDE&#45;&gt;mind&#45;palace</title>
<path fill="none" stroke="#58a6ff" stroke-width="1.2" d="M703.75,-709.01C713.88,-732.52 734.73,-771.46 767,-788 808.32,-809.18 943.54,-824.03 1518,-776 1559.43,-772.54 1605.73,-765.73 1641.52,-759.81"/>
<polygon fill="#58a6ff" stroke="#58a6ff" stroke-width="1.2" points="1642.03,-762.57 1649.46,-758.49 1641.11,-757.04 1642.03,-762.57"/>
<text text-anchor="middle" x="1135" y="-808.8" font-family="Courier,monospace" font-size="9.00" fill="#8b949e"> Telemetry </text>
</g>
<!-- H2OIDE&#45;&gt;mindpalace -->
<g id="edge30" class="edge">
<title>H2OIDE&#45;&gt;mindpalace</title>
<path fill="none" stroke="#58a6ff" stroke-width="1.2" d="M716.34,-709.11C729.6,-720.67 748.02,-734.57 767,-742 958.14,-816.81 1023.53,-759.32 1226,-793 1365.24,-816.16 1395.7,-846.57 1536,-862 1561.62,-864.82 1572.76,-876.61 1594,-862 1612.43,-849.32 1593.57,-827.68 1612,-815 1678.64,-769.16 1716.13,-793.09 1794,-815 1803.03,-817.54 1803.09,-823.08 1812,-826 1839.93,-835.15 1870.98,-840.35 1900.5,-843.17"/>
<polygon fill="#58a6ff" stroke="#58a6ff" stroke-width="1.2" points="1900.57,-845.99 1908.78,-843.9 1901.06,-840.41 1900.57,-845.99"/>
<text text-anchor="middle" x="1273" y="-810.8" font-family="Courier,monospace" font-size="9.00" fill="#8b949e"> Telemetry </text>
</g>
<!-- H2OIDE&#45;&gt;Nova -->
<g id="edge31" class="edge">
<title>H2OIDE&#45;&gt;Nova</title>
<path fill="none" stroke="#58a6ff" stroke-width="1.2" d="M749.01,-676.36C855.73,-649.25 1105.98,-588.84 1320,-561 1440.94,-545.27 1472.41,-555.5 1594,-546 1734.29,-535.04 1768.79,-525.95 1909,-514 2020.56,-504.49 2150.89,-496.12 2225.56,-491.59"/>
<polygon fill="#58a6ff" stroke="#58a6ff" stroke-width="1.2" points="2226.12,-494.36 2233.94,-491.08 2225.78,-488.77 2226.12,-494.36"/>
<text text-anchor="middle" x="1419" y="-563.8" font-family="Courier,monospace" font-size="9.00" fill="#8b949e"> Telemetry </text>
</g>
<!-- H2OIDE&#45;&gt;sims&#45;java&#45;neo&#45;fx -->
<g id="edge32" class="edge">
<title>H2OIDE&#45;&gt;sims&#45;java&#45;neo&#45;fx</title>
<path fill="none" stroke="#58a6ff" stroke-width="1.2" d="M749.35,-691.29C847.03,-693.59 1062.43,-698.34 1244,-700 1739.54,-704.53 1863.44,-696.17 2359,-695 2384.78,-694.94 2391.23,-694.44 2417,-695 2420.13,-695.07 2423.32,-695.15 2426.54,-695.24"/>
<polygon fill="#58a6ff" stroke="#58a6ff" stroke-width="1.2" points="2426.52,-698.04 2434.6,-695.49 2426.69,-692.45 2426.52,-698.04"/>
<text text-anchor="middle" x="1565" y="-703.8" font-family="Courier,monospace" font-size="9.00" fill="#8b949e"> Telemetry </text>
</g>
<!-- H2OIDE&#45;&gt;sims&#45;javafx&#45;neo -->
<g id="edge33" class="edge">
<title>H2OIDE&#45;&gt;sims&#45;javafx&#45;neo</title>
<path fill="none" stroke="#58a6ff" stroke-width="1.2" d="M744.68,-670.99C746.26,-669.45 747.71,-667.79 749,-666 771.19,-635.16 752.91,-531.28 767,-496 787.58,-444.49 797.82,-429.18 843,-397 892.81,-361.52 1444.03,-168 1564,-168 1564,-168 1564,-168 2510.5,-168 2592.47,-168 2613.82,-208.28 2660,-276 2678.1,-302.54 2665.61,-316.36 2678,-346 2691.59,-378.51 2713.23,-412.77 2728.65,-435.36"/>
<polygon fill="#58a6ff" stroke="#58a6ff" stroke-width="1.2" points="2726.37,-436.98 2733.22,-441.97 2730.98,-433.8 2726.37,-436.98"/>
<text text-anchor="middle" x="1703" y="-170.8" font-family="Courier,monospace" font-size="9.00" fill="#8b949e"> Telemetry </text>
</g>
<!-- H2OIDE&#45;&gt;SimsMerged -->
<g id="edge34" class="edge">
<title>H2OIDE&#45;&gt;SimsMerged</title>
<path fill="none" stroke="#58a6ff" stroke-width="1.2" d="M749.04,-703.11C755.07,-704.26 761.15,-705.27 767,-706 781.51,-707.82 879.99,-709.55 1044,-712 1132.88,-713.33 1155.11,-713.56 1244,-714 1365.78,-714.61 1396.65,-724.19 1518,-714 1831.52,-687.69 1906.09,-650.28 2216,-596 2292.08,-582.67 2309.76,-565 2387,-565 2387,-565 2387,-565 2749,-565 2843.67,-565 2938.45,-635.63 2983.28,-674.33"/>
<polygon fill="#58a6ff" stroke="#58a6ff" stroke-width="1.2" points="2981.66,-676.64 2989.52,-679.8 2985.35,-672.43 2981.66,-676.64"/>
<text text-anchor="middle" x="1851.5" y="-678.8" font-family="Courier,monospace" font-size="9.00" fill="#8b949e"> Telemetry </text>
</g>
<!-- H2OMatrixCE&#45;&gt;MasterLogs -->
<g id="edge35" class="edge">
<title>H2OMatrixCE&#45;&gt;MasterLogs</title>
<path fill="none" stroke="#58a6ff" stroke-width="1.2" d="M904.88,-502.6C915.28,-477.82 936.55,-435.26 968,-411 976.76,-404.25 1029.67,-387.92 1073.43,-375.15"/>
<polygon fill="#58a6ff" stroke="#58a6ff" stroke-width="1.2" points="1074.31,-377.82 1081.21,-372.9 1072.74,-372.44 1074.31,-377.82"/>
<text text-anchor="middle" x="997" y="-413.8" font-family="Courier,monospace" font-size="9.00" fill="#8b949e"> Telemetry </text>
</g>
<!-- H2OMatrixCE&#45;&gt;MATRIX_GEN8_HOME -->
<g id="edge36" class="edge">
<title>H2OMatrixCE&#45;&gt;MATRIX_GEN8_HOME</title>
<path fill="none" stroke="#58a6ff" stroke-width="1.2" d="M901.89,-541.01C914.83,-593.15 957.44,-740.23 1044,-826 1091.29,-872.85 1266.48,-944.24 1359.34,-979.99"/>
<polygon fill="#58a6ff" stroke="#58a6ff" stroke-width="1.2" points="1358.5,-982.66 1366.97,-982.92 1360.5,-977.43 1358.5,-982.66"/>
<text text-anchor="middle" x="1135" y="-925.8" font-family="Courier,monospace" font-size="9.00" fill="#8b949e"> Telemetry </text>
</g>
<!-- H2OMatrixCE&#45;&gt;mind&#45;palace -->
<g id="edge37" class="edge">
<title>H2OMatrixCE&#45;&gt;mind&#45;palace</title>
<path fill="none" stroke="#58a6ff" stroke-width="1.2" d="M906.81,-541.05C918.18,-562.2 939.5,-595.63 968,-613 1025.64,-648.14 1475.68,-716.17 1641.19,-740.27"/>
<polygon fill="#58a6ff" stroke="#58a6ff" stroke-width="1.2" points="1641,-743.08 1649.32,-741.46 1641.81,-737.53 1641,-743.08"/>
<text text-anchor="middle" x="1273" y="-688.8" font-family="Courier,monospace" font-size="9.00" fill="#8b949e"> Telemetry </text>
</g>
<!-- H2OMatrixCE&#45;&gt;mindpalace -->
<g id="edge38" class="edge">
<title>H2OMatrixCE&#45;&gt;mindpalace</title>
<path fill="none" stroke="#58a6ff" stroke-width="1.2" d="M950.16,-532.92C956.17,-534.02 962.21,-535.08 968,-536 1002.63,-541.51 1565.6,-595.43 1594,-616 1607.53,-625.8 1599.48,-637.93 1612,-649 1677.16,-706.63 1721.29,-673.25 1794,-721 1803.46,-727.21 1802.81,-732.4 1812,-739 1860.46,-773.83 1922.2,-803 1966.45,-821.69"/>
<polygon fill="#58a6ff" stroke="#58a6ff" stroke-width="1.2" points="1965.48,-824.32 1973.94,-824.82 1967.64,-819.15 1965.48,-824.32"/>
<text text-anchor="middle" x="1419" y="-601.8" font-family="Courier,monospace" font-size="9.00" fill="#8b949e"> Telemetry </text>
</g>
<!-- H2OMatrixCE&#45;&gt;Nova -->
<g id="edge39" class="edge">
<title>H2OMatrixCE&#45;&gt;Nova</title>
<path fill="none" stroke="#58a6ff" stroke-width="1.2" d="M950.11,-510.7C956.12,-509.66 962.18,-508.73 968,-508 1383.26,-456.07 1490.51,-476.24 1909,-474 2045.44,-473.27 2080.21,-460.65 2216,-474 2219.19,-474.31 2222.45,-474.71 2225.74,-475.16"/>
<polygon fill="#58a6ff" stroke="#58a6ff" stroke-width="1.2" points="2225.6,-477.97 2233.93,-476.39 2226.43,-472.43 2225.6,-477.97"/>
<text text-anchor="middle" x="1565" y="-474.8" font-family="Courier,monospace" font-size="9.00" fill="#8b949e"> Telemetry </text>
</g>
<!-- H2OMatrixCE&#45;&gt;sims&#45;java&#45;neo&#45;fx -->
<g id="edge40" class="edge">
<title>H2OMatrixCE&#45;&gt;sims&#45;java&#45;neo&#45;fx</title>
<path fill="none" stroke="#58a6ff" stroke-width="1.2" d="M950.23,-519.84C1156.47,-511.83 1908.55,-486.98 2140,-540 2244.66,-563.97 2260.11,-600.18 2359,-642 2388.11,-654.31 2420.89,-666.94 2448.31,-677.17"/>
<polygon fill="#58a6ff" stroke="#58a6ff" stroke-width="1.2" points="2447.42,-679.83 2455.9,-679.99 2449.38,-674.58 2447.42,-679.83"/>
<text text-anchor="middle" x="1703" y="-511.8" font-family="Courier,monospace" font-size="9.00" fill="#8b949e"> Telemetry </text>
</g>
<!-- H2OMatrixCE&#45;&gt;sims&#45;javafx&#45;neo -->
<g id="edge41" class="edge">
<title>H2OMatrixCE&#45;&gt;sims&#45;javafx&#45;neo</title>
<path fill="none" stroke="#58a6ff" stroke-width="1.2" d="M949.7,-502.94C955.84,-500.86 962.04,-498.84 968,-497 1001.38,-486.71 1009.86,-484.39 1044,-477 1294.3,-422.8 1356.82,-401.63 1612,-380 1692.6,-373.17 1713.13,-378.25 1794,-380 1947.89,-383.33 1986.52,-383.34 2140,-395 2330.96,-409.51 2554.7,-436.41 2669.85,-450.99"/>
<polygon fill="#58a6ff" stroke="#58a6ff" stroke-width="1.2" points="2669.66,-453.78 2677.95,-452.01 2670.37,-448.23 2669.66,-453.78"/>
<text text-anchor="middle" x="1851.5" y="-384.8" font-family="Courier,monospace" font-size="9.00" fill="#8b949e"> Telemetry </text>
</g>
<!-- H2OMatrixCE&#45;&gt;SimsMerged -->
<g id="edge42" class="edge">
<title>H2OMatrixCE&#45;&gt;SimsMerged</title>
<path fill="none" stroke="#58a6ff" stroke-width="1.2" d="M940.43,-502.97C944.06,-500.05 947.35,-496.74 950,-493 977.88,-453.65 942.74,-427.08 968,-386 1047.86,-256.1 1411.52,-46 1564,-46 1564,-46 1564,-46 2749,-46 2886.1,-46 2983.52,-548.59 3005.37,-671.92"/>
<polygon fill="#58a6ff" stroke="#58a6ff" stroke-width="1.2" points="3002.61,-672.42 3006.75,-679.81 3008.13,-671.45 3002.61,-672.42"/>
<text text-anchor="middle" x="2024.5" y="-48.8" font-family="Courier,monospace" font-size="9.00" fill="#8b949e"> Telemetry </text>
</g>
<!-- Kernel_Pedagogy -->
<g id="node5" class="node">
<title>Kernel_Pedagogy</title>
<path fill="#161b22" stroke="#58a6ff" d="M1761,-862C1761,-862 1645,-862 1645,-862 1639,-862 1633,-856 1633,-850 1633,-850 1633,-836 1633,-836 1633,-830 1639,-824 1645,-824 1645,-824 1761,-824 1761,-824 1767,-824 1773,-830 1773,-836 1773,-836 1773,-850 1773,-850 1773,-856 1767,-862 1761,-862"/>
<text text-anchor="middle" x="1703" y="-846.8" font-family="Courier,monospace" font-size="14.00" fill="#c9d1d9">Kernel_Pedagogy</text>
<text text-anchor="middle" x="1703" y="-831.8" font-family="Courier,monospace" font-size="14.00" fill="#c9d1d9">[Orchestration]</text>
</g>
<!-- Kernel_Pedagogy&#45;&gt;mindpalace -->
<g id="edge43" class="edge">
<title>Kernel_Pedagogy&#45;&gt;mindpalace</title>
<path fill="none" stroke="#58a6ff" stroke-width="1.2" d="M1773.1,-848.88C1786.01,-849.76 1799.41,-850.53 1812,-851 1840.69,-852.06 1871.58,-851.82 1900.64,-850.98"/>
<polygon fill="#58a6ff" stroke="#58a6ff" stroke-width="1.2" points="1900.88,-853.77 1908.79,-850.72 1900.71,-848.17 1900.88,-853.77"/>
<text text-anchor="middle" x="1851.5" y="-853.8" font-family="Courier,monospace" font-size="9.00" fill="#8b949e"> Orchestration </text>
</g>
<!-- MasterLogs&#45;&gt;MATRIX_GEN8_HOME -->
<g id="edge44" class="edge">
<title>MasterLogs&#45;&gt;MATRIX_GEN8_HOME</title>
<path fill="none" stroke="#58a6ff" stroke-width="1.2" d="M1140.02,-377.31C1159.35,-470.17 1241.94,-866.55 1244,-869 1261.88,-890.2 1278.63,-877.08 1302,-892 1339.15,-915.72 1374.85,-952.34 1396.6,-976.73"/>
<polygon fill="#58a6ff" stroke="#58a6ff" stroke-width="1.2" points="1394.7,-978.81 1402.09,-982.96 1398.9,-975.1 1394.7,-978.81"/>
<text text-anchor="middle" x="1273" y="-894.8" font-family="Courier,monospace" font-size="9.00" fill="#8b949e"> Telemetry </text>
</g>
<!-- MasterLogs&#45;&gt;mind&#45;palace -->
<g id="edge45" class="edge">
<title>MasterLogs&#45;&gt;mind&#45;palace</title>
<path fill="none" stroke="#58a6ff" stroke-width="1.2" d="M1143.84,-377.17C1164.66,-425.56 1226.27,-553.27 1320,-616 1395.08,-666.25 1432.37,-633.2 1518,-662 1553.07,-673.8 1564.09,-674.22 1594,-696 1603.67,-703.04 1602.09,-709.3 1612,-716 1621.1,-722.15 1631.48,-727.33 1641.89,-731.62"/>
<polygon fill="#58a6ff" stroke="#58a6ff" stroke-width="1.2" points="1640.98,-734.27 1649.45,-734.58 1643.03,-729.06 1640.98,-734.27"/>
<text text-anchor="middle" x="1419" y="-664.8" font-family="Courier,monospace" font-size="9.00" fill="#8b949e"> Telemetry </text>
</g>
<!-- MasterLogs&#45;&gt;mindpalace -->
<g id="edge46" class="edge">
<title>MasterLogs&#45;&gt;mindpalace</title>
<path fill="none" stroke="#58a6ff" stroke-width="1.2" d="M1180.35,-377.1C1252.11,-408.3 1397.74,-472.86 1518,-534 1643.22,-597.66 1674.46,-614.22 1794,-688 1865.6,-732.19 1946.33,-788.7 1990.4,-820.14"/>
<polygon fill="#58a6ff" stroke="#58a6ff" stroke-width="1.2" points="1989.01,-822.6 1997.15,-824.97 1992.27,-818.04 1989.01,-822.6"/>
<text text-anchor="middle" x="1565" y="-573.8" font-family="Courier,monospace" font-size="9.00" fill="#8b949e"> Telemetry </text>
</g>
<!-- MasterLogs&#45;&gt;Nova -->
<g id="edge47" class="edge">
<title>MasterLogs&#45;&gt;Nova</title>
<path fill="none" stroke="#58a6ff" stroke-width="1.2" d="M1188.66,-360.08C1391.94,-368.36 2119.07,-400.2 2216,-436 2232.4,-442.06 2248.29,-453.16 2260.82,-463.56"/>
<polygon fill="#58a6ff" stroke="#58a6ff" stroke-width="1.2" points="2259.15,-465.82 2267.05,-468.9 2262.8,-461.57 2259.15,-465.82"/>
<text text-anchor="middle" x="1703" y="-392.8" font-family="Courier,monospace" font-size="9.00" fill="#8b949e"> Telemetry </text>
</g>
<!-- MasterLogs&#45;&gt;sims&#45;java&#45;neo&#45;fx -->
<g id="edge48" class="edge">
<title>MasterLogs&#45;&gt;sims&#45;java&#45;neo&#45;fx</title>
<path fill="none" stroke="#58a6ff" stroke-width="1.2" d="M1188.87,-350.84C1312.33,-335.3 1628.98,-302.37 1891,-334 2039.23,-351.89 2073.88,-373.25 2216,-419 2271.66,-436.91 2291.97,-428.15 2341,-460 2383.22,-487.43 2387.16,-503.45 2417,-544 2448.38,-586.64 2478.3,-640.73 2494.95,-672.44"/>
<polygon fill="#58a6ff" stroke="#58a6ff" stroke-width="1.2" points="2492.51,-673.81 2498.69,-679.61 2497.47,-671.22 2492.51,-673.81"/>
<text text-anchor="middle" x="1851.5" y="-336.8" font-family="Courier,monospace" font-size="9.00" fill="#8b949e"> Telemetry </text>
</g>
<!-- MasterLogs&#45;&gt;sims&#45;javafx&#45;neo -->
<g id="edge49" class="edge">
<title>MasterLogs&#45;&gt;sims&#45;javafx&#45;neo</title>
<path fill="none" stroke="#58a6ff" stroke-width="1.2" d="M1188.69,-343.93C1225.24,-334.89 1275.21,-323.95 1320,-319 1468.01,-302.66 2532.3,-221.41 2660,-298 2709.23,-327.53 2732.15,-395.43 2741.48,-433.62"/>
<polygon fill="#58a6ff" stroke="#58a6ff" stroke-width="1.2" points="2738.83,-434.59 2743.37,-441.75 2744.29,-433.32 2738.83,-434.59"/>
<text text-anchor="middle" x="2024.5" y="-279.8" font-family="Courier,monospace" font-size="9.00" fill="#8b949e"> Telemetry </text>
</g>
<!-- MasterLogs&#45;&gt;SimsMerged -->
<g id="edge50" class="edge">
<title>MasterLogs&#45;&gt;SimsMerged</title>
<path fill="none" stroke="#58a6ff" stroke-width="1.2" d="M1182.63,-338.92C1201.5,-331.56 1223.62,-323.39 1244,-317 1400.85,-267.81 1447.89,-289.48 1612,-280 2077.01,-253.14 2237.02,-80.95 2660,-276 2782.94,-332.69 2809.58,-365.17 2894,-471 2945.73,-535.85 2983.73,-627.44 3000.49,-672.23"/>
<polygon fill="#58a6ff" stroke="#58a6ff" stroke-width="1.2" points="2997.88,-673.25 3003.28,-679.78 3003.13,-671.3 2997.88,-673.25"/>
<text text-anchor="middle" x="2187" y="-195.8" font-family="Courier,monospace" font-size="9.00" fill="#8b949e"> Telemetry </text>
</g>
<!-- MatrixCE_GUI&#45;&gt;MATRIX_GEN8_HOME -->
<g id="edge51" class="edge">
<title>MatrixCE_GUI&#45;&gt;MATRIX_GEN8_HOME</title>
<path fill="none" stroke="#58a6ff" stroke-width="1.2" d="M1161.03,-1197.92C1212.45,-1158.71 1329.91,-1069.16 1386.45,-1026.06"/>
<polygon fill="#58a6ff" stroke="#58a6ff" stroke-width="1.2" points="1388.37,-1028.11 1393.03,-1021.04 1384.97,-1023.66 1388.37,-1028.11"/>
<text text-anchor="middle" x="1273" y="-1130.8" font-family="Courier,monospace" font-size="9.00" fill="#8b949e"> Agent/BDI </text>
</g>
<!-- MatrixCE_GUI&#45;&gt;openrouter_manager -->
<g id="edge52" class="edge">
<title>MatrixCE_GUI&#45;&gt;openrouter_manager</title>
<path fill="none" stroke="#58a6ff" stroke-width="1.2" d="M1226.31,-1217.32C1329.27,-1217.68 1497.05,-1218.28 1603.36,-1218.65"/>
<polygon fill="#58a6ff" stroke="#58a6ff" stroke-width="1.2" points="1603.53,-1221.45 1611.54,-1218.68 1603.55,-1215.85 1603.53,-1221.45"/>
<text text-anchor="middle" x="1419" y="-1220.8" font-family="Courier,monospace" font-size="9.00" fill="#8b949e"> Agent/BDI </text>
</g>
<!-- MatrixCE_GUI&#45;&gt;SimsMerged -->
<g id="edge53" class="edge">
<title>MatrixCE_GUI&#45;&gt;SimsMerged</title>
<path fill="none" stroke="#58a6ff" stroke-width="1.2" d="M1174.15,-1236.12C1247.64,-1271.14 1414.79,-1342 1564,-1342 1564,-1342 1564,-1342 2749,-1342 2834.38,-1342 2850.25,-1289.31 2894,-1216 2993.15,-1049.85 3007.68,-807.72 3009.71,-726.62"/>
<polygon fill="#58a6ff" stroke="#58a6ff" stroke-width="1.2" points="3012.51,-726.47 3009.88,-718.41 3006.91,-726.35 3012.51,-726.47"/>
<text text-anchor="middle" x="2187" y="-1344.8" font-family="Courier,monospace" font-size="9.00" fill="#8b949e"> Agent/BDI </text>
</g>
<!-- MATRIX_GEN8_HOME&#45;&gt;mind&#45;palace -->
<g id="edge54" class="edge">
<title>MATRIX_GEN8_HOME&#45;&gt;mind&#45;palace</title>
<path fill="none" stroke="#58a6ff" stroke-width="1.2" d="M1466.13,-982.95C1484.66,-973.19 1504.73,-959.61 1518,-942 1536.04,-918.06 1519.61,-902.1 1536,-877 1538.98,-872.44 1607.69,-818.33 1612,-815 1630.4,-800.76 1651.34,-785.36 1668.38,-773.02"/>
<polygon fill="#58a6ff" stroke="#58a6ff" stroke-width="1.2" points="1670.1,-775.23 1674.95,-768.28 1666.83,-770.69 1670.1,-775.23"/>
<text text-anchor="middle" x="1565" y="-879.8" font-family="Courier,monospace" font-size="9.00" fill="#8b949e"> Telemetry </text>
</g>
<!-- MATRIX_GEN8_HOME&#45;&gt;mindpalace -->
<g id="edge55" class="edge">
<title>MATRIX_GEN8_HOME&#45;&gt;mindpalace</title>
<path fill="none" stroke="#58a6ff" stroke-width="1.2" d="M1456.59,-982.95C1475.77,-972.15 1499.13,-957.69 1518,-942 1527.2,-934.35 1525.5,-927.72 1536,-922 1537.01,-921.45 1756.72,-886.43 1900.81,-863.51"/>
<polygon fill="#58a6ff" stroke="#58a6ff" stroke-width="1.2" points="1901.43,-866.24 1908.89,-862.22 1900.55,-860.71 1901.43,-866.24"/>
<text text-anchor="middle" x="1703" y="-910.8" font-family="Courier,monospace" font-size="9.00" fill="#8b949e"> Telemetry </text>
</g>
<!-- MATRIX_GEN8_HOME&#45;&gt;Nova -->
<g id="edge56" class="edge">
<title>MATRIX_GEN8_HOME&#45;&gt;Nova</title>
<path fill="none" stroke="#58a6ff" stroke-width="1.2" d="M1518.09,-987.46C1710.1,-958.55 2118.85,-894.72 2140,-872 2165.44,-844.68 2138.13,-736.6 2158,-705 2174.15,-679.32 2196.61,-692.33 2216,-669 2254.37,-622.82 2273.47,-553.33 2281.54,-515.29"/>
<polygon fill="#58a6ff" stroke="#58a6ff" stroke-width="1.2" points="2284.33,-515.62 2283.19,-507.22 2278.85,-514.5 2284.33,-515.62"/>
<text text-anchor="middle" x="1851.5" y="-942.8" font-family="Courier,monospace" font-size="9.00" fill="#8b949e"> Telemetry </text>
</g>
<!-- MATRIX_GEN8_HOME&#45;&gt;openrouter_manager -->
<g id="edge57" class="edge">
<title>MATRIX_GEN8_HOME&#45;&gt;openrouter_manager</title>
<path fill="none" stroke="#58a6ff" stroke-width="1.2" d="M1446.22,-1021.22C1466.46,-1036.44 1494.82,-1058.63 1518,-1080 1554.3,-1113.46 1562.62,-1122.89 1594,-1161 1602.7,-1171.57 1601.09,-1177.72 1612,-1186 1617.03,-1189.82 1622.55,-1193.23 1628.31,-1196.27"/>
<polygon fill="#58a6ff" stroke="#58a6ff" stroke-width="1.2" points="1627.28,-1198.89 1635.7,-1199.93 1629.77,-1193.87 1627.28,-1198.89"/>
<text text-anchor="middle" x="1565" y="-1163.8" font-family="Courier,monospace" font-size="9.00" fill="#8b949e"> Agent/BDI </text>
</g>
<!-- MATRIX_GEN8_HOME&#45;&gt;sims&#45;java&#45;neo&#45;fx -->
<g id="edge58" class="edge">
<title>MATRIX_GEN8_HOME&#45;&gt;sims&#45;java&#45;neo&#45;fx</title>
<path fill="none" stroke="#58a6ff" stroke-width="1.2" d="M1518.28,-999.69C1755.58,-993.29 2345.56,-972.26 2417,-920 2449.84,-895.98 2486.01,-779.26 2501.18,-725.82"/>
<polygon fill="#58a6ff" stroke="#58a6ff" stroke-width="1.2" points="2503.87,-726.57 2503.34,-718.11 2498.48,-725.05 2503.87,-726.57"/>
<text text-anchor="middle" x="2024.5" y="-986.8" font-family="Courier,monospace" font-size="9.00" fill="#8b949e"> Telemetry </text>
</g>
<!-- MATRIX_GEN8_HOME&#45;&gt;sims&#45;javafx&#45;neo -->
<g id="edge59" class="edge">
<title>MATRIX_GEN8_HOME&#45;&gt;sims&#45;javafx&#45;neo</title>
<path fill="none" stroke="#58a6ff" stroke-width="1.2" d="M1518.13,-1011.67C1663.74,-1025.16 1945.69,-1048 2186,-1048 2186,-1048 2186,-1048 2510.5,-1048 2563.18,-1048 2551.52,-996.48 2584,-955 2617.98,-911.6 2639.29,-908.08 2660,-857 2687.22,-789.86 2663.7,-766.02 2678,-695 2693.39,-618.55 2722.34,-531.01 2737.38,-487.89"/>
<polygon fill="#58a6ff" stroke="#58a6ff" stroke-width="1.2" points="2740.1,-488.6 2740.11,-480.13 2734.81,-486.75 2740.1,-488.6"/>
<text text-anchor="middle" x="2187" y="-1050.8" font-family="Courier,monospace" font-size="9.00" fill="#8b949e"> Telemetry </text>
</g>
<!-- MATRIX_GEN8_HOME&#45;&gt;SimsMerged -->
<g id="edge60" class="edge">
<title>MATRIX_GEN8_HOME&#45;&gt;SimsMerged</title>
<path fill="none" stroke="#58a6ff" stroke-width="1.2" d="M1497.8,-1021.07C1510.53,-1023.91 1523.6,-1026.66 1536,-1029 1569.54,-1035.32 1578.16,-1035.54 1612,-1040 1955.89,-1085.29 2040.14,-1132 2387,-1132 2387,-1132 2387,-1132 2749,-1132 2939.43,-1132 2994.54,-821.02 3006.93,-726.15"/>
<polygon fill="#58a6ff" stroke="#58a6ff" stroke-width="1.2" points="3009.71,-726.45 3007.93,-718.16 3004.15,-725.75 3009.71,-726.45"/>
<text text-anchor="middle" x="2287.5" y="-1133.8" font-family="Courier,monospace" font-size="9.00" fill="#8b949e"> Agent/BDI </text>
</g>
<!-- mind&#45;palace&#45;&gt;mindpalace -->
<g id="edge61" class="edge">
<title>mind&#45;palace&#45;&gt;mindpalace</title>
<path fill="none" stroke="#58a6ff" stroke-width="1.2" d="M1756.6,-766.31C1769.06,-770.95 1782.16,-776.28 1794,-782 1802.44,-786.08 1803.34,-789.41 1812,-793 1832.74,-801.59 1879.82,-813.2 1924.3,-823.17"/>
<polygon fill="#58a6ff" stroke="#58a6ff" stroke-width="1.2" points="1923.86,-825.94 1932.28,-824.95 1925.08,-820.47 1923.86,-825.94"/>
<text text-anchor="middle" x="1851.5" y="-816.8" font-family="Courier,monospace" font-size="9.00" fill="#8b949e"> Telemetry </text>
</g>
<!-- mind&#45;palace&#45;&gt;Nova -->
<g id="edge62" class="edge">
<title>mind&#45;palace&#45;&gt;Nova</title>
<path fill="none" stroke="#58a6ff" stroke-width="1.2" d="M1711.55,-729.8C1725.79,-696.2 1759.98,-626.98 1812,-592 1829.27,-580.39 2102.08,-524.84 2226.04,-500.02"/>
<polygon fill="#58a6ff" stroke="#58a6ff" stroke-width="1.2" points="2226.69,-502.75 2233.98,-498.43 2225.59,-497.26 2226.69,-502.75"/>
<text text-anchor="middle" x="2024.5" y="-567.8" font-family="Courier,monospace" font-size="9.00" fill="#8b949e"> Telemetry </text>
</g>
<!-- mind&#45;palace&#45;&gt;sims&#45;java&#45;neo&#45;fx -->
<g id="edge63" class="edge">
<title>mind&#45;palace&#45;&gt;sims&#45;java&#45;neo&#45;fx</title>
<path fill="none" stroke="#58a6ff" stroke-width="1.2" d="M1756.53,-732.88C1774.01,-728.19 1793.69,-723.63 1812,-721 1928.25,-704.31 2268.78,-700.28 2426.54,-699.31"/>
<polygon fill="#58a6ff" stroke="#58a6ff" stroke-width="1.2" points="2426.84,-702.11 2434.83,-699.26 2426.81,-696.51 2426.84,-702.11"/>
<text text-anchor="middle" x="2187" y="-704.8" font-family="Courier,monospace" font-size="9.00" fill="#8b949e"> Telemetry </text>
</g>
<!-- mind&#45;palace&#45;&gt;sims&#45;javafx&#45;neo -->
<g id="edge64" class="edge">
<title>mind&#45;palace&#45;&gt;sims&#45;javafx&#45;neo</title>
<path fill="none" stroke="#58a6ff" stroke-width="1.2" d="M1756.63,-758.53C1865.9,-776.92 2125.17,-813.25 2341,-787 2451.43,-773.57 2494.21,-792.68 2584,-727 2669.45,-664.5 2719.44,-542.37 2738.3,-488.1"/>
<polygon fill="#58a6ff" stroke="#58a6ff" stroke-width="1.2" points="2741.03,-488.77 2740.96,-480.3 2735.73,-486.97 2741.03,-488.77"/>
<text text-anchor="middle" x="2287.5" y="-797.8" font-family="Courier,monospace" font-size="9.00" fill="#8b949e"> Telemetry </text>
</g>
<!-- mind&#45;palace&#45;&gt;SimsMerged -->
<g id="edge65" class="edge">
<title>mind&#45;palace&#45;&gt;SimsMerged</title>
<path fill="none" stroke="#58a6ff" stroke-width="1.2" d="M1747.61,-729.9C1766.98,-722.2 1790.27,-713.97 1812,-709 2206.12,-618.9 2692.4,-659.86 2903.68,-684.8"/>
<polygon fill="#58a6ff" stroke="#58a6ff" stroke-width="1.2" points="2903.41,-687.59 2911.69,-685.75 2904.08,-682.02 2903.41,-687.59"/>
<text text-anchor="middle" x="2388" y="-655.8" font-family="Courier,monospace" font-size="9.00" fill="#8b949e"> Telemetry </text>
</g>
<!-- mindpalace&#45;&gt;Nova -->
<g id="edge66" class="edge">
<title>mindpalace&#45;&gt;Nova</title>
<path fill="none" stroke="#58a6ff" stroke-width="1.2" d="M2039.53,-824.86C2083.35,-765.1 2217.65,-581.91 2267.56,-513.83"/>
<polygon fill="#58a6ff" stroke="#58a6ff" stroke-width="1.2" points="2269.93,-515.34 2272.4,-507.23 2265.41,-512.03 2269.93,-515.34"/>
<text text-anchor="middle" x="2187" y="-657.8" font-family="Courier,monospace" font-size="9.00" fill="#8b949e"> Telemetry </text>
</g>
<!-- mindpalace&#45;&gt;sims&#45;java&#45;neo&#45;fx -->
<g id="edge67" class="edge">
<title>mindpalace&#45;&gt;sims&#45;java&#45;neo&#45;fx</title>
<path fill="none" stroke="#58a6ff" stroke-width="1.2" d="M2081.39,-824.95C2123.21,-810.97 2181.91,-791.9 2234,-777 2314.63,-753.94 2336.67,-755.09 2417,-731 2427.38,-727.89 2438.32,-724.32 2448.89,-720.72"/>
<polygon fill="#58a6ff" stroke="#58a6ff" stroke-width="1.2" points="2449.85,-723.35 2456.51,-718.09 2448.03,-718.05 2449.85,-723.35"/>
<text text-anchor="middle" x="2287.5" y="-779.8" font-family="Courier,monospace" font-size="9.00" fill="#8b949e"> Telemetry </text>
</g>
<!-- mindpalace&#45;&gt;sims&#45;javafx&#45;neo -->
<g id="edge68" class="edge">
<title>mindpalace&#45;&gt;sims&#45;javafx&#45;neo</title>
<path fill="none" stroke="#58a6ff" stroke-width="1.2" d="M2081.14,-863C2203.21,-900.8 2496.66,-969.79 2660,-823 2681.36,-803.8 2671.92,-723.07 2678,-695 2694.5,-618.78 2722.96,-531.14 2737.64,-487.95"/>
<polygon fill="#58a6ff" stroke="#58a6ff" stroke-width="1.2" points="2740.36,-488.64 2740.3,-480.17 2735.06,-486.83 2740.36,-488.64"/>
<text text-anchor="middle" x="2388" y="-914.8" font-family="Courier,monospace" font-size="9.00" fill="#8b949e"> Telemetry </text>
</g>
<!-- mindpalace&#45;&gt;SimsMerged -->
<g id="edge69" class="edge">
<title>mindpalace&#45;&gt;SimsMerged</title>
<path fill="none" stroke="#58a6ff" stroke-width="1.2" d="M2061.44,-863.01C2087.6,-876.16 2124.21,-893.18 2158,-904 2338.31,-961.76 2402.34,-959.37 2584,-906 2736.17,-861.29 2900.86,-766.45 2972.83,-722.4"/>
<polygon fill="#58a6ff" stroke="#58a6ff" stroke-width="1.2" points="2974.56,-724.62 2979.91,-718.04 2971.63,-719.85 2974.56,-724.62"/>
<text text-anchor="middle" x="2509.5" y="-943.8" font-family="Courier,monospace" font-size="9.00" fill="#8b949e"> Telemetry </text>
</g>
<!-- Nova&#45;&gt;sims&#45;java&#45;neo&#45;fx -->
<g id="edge70" class="edge">
<title>Nova&#45;&gt;sims&#45;java&#45;neo&#45;fx</title>
<path fill="none" stroke="#58a6ff" stroke-width="1.2" d="M2312.44,-507.26C2338.82,-528.79 2382.12,-565.1 2417,-599 2442.08,-623.37 2468.88,-653.15 2486.95,-673.84"/>
<polygon fill="#58a6ff" stroke="#58a6ff" stroke-width="1.2" points="2484.9,-675.76 2492.27,-679.96 2489.13,-672.08 2484.9,-675.76"/>
<text text-anchor="middle" x="2388" y="-601.8" font-family="Courier,monospace" font-size="9.00" fill="#8b949e"> Telemetry </text>
</g>
<!-- Nova&#45;&gt;sims&#45;javafx&#45;neo -->
<g id="edge71" class="edge">
<title>Nova&#45;&gt;sims&#45;javafx&#45;neo</title>
<path fill="none" stroke="#58a6ff" stroke-width="1.2" d="M2341.1,-484.9C2421.78,-480.15 2576.53,-471.04 2669.9,-465.54"/>
<polygon fill="#58a6ff" stroke="#58a6ff" stroke-width="1.2" points="2670.08,-468.33 2677.9,-465.07 2669.75,-462.74 2670.08,-468.33"/>
<text text-anchor="middle" x="2509.5" y="-481.8" font-family="Courier,monospace" font-size="9.00" fill="#8b949e"> Telemetry </text>
</g>
<!-- Nova&#45;&gt;SimsMerged -->
<g id="edge72" class="edge">
<title>Nova&#45;&gt;SimsMerged</title>
<path fill="none" stroke="#58a6ff" stroke-width="1.2" d="M2341.23,-494.05C2347.23,-494.71 2353.24,-495.38 2359,-496 2477.82,-508.85 2789.36,-493.26 2894,-551 2944.09,-578.64 2979.96,-637.79 2997.61,-672.36"/>
<polygon fill="#58a6ff" stroke="#58a6ff" stroke-width="1.2" points="2995.22,-673.85 3001.3,-679.76 3000.23,-671.35 2995.22,-673.85"/>
<text text-anchor="middle" x="2631" y="-509.8" font-family="Courier,monospace" font-size="9.00" fill="#8b949e"> Telemetry </text>
</g>
<!-- openrouter_manager&#45;&gt;SimsMerged -->
<g id="edge73" class="edge">
<title>openrouter_manager&#45;&gt;SimsMerged</title>
<path fill="none" stroke="#58a6ff" stroke-width="1.2" d="M1794.2,-1217.27C1858.2,-1216.19 1946.12,-1215 2023.5,-1215 2023.5,-1215 2023.5,-1215 2749,-1215 2814.55,-1215 2846.53,-1233.21 2894,-1188 2962.24,-1123.01 2997.91,-819.55 3007.39,-726.32"/>
<polygon fill="#58a6ff" stroke="#58a6ff" stroke-width="1.2" points="3010.19,-726.45 3008.2,-718.21 3004.62,-725.89 3010.19,-726.45"/>
<text text-anchor="middle" x="2388" y="-1217.8" font-family="Courier,monospace" font-size="9.00" fill="#8b949e"> Agent/BDI </text>
</g>
<!-- sims&#45;java&#45;neo&#45;fx&#45;&gt;sims&#45;javafx&#45;neo -->
<g id="edge74" class="edge">
<title>sims&#45;java&#45;neo&#45;fx&#45;&gt;sims&#45;javafx&#45;neo</title>
<path fill="none" stroke="#58a6ff" stroke-width="1.2" d="M2513.33,-679.86C2520.4,-639.19 2542.71,-543.91 2602,-495 2612.94,-485.98 2641.12,-478.44 2669.77,-472.78"/>
<polygon fill="#58a6ff" stroke="#58a6ff" stroke-width="1.2" points="2670.51,-475.49 2677.84,-471.23 2669.46,-469.99 2670.51,-475.49"/>
<text text-anchor="middle" x="2631" y="-497.8" font-family="Courier,monospace" font-size="9.00" fill="#8b949e"> Telemetry </text>
</g>
<!-- sims&#45;java&#45;neo&#45;fx&#45;&gt;SimsMerged -->
<g id="edge75" class="edge">
<title>sims&#45;java&#45;neo&#45;fx&#45;&gt;SimsMerged</title>
<path fill="none" stroke="#58a6ff" stroke-width="1.2" d="M2584.2,-699C2668.67,-699 2807.79,-699 2903.91,-699"/>
<polygon fill="#58a6ff" stroke="#58a6ff" stroke-width="1.2" points="2903.91,-701.8 2911.91,-699 2903.91,-696.2 2903.91,-701.8"/>
<text text-anchor="middle" x="2748" y="-701.8" font-family="Courier,monospace" font-size="9.00" fill="#8b949e"> Telemetry </text>
</g>
<!-- sims&#45;javafx&#45;neo&#45;&gt;SimsMerged -->
<g id="edge76" class="edge">
<title>sims&#45;javafx&#45;neo&#45;&gt;SimsMerged</title>
<path fill="none" stroke="#58a6ff" stroke-width="1.2" d="M2818.13,-470.01C2843.94,-476.05 2872.25,-486.15 2894,-503 2951.7,-547.71 2986.5,-629.85 3001.43,-672.2"/>
<polygon fill="#58a6ff" stroke="#58a6ff" stroke-width="1.2" points="2998.82,-673.22 3004.07,-679.87 3004.11,-671.39 2998.82,-673.22"/>
<text text-anchor="middle" x="2865" y="-505.8" font-family="Courier,monospace" font-size="9.00" fill="#8b949e"> Telemetry </text>
</g>
<!-- aegis&#45;agent&#45;bridge -->
<g id="node16" class="node">
<title>aegis&#45;agent&#45;bridge</title>
<path fill="#161b22" stroke="#58a6ff" d="M198.5,-1191C198.5,-1191 57.5,-1191 57.5,-1191 51.5,-1191 45.5,-1185 45.5,-1179 45.5,-1179 45.5,-1165 45.5,-1165 45.5,-1159 51.5,-1153 57.5,-1153 57.5,-1153 198.5,-1153 198.5,-1153 204.5,-1153 210.5,-1159 210.5,-1165 210.5,-1165 210.5,-1179 210.5,-1179 210.5,-1185 204.5,-1191 198.5,-1191"/>
<text text-anchor="middle" x="128" y="-1175.8" font-family="Courier,monospace" font-size="14.00" fill="#c9d1d9">aegis&#45;agent&#45;bridge</text>
<text text-anchor="middle" x="128" y="-1160.8" font-family="Courier,monospace" font-size="14.00" fill="#c9d1d9">[]</text>
</g>
<!-- AegisAgent -->
<g id="node17" class="node">
<title>AegisAgent</title>
<path fill="#161b22" stroke="#58a6ff" d="M165.5,-1247C165.5,-1247 90.5,-1247 90.5,-1247 84.5,-1247 78.5,-1241 78.5,-1235 78.5,-1235 78.5,-1221 78.5,-1221 78.5,-1215 84.5,-1209 90.5,-1209 90.5,-1209 165.5,-1209 165.5,-1209 171.5,-1209 177.5,-1215 177.5,-1221 177.5,-1221 177.5,-1235 177.5,-1235 177.5,-1241 171.5,-1247 165.5,-1247"/>
<text text-anchor="middle" x="128" y="-1231.8" font-family="Courier,monospace" font-size="14.00" fill="#c9d1d9">AegisAgent</text>
<text text-anchor="middle" x="128" y="-1216.8" font-family="Courier,monospace" font-size="14.00" fill="#c9d1d9">[]</text>
</g>
<!-- batch_termux -->
<g id="node18" class="node">
<title>batch_termux</title>
<path fill="#161b22" stroke="#58a6ff" d="M174,-1303C174,-1303 82,-1303 82,-1303 76,-1303 70,-1297 70,-1291 70,-1291 70,-1277 70,-1277 70,-1271 76,-1265 82,-1265 82,-1265 174,-1265 174,-1265 180,-1265 186,-1271 186,-1277 186,-1277 186,-1291 186,-1291 186,-1297 180,-1303 174,-1303"/>
<text text-anchor="middle" x="128" y="-1287.8" font-family="Courier,monospace" font-size="14.00" fill="#c9d1d9">batch_termux</text>
<text text-anchor="middle" x="128" y="-1272.8" font-family="Courier,monospace" font-size="14.00" fill="#c9d1d9">[]</text>
</g>
<!-- DARWIN_GRID_DEPLOY -->
<g id="node19" class="node">
<title>DARWIN_GRID_DEPLOY</title>
<path fill="#161b22" stroke="#58a6ff" d="M198.5,-1359C198.5,-1359 57.5,-1359 57.5,-1359 51.5,-1359 45.5,-1353 45.5,-1347 45.5,-1347 45.5,-1333 45.5,-1333 45.5,-1327 51.5,-1321 57.5,-1321 57.5,-1321 198.5,-1321 198.5,-1321 204.5,-1321 210.5,-1327 210.5,-1333 210.5,-1333 210.5,-1347 210.5,-1347 210.5,-1353 204.5,-1359 198.5,-1359"/>
<text text-anchor="middle" x="128" y="-1343.8" font-family="Courier,monospace" font-size="14.00" fill="#c9d1d9">DARWIN_GRID_DEPLOY</text>
<text text-anchor="middle" x="128" y="-1328.8" font-family="Courier,monospace" font-size="14.00" fill="#c9d1d9">[]</text>
</g>
<!-- E2E_Final_Test -->
<g id="node20" class="node">
<title>E2E_Final_Test</title>
<path fill="#161b22" stroke="#58a6ff" d="M182,-1415C182,-1415 74,-1415 74,-1415 68,-1415 62,-1409 62,-1403 62,-1403 62,-1389 62,-1389 62,-1383 68,-1377 74,-1377 74,-1377 182,-1377 182,-1377 188,-1377 194,-1383 194,-1389 194,-1389 194,-1403 194,-1403 194,-1409 188,-1415 182,-1415"/>
<text text-anchor="middle" x="128" y="-1399.8" font-family="Courier,monospace" font-size="14.00" fill="#c9d1d9">E2E_Final_Test</text>
<text text-anchor="middle" x="128" y="-1384.8" font-family="Courier,monospace" font-size="14.00" fill="#c9d1d9">[]</text>
</g>
<!-- E2E_Test_Deploy_6172 -->
<g id="node21" class="node">
<title>E2E_Test_Deploy_6172</title>
<path fill="#161b22" stroke="#58a6ff" d="M207,-1471C207,-1471 49,-1471 49,-1471 43,-1471 37,-1465 37,-1459 37,-1459 37,-1445 37,-1445 37,-1439 43,-1433 49,-1433 49,-1433 207,-1433 207,-1433 213,-1433 219,-1439 219,-1445 219,-1445 219,-1459 219,-1459 219,-1465 213,-1471 207,-1471"/>
<text text-anchor="middle" x="128" y="-1455.8" font-family="Courier,monospace" font-size="14.00" fill="#c9d1d9">E2E_Test_Deploy_6172</text>
<text text-anchor="middle" x="128" y="-1440.8" font-family="Courier,monospace" font-size="14.00" fill="#c9d1d9">[]</text>
</g>
<!-- evolved_system -->
<g id="node22" class="node">
<title>evolved_system</title>
<path fill="#161b22" stroke="#58a6ff" d="M182,-1527C182,-1527 74,-1527 74,-1527 68,-1527 62,-1521 62,-1515 62,-1515 62,-1501 62,-1501 62,-1495 68,-1489 74,-1489 74,-1489 182,-1489 182,-1489 188,-1489 194,-1495 194,-1501 194,-1501 194,-1515 194,-1515 194,-1521 188,-1527 182,-1527"/>
<text text-anchor="middle" x="128" y="-1511.8" font-family="Courier,monospace" font-size="14.00" fill="#c9d1d9">evolved_system</text>
<text text-anchor="middle" x="128" y="-1496.8" font-family="Courier,monospace" font-size="14.00" fill="#c9d1d9">[]</text>
</g>
<!-- Flappy_bird_except_python_and -->
<g id="node23" class="node">
<title>Flappy_bird_except_python_and</title>
<path fill="#161b22" stroke="#58a6ff" d="M244,-1583C244,-1583 12,-1583 12,-1583 6,-1583 0,-1577 0,-1571 0,-1571 0,-1557 0,-1557 0,-1551 6,-1545 12,-1545 12,-1545 244,-1545 244,-1545 250,-1545 256,-1551 256,-1557 256,-1557 256,-1571 256,-1571 256,-1577 250,-1583 244,-1583"/>
<text text-anchor="middle" x="128" y="-1567.8" font-family="Courier,monospace" font-size="14.00" fill="#c9d1d9">Flappy_bird_except_python_and</text>
<text text-anchor="middle" x="128" y="-1552.8" font-family="Courier,monospace" font-size="14.00" fill="#c9d1d9">[]</text>
</g>
<!-- fleet&#45;repo&#45;scanner -->
<g id="node24" class="node">
<title>fleet&#45;repo&#45;scanner</title>
<path fill="#161b22" stroke="#58a6ff" d="M198.5,-1639C198.5,-1639 57.5,-1639 57.5,-1639 51.5,-1639 45.5,-1633 45.5,-1627 45.5,-1627 45.5,-1613 45.5,-1613 45.5,-1607 51.5,-1601 57.5,-1601 57.5,-1601 198.5,-1601 198.5,-1601 204.5,-1601 210.5,-1607 210.5,-1613 210.5,-1613 210.5,-1627 210.5,-1627 210.5,-1633 204.5,-1639 198.5,-1639"/>
<text text-anchor="middle" x="128" y="-1623.8" font-family="Courier,monospace" font-size="14.00" fill="#c9d1d9">fleet&#45;repo&#45;scanner</text>
<text text-anchor="middle" x="128" y="-1608.8" font-family="Courier,monospace" font-size="14.00" fill="#c9d1d9">[]</text>
</g>
<!-- frontier&#45;ai&#45;dlc -->
<g id="node25" class="node">
<title>frontier&#45;ai&#45;dlc</title>
<path fill="#161b22" stroke="#58a6ff" d="M186,-1695C186,-1695 70,-1695 70,-1695 64,-1695 58,-1689 58,-1683 58,-1683 58,-1669 58,-1669 58,-1663 64,-1657 70,-1657 70,-1657 186,-1657 186,-1657 192,-1657 198,-1663 198,-1669 198,-1669 198,-1683 198,-1683 198,-1689 192,-1695 186,-1695"/>
<text text-anchor="middle" x="128" y="-1679.8" font-family="Courier,monospace" font-size="14.00" fill="#c9d1d9">frontier&#45;ai&#45;dlc</text>
<text text-anchor="middle" x="128" y="-1664.8" font-family="Courier,monospace" font-size="14.00" fill="#c9d1d9">[]</text>
</g>
<!-- Gitautoworks -->
<g id="node26" class="node">
<title>Gitautoworks</title>
<path fill="#161b22" stroke="#58a6ff" d="M174,-1751C174,-1751 82,-1751 82,-1751 76,-1751 70,-1745 70,-1739 70,-1739 70,-1725 70,-1725 70,-1719 76,-1713 82,-1713 82,-1713 174,-1713 174,-1713 180,-1713 186,-1719 186,-1725 186,-1725 186,-1739 186,-1739 186,-1745 180,-1751 174,-1751"/>
<text text-anchor="middle" x="128" y="-1735.8" font-family="Courier,monospace" font-size="14.00" fill="#c9d1d9">Gitautoworks</text>
<text text-anchor="middle" x="128" y="-1720.8" font-family="Courier,monospace" font-size="14.00" fill="#c9d1d9">[]</text>
</g>
<!-- H2O_MATRIX -->
<g id="node27" class="node">
<title>H2O_MATRIX</title>
<path fill="#161b22" stroke="#58a6ff" d="M165.5,-1807C165.5,-1807 90.5,-1807 90.5,-1807 84.5,-1807 78.5,-1801 78.5,-1795 78.5,-1795 78.5,-1781 78.5,-1781 78.5,-1775 84.5,-1769 90.5,-1769 90.5,-1769 165.5,-1769 165.5,-1769 171.5,-1769 177.5,-1775 177.5,-1781 177.5,-1781 177.5,-1795 177.5,-1795 177.5,-1801 171.5,-1807 165.5,-1807"/>
<text text-anchor="middle" x="128" y="-1791.8" font-family="Courier,monospace" font-size="14.00" fill="#c9d1d9">H2O_MATRIX</text>
<text text-anchor="middle" x="128" y="-1776.8" font-family="Courier,monospace" font-size="14.00" fill="#c9d1d9">[]</text>
</g>
<!-- house&#45;inference -->
<g id="node28" class="node">
<title>house&#45;inference</title>
<path fill="#161b22" stroke="#58a6ff" d="M186,-1863C186,-1863 70,-1863 70,-1863 64,-1863 58,-1857 58,-1851 58,-1851 58,-1837 58,-1837 58,-1831 64,-1825 70,-1825 70,-1825 186,-1825 186,-1825 192,-1825 198,-1831 198,-1837 198,-1837 198,-1851 198,-1851 198,-1857 192,-1863 186,-1863"/>
<text text-anchor="middle" x="128" y="-1847.8" font-family="Courier,monospace" font-size="14.00" fill="#c9d1d9">house&#45;inference</text>
<text text-anchor="middle" x="128" y="-1832.8" font-family="Courier,monospace" font-size="14.00" fill="#c9d1d9">[]</text>
</g>
<!-- JRM -->
<g id="node29" class="node">
<title>JRM</title>
<path fill="#161b22" stroke="#58a6ff" d="M143,-1919C143,-1919 113,-1919 113,-1919 107,-1919 101,-1913 101,-1907 101,-1907 101,-1893 101,-1893 101,-1887 107,-1881 113,-1881 113,-1881 143,-1881 143,-1881 149,-1881 155,-1887 155,-1893 155,-1893 155,-1907 155,-1907 155,-1913 149,-1919 143,-1919"/>
<text text-anchor="middle" x="128" y="-1903.8" font-family="Courier,monospace" font-size="14.00" fill="#c9d1d9">JRM</text>
<text text-anchor="middle" x="128" y="-1888.8" font-family="Courier,monospace" font-size="14.00" fill="#c9d1d9">[]</text>
</g>
<!-- living&#45;ascii&#45;art -->
<g id="node30" class="node">
<title>living&#45;ascii&#45;art</title>
<path fill="#161b22" stroke="#58a6ff" d="M190.5,-1975C190.5,-1975 65.5,-1975 65.5,-1975 59.5,-1975 53.5,-1969 53.5,-1963 53.5,-1963 53.5,-1949 53.5,-1949 53.5,-1943 59.5,-1937 65.5,-1937 65.5,-1937 190.5,-1937 190.5,-1937 196.5,-1937 202.5,-1943 202.5,-1949 202.5,-1949 202.5,-1963 202.5,-1963 202.5,-1969 196.5,-1975 190.5,-1975"/>
<text text-anchor="middle" x="128" y="-1959.8" font-family="Courier,monospace" font-size="14.00" fill="#c9d1d9">living&#45;ascii&#45;art</text>
<text text-anchor="middle" x="128" y="-1944.8" font-family="Courier,monospace" font-size="14.00" fill="#c9d1d9">[]</text>
</g>
<!-- Machine2 -->
<g id="node31" class="node">
<title>Machine2</title>
<path fill="#161b22" stroke="#58a6ff" d="M157.5,-2031C157.5,-2031 98.5,-2031 98.5,-2031 92.5,-2031 86.5,-2025 86.5,-2019 86.5,-2019 86.5,-2005 86.5,-2005 86.5,-1999 92.5,-1993 98.5,-1993 98.5,-1993 157.5,-1993 157.5,-1993 163.5,-1993 169.5,-1999 169.5,-2005 169.5,-2005 169.5,-2019 169.5,-2019 169.5,-2025 163.5,-2031 157.5,-2031"/>
<text text-anchor="middle" x="128" y="-2015.8" font-family="Courier,monospace" font-size="14.00" fill="#c9d1d9">Machine2</text>
<text text-anchor="middle" x="128" y="-2000.8" font-family="Courier,monospace" font-size="14.00" fill="#c9d1d9">[]</text>
</g>
<!-- Matrix_CEAGENTS -->
<g id="node32" class="node">
<title>Matrix_CEAGENTS</title>
<path fill="#161b22" stroke="#58a6ff" d="M186,-2087C186,-2087 70,-2087 70,-2087 64,-2087 58,-2081 58,-2075 58,-2075 58,-2061 58,-2061 58,-2055 64,-2049 70,-2049 70,-2049 186,-2049 186,-2049 192,-2049 198,-2055 198,-2061 198,-2061 198,-2075 198,-2075 198,-2081 192,-2087 186,-2087"/>
<text text-anchor="middle" x="128" y="-2071.8" font-family="Courier,monospace" font-size="14.00" fill="#c9d1d9">Matrix_CEAGENTS</text>
<text text-anchor="middle" x="128" y="-2056.8" font-family="Courier,monospace" font-size="14.00" fill="#c9d1d9">[]</text>
</g>
<!-- Matrix_CEAPK -->
<g id="node33" class="node">
<title>Matrix_CEAPK</title>
<path fill="#161b22" stroke="#58a6ff" d="M174,-2143C174,-2143 82,-2143 82,-2143 76,-2143 70,-2137 70,-2131 70,-2131 70,-2117 70,-2117 70,-2111 76,-2105 82,-2105 82,-2105 174,-2105 174,-2105 180,-2105 186,-2111 186,-2117 186,-2117 186,-2131 186,-2131 186,-2137 180,-2143 174,-2143"/>
<text text-anchor="middle" x="128" y="-2127.8" font-family="Courier,monospace" font-size="14.00" fill="#c9d1d9">Matrix_CEAPK</text>
<text text-anchor="middle" x="128" y="-2112.8" font-family="Courier,monospace" font-size="14.00" fill="#c9d1d9">[]</text>
</g>
<!-- Matrix_CEAPPS -->
<g id="node34" class="node">
<title>Matrix_CEAPPS</title>
<path fill="#161b22" stroke="#58a6ff" d="M178,-2199C178,-2199 78,-2199 78,-2199 72,-2199 66,-2193 66,-2187 66,-2187 66,-2173 66,-2173 66,-2167 72,-2161 78,-2161 78,-2161 178,-2161 178,-2161 184,-2161 190,-2167 190,-2173 190,-2173 190,-2187 190,-2187 190,-2193 184,-2199 178,-2199"/>
<text text-anchor="middle" x="128" y="-2183.8" font-family="Courier,monospace" font-size="14.00" fill="#c9d1d9">Matrix_CEAPPS</text>
<text text-anchor="middle" x="128" y="-2168.8" font-family="Courier,monospace" font-size="14.00" fill="#c9d1d9">[]</text>
</g>
<!-- Matrix_CEBack -->
<g id="node35" class="node">
<title>Matrix_CEBack</title>
<path fill="#161b22" stroke="#58a6ff" d="M178,-2255C178,-2255 78,-2255 78,-2255 72,-2255 66,-2249 66,-2243 66,-2243 66,-2229 66,-2229 66,-2223 72,-2217 78,-2217 78,-2217 178,-2217 178,-2217 184,-2217 190,-2223 190,-2229 190,-2229 190,-2243 190,-2243 190,-2249 184,-2255 178,-2255"/>
<text text-anchor="middle" x="128" y="-2239.8" font-family="Courier,monospace" font-size="14.00" fill="#c9d1d9">Matrix_CEBack</text>
<text text-anchor="middle" x="128" y="-2224.8" font-family="Courier,monospace" font-size="14.00" fill="#c9d1d9">[]</text>
</g>
<!-- Matrix_CEKAI9000 -->
<g id="node36" class="node">
<title>Matrix_CEKAI9000</title>
<path fill="#161b22" stroke="#58a6ff" d="M190.5,-2311C190.5,-2311 65.5,-2311 65.5,-2311 59.5,-2311 53.5,-2305 53.5,-2299 53.5,-2299 53.5,-2285 53.5,-2285 53.5,-2279 59.5,-2273 65.5,-2273 65.5,-2273 190.5,-2273 190.5,-2273 196.5,-2273 202.5,-2279 202.5,-2285 202.5,-2285 202.5,-2299 202.5,-2299 202.5,-2305 196.5,-2311 190.5,-2311"/>
<text text-anchor="middle" x="128" y="-2295.8" font-family="Courier,monospace" font-size="14.00" fill="#c9d1d9">Matrix_CEKAI9000</text>
<text text-anchor="middle" x="128" y="-2280.8" font-family="Courier,monospace" font-size="14.00" fill="#c9d1d9">[]</text>
</g>
<!-- Matrix_CESERVERS -->
<g id="node37" class="node">
<title>Matrix_CESERVERS</title>
<path fill="#161b22" stroke="#58a6ff" d="M190.5,-2367C190.5,-2367 65.5,-2367 65.5,-2367 59.5,-2367 53.5,-2361 53.5,-2355 53.5,-2355 53.5,-2341 53.5,-2341 53.5,-2335 59.5,-2329 65.5,-2329 65.5,-2329 190.5,-2329 190.5,-2329 196.5,-2329 202.5,-2335 202.5,-2341 202.5,-2341 202.5,-2355 202.5,-2355 202.5,-2361 196.5,-2367 190.5,-2367"/>
<text text-anchor="middle" x="128" y="-2351.8" font-family="Courier,monospace" font-size="14.00" fill="#c9d1d9">Matrix_CESERVERS</text>
<text text-anchor="middle" x="128" y="-2336.8" font-family="Courier,monospace" font-size="14.00" fill="#c9d1d9">[]</text>
</g>
<!-- matrix_dash -->
<g id="node38" class="node">
<title>matrix_dash</title>
<path fill="#161b22" stroke="#58a6ff" d="M169.5,-2423C169.5,-2423 86.5,-2423 86.5,-2423 80.5,-2423 74.5,-2417 74.5,-2411 74.5,-2411 74.5,-2397 74.5,-2397 74.5,-2391 80.5,-2385 86.5,-2385 86.5,-2385 169.5,-2385 169.5,-2385 175.5,-2385 181.5,-2391 181.5,-2397 181.5,-2397 181.5,-2411 181.5,-2411 181.5,-2417 175.5,-2423 169.5,-2423"/>
<text text-anchor="middle" x="128" y="-2407.8" font-family="Courier,monospace" font-size="14.00" fill="#c9d1d9">matrix_dash</text>
<text text-anchor="middle" x="128" y="-2392.8" font-family="Courier,monospace" font-size="14.00" fill="#c9d1d9">[]</text>
</g>
<!-- moe&#45;kai&#45;skill -->
<g id="node39" class="node">
<title>moe&#45;kai&#45;skill</title>
<path fill="#161b22" stroke="#58a6ff" d="M178,-2479C178,-2479 78,-2479 78,-2479 72,-2479 66,-2473 66,-2467 66,-2467 66,-2453 66,-2453 66,-2447 72,-2441 78,-2441 78,-2441 178,-2441 178,-2441 184,-2441 190,-2447 190,-2453 190,-2453 190,-2467 190,-2467 190,-2473 184,-2479 178,-2479"/>
<text text-anchor="middle" x="128" y="-2463.8" font-family="Courier,monospace" font-size="14.00" fill="#c9d1d9">moe&#45;kai&#45;skill</text>
<text text-anchor="middle" x="128" y="-2448.8" font-family="Courier,monospace" font-size="14.00" fill="#c9d1d9">[]</text>
</g>
<!-- MultiPage_E2E_20010 -->
<g id="node40" class="node">
<title>MultiPage_E2E_20010</title>
<path fill="#161b22" stroke="#58a6ff" d="M202.5,-2535C202.5,-2535 53.5,-2535 53.5,-2535 47.5,-2535 41.5,-2529 41.5,-2523 41.5,-2523 41.5,-2509 41.5,-2509 41.5,-2503 47.5,-2497 53.5,-2497 53.5,-2497 202.5,-2497 202.5,-2497 208.5,-2497 214.5,-2503 214.5,-2509 214.5,-2509 214.5,-2523 214.5,-2523 214.5,-2529 208.5,-2535 202.5,-2535"/>
<text text-anchor="middle" x="128" y="-2519.8" font-family="Courier,monospace" font-size="14.00" fill="#c9d1d9">MultiPage_E2E_20010</text>
<text text-anchor="middle" x="128" y="-2504.8" font-family="Courier,monospace" font-size="14.00" fill="#c9d1d9">[]</text>
</g>
<!-- NAS_SHARE -->
<g id="node41" class="node">
<title>NAS_SHARE</title>
<path fill="#161b22" stroke="#58a6ff" d="M161.5,-2591C161.5,-2591 94.5,-2591 94.5,-2591 88.5,-2591 82.5,-2585 82.5,-2579 82.5,-2579 82.5,-2565 82.5,-2565 82.5,-2559 88.5,-2553 94.5,-2553 94.5,-2553 161.5,-2553 161.5,-2553 167.5,-2553 173.5,-2559 173.5,-2565 173.5,-2565 173.5,-2579 173.5,-2579 173.5,-2585 167.5,-2591 161.5,-2591"/>
<text text-anchor="middle" x="128" y="-2575.8" font-family="Courier,monospace" font-size="14.00" fill="#c9d1d9">NAS_SHARE</text>
<text text-anchor="middle" x="128" y="-2560.8" font-family="Courier,monospace" font-size="14.00" fill="#c9d1d9">[]</text>
</g>
<!-- openrouter -->
<g id="node42" class="node">
<title>openrouter</title>
<path fill="#161b22" stroke="#58a6ff" d="M165.5,-2647C165.5,-2647 90.5,-2647 90.5,-2647 84.5,-2647 78.5,-2641 78.5,-2635 78.5,-2635 78.5,-2621 78.5,-2621 78.5,-2615 84.5,-2609 90.5,-2609 90.5,-2609 165.5,-2609 165.5,-2609 171.5,-2609 177.5,-2615 177.5,-2621 177.5,-2621 177.5,-2635 177.5,-2635 177.5,-2641 171.5,-2647 165.5,-2647"/>
<text text-anchor="middle" x="128" y="-2631.8" font-family="Courier,monospace" font-size="14.00" fill="#c9d1d9">openrouter</text>
<text text-anchor="middle" x="128" y="-2616.8" font-family="Courier,monospace" font-size="14.00" fill="#c9d1d9">[]</text>
</g>
<!-- RandomTestProject -->
<g id="node43" class="node">
<title>RandomTestProject</title>
<path fill="#161b22" stroke="#58a6ff" d="M194.5,-2703C194.5,-2703 61.5,-2703 61.5,-2703 55.5,-2703 49.5,-2697 49.5,-2691 49.5,-2691 49.5,-2677 49.5,-2677 49.5,-2671 55.5,-2665 61.5,-2665 61.5,-2665 194.5,-2665 194.5,-2665 200.5,-2665 206.5,-2671 206.5,-2677 206.5,-2677 206.5,-2691 206.5,-2691 206.5,-2697 200.5,-2703 194.5,-2703"/>
<text text-anchor="middle" x="128" y="-2687.8" font-family="Courier,monospace" font-size="14.00" fill="#c9d1d9">RandomTestProject</text>
<text text-anchor="middle" x="128" y="-2672.8" font-family="Courier,monospace" font-size="14.00" fill="#c9d1d9">[]</text>
</g>
<!-- Ryush -->
<g id="node44" class="node">
<title>Ryush</title>
<path fill="#161b22" stroke="#58a6ff" d="M145,-2759C145,-2759 111,-2759 111,-2759 105,-2759 99,-2753 99,-2747 99,-2747 99,-2733 99,-2733 99,-2727 105,-2721 111,-2721 111,-2721 145,-2721 145,-2721 151,-2721 157,-2727 157,-2733 157,-2733 157,-2747 157,-2747 157,-2753 151,-2759 145,-2759"/>
<text text-anchor="middle" x="128" y="-2743.8" font-family="Courier,monospace" font-size="14.00" fill="#c9d1d9">Ryush</text>
<text text-anchor="middle" x="128" y="-2728.8" font-family="Courier,monospace" font-size="14.00" fill="#c9d1d9">[]</text>
</g>
<!-- SimAgentCity -->
<g id="node45" class="node">
<title>SimAgentCity</title>
<path fill="#161b22" stroke="#58a6ff" d="M174,-2815C174,-2815 82,-2815 82,-2815 76,-2815 70,-2809 70,-2803 70,-2803 70,-2789 70,-2789 70,-2783 76,-2777 82,-2777 82,-2777 174,-2777 174,-2777 180,-2777 186,-2783 186,-2789 186,-2789 186,-2803 186,-2803 186,-2809 180,-2815 174,-2815"/>
<text text-anchor="middle" x="128" y="-2799.8" font-family="Courier,monospace" font-size="14.00" fill="#c9d1d9">SimAgentCity</text>
<text text-anchor="middle" x="128" y="-2784.8" font-family="Courier,monospace" font-size="14.00" fill="#c9d1d9">[]</text>
</g>
<!-- SIMS1337 -->
<g id="node46" class="node">
<title>SIMS1337</title>
<path fill="#161b22" stroke="#58a6ff" d="M157.5,-2871C157.5,-2871 98.5,-2871 98.5,-2871 92.5,-2871 86.5,-2865 86.5,-2859 86.5,-2859 86.5,-2845 86.5,-2845 86.5,-2839 92.5,-2833 98.5,-2833 98.5,-2833 157.5,-2833 157.5,-2833 163.5,-2833 169.5,-2839 169.5,-2845 169.5,-2845 169.5,-2859 169.5,-2859 169.5,-2865 163.5,-2871 157.5,-2871"/>
<text text-anchor="middle" x="128" y="-2855.8" font-family="Courier,monospace" font-size="14.00" fill="#c9d1d9">SIMS1337</text>
<text text-anchor="middle" x="128" y="-2840.8" font-family="Courier,monospace" font-size="14.00" fill="#c9d1d9">[]</text>
</g>
<!-- SIMS1337&#45;BACKEND -->
<g id="node47" class="node">
<title>SIMS1337&#45;BACKEND</title>
<path fill="#161b22" stroke="#58a6ff" d="M190.5,-2927C190.5,-2927 65.5,-2927 65.5,-2927 59.5,-2927 53.5,-2921 53.5,-2915 53.5,-2915 53.5,-2901 53.5,-2901 53.5,-2895 59.5,-2889 65.5,-2889 65.5,-2889 190.5,-2889 190.5,-2889 196.5,-2889 202.5,-2895 202.5,-2901 202.5,-2901 202.5,-2915 202.5,-2915 202.5,-2921 196.5,-2927 190.5,-2927"/>
<text text-anchor="middle" x="128" y="-2911.8" font-family="Courier,monospace" font-size="14.00" fill="#c9d1d9">SIMS1337&#45;BACKEND</text>
<text text-anchor="middle" x="128" y="-2896.8" font-family="Courier,monospace" font-size="14.00" fill="#c9d1d9">[]</text>
</g>
<!-- SIMS1337&#45;SKY -->
<g id="node48" class="node">
<title>SIMS1337&#45;SKY</title>
<path fill="#161b22" stroke="#58a6ff" d="M174,-2983C174,-2983 82,-2983 82,-2983 76,-2983 70,-2977 70,-2971 70,-2971 70,-2957 70,-2957 70,-2951 76,-2945 82,-2945 82,-2945 174,-2945 174,-2945 180,-2945 186,-2951 186,-2957 186,-2957 186,-2971 186,-2971 186,-2977 180,-2983 174,-2983"/>
<text text-anchor="middle" x="128" y="-2967.8" font-family="Courier,monospace" font-size="14.00" fill="#c9d1d9">SIMS1337&#45;SKY</text>
<text text-anchor="middle" x="128" y="-2952.8" font-family="Courier,monospace" font-size="14.00" fill="#c9d1d9">[]</text>
</g>
<!-- SIMS1337BACKEND -->
<g id="node49" class="node">
<title>SIMS1337BACKEND</title>
<path fill="#161b22" stroke="#58a6ff" d="M186,-3039C186,-3039 70,-3039 70,-3039 64,-3039 58,-3033 58,-3027 58,-3027 58,-3013 58,-3013 58,-3007 64,-3001 70,-3001 70,-3001 186,-3001 186,-3001 192,-3001 198,-3007 198,-3013 198,-3013 198,-3027 198,-3027 198,-3033 192,-3039 186,-3039"/>
<text text-anchor="middle" x="128" y="-3023.8" font-family="Courier,monospace" font-size="14.00" fill="#c9d1d9">SIMS1337BACKEND</text>
<text text-anchor="middle" x="128" y="-3008.8" font-family="Courier,monospace" font-size="14.00" fill="#c9d1d9">[]</text>
</g>
<!-- SIMS1337SKY -->
<g id="node50" class="node">
<title>SIMS1337SKY</title>
<path fill="#161b22" stroke="#58a6ff" d="M169.5,-3095C169.5,-3095 86.5,-3095 86.5,-3095 80.5,-3095 74.5,-3089 74.5,-3083 74.5,-3083 74.5,-3069 74.5,-3069 74.5,-3063 80.5,-3057 86.5,-3057 86.5,-3057 169.5,-3057 169.5,-3057 175.5,-3057 181.5,-3063 181.5,-3069 181.5,-3069 181.5,-3083 181.5,-3083 181.5,-3089 175.5,-3095 169.5,-3095"/>
<text text-anchor="middle" x="128" y="-3079.8" font-family="Courier,monospace" font-size="14.00" fill="#c9d1d9">SIMS1337SKY</text>
<text text-anchor="middle" x="128" y="-3064.8" font-family="Courier,monospace" font-size="14.00" fill="#c9d1d9">[]</text>
</g>
<!-- sovereign&#45;analytics -->
<g id="node51" class="node">
<title>sovereign&#45;analytics</title>
<path fill="#161b22" stroke="#58a6ff" d="M202.5,-3151C202.5,-3151 53.5,-3151 53.5,-3151 47.5,-3151 41.5,-3145 41.5,-3139 41.5,-3139 41.5,-3125 41.5,-3125 41.5,-3119 47.5,-3113 53.5,-3113 53.5,-3113 202.5,-3113 202.5,-3113 208.5,-3113 214.5,-3119 214.5,-3125 214.5,-3125 214.5,-3139 214.5,-3139 214.5,-3145 208.5,-3151 202.5,-3151"/>
<text text-anchor="middle" x="128" y="-3135.8" font-family="Courier,monospace" font-size="14.00" fill="#c9d1d9">sovereign&#45;analytics</text>
<text text-anchor="middle" x="128" y="-3120.8" font-family="Courier,monospace" font-size="14.00" fill="#c9d1d9">[]</text>
</g>
<!-- Sprite -->
<g id="node52" class="node">
<title>Sprite</title>
<path fill="#161b22" stroke="#58a6ff" d="M149,-3207C149,-3207 107,-3207 107,-3207 101,-3207 95,-3201 95,-3195 95,-3195 95,-3181 95,-3181 95,-3175 101,-3169 107,-3169 107,-3169 149,-3169 149,-3169 155,-3169 161,-3175 161,-3181 161,-3181 161,-3195 161,-3195 161,-3201 155,-3207 149,-3207"/>
<text text-anchor="middle" x="128" y="-3191.8" font-family="Courier,monospace" font-size="14.00" fill="#c9d1d9">Sprite</text>
<text text-anchor="middle" x="128" y="-3176.8" font-family="Courier,monospace" font-size="14.00" fill="#c9d1d9">[]</text>
</g>
<!-- teaching_sandbox -->
<g id="node53" class="node">
<title>teaching_sandbox</title>
<path fill="#161b22" stroke="#58a6ff" d="M190.5,-3263C190.5,-3263 65.5,-3263 65.5,-3263 59.5,-3263 53.5,-3257 53.5,-3251 53.5,-3251 53.5,-3237 53.5,-3237 53.5,-3231 59.5,-3225 65.5,-3225 65.5,-3225 190.5,-3225 190.5,-3225 196.5,-3225 202.5,-3231 202.5,-3237 202.5,-3237 202.5,-3251 202.5,-3251 202.5,-3257 196.5,-3263 190.5,-3263"/>
<text text-anchor="middle" x="128" y="-3247.8" font-family="Courier,monospace" font-size="14.00" fill="#c9d1d9">teaching_sandbox</text>
<text text-anchor="middle" x="128" y="-3232.8" font-family="Courier,monospace" font-size="14.00" fill="#c9d1d9">[]</text>
</g>
<!-- TestRepo999 -->
<g id="node54" class="node">
<title>TestRepo999</title>
<path fill="#161b22" stroke="#58a6ff" d="M169.5,-3319C169.5,-3319 86.5,-3319 86.5,-3319 80.5,-3319 74.5,-3313 74.5,-3307 74.5,-3307 74.5,-3293 74.5,-3293 74.5,-3287 80.5,-3281 86.5,-3281 86.5,-3281 169.5,-3281 169.5,-3281 175.5,-3281 181.5,-3287 181.5,-3293 181.5,-3293 181.5,-3307 181.5,-3307 181.5,-3313 175.5,-3319 169.5,-3319"/>
<text text-anchor="middle" x="128" y="-3303.8" font-family="Courier,monospace" font-size="14.00" fill="#c9d1d9">TestRepo999</text>
<text text-anchor="middle" x="128" y="-3288.8" font-family="Courier,monospace" font-size="14.00" fill="#c9d1d9">[]</text>
</g>
<!-- TestRepoPush -->
<g id="node55" class="node">
<title>TestRepoPush</title>
<path fill="#161b22" stroke="#58a6ff" d="M174,-3375C174,-3375 82,-3375 82,-3375 76,-3375 70,-3369 70,-3363 70,-3363 70,-3349 70,-3349 70,-3343 76,-3337 82,-3337 82,-3337 174,-3337 174,-3337 180,-3337 186,-3343 186,-3349 186,-3349 186,-3363 186,-3363 186,-3369 180,-3375 174,-3375"/>
<text text-anchor="middle" x="128" y="-3359.8" font-family="Courier,monospace" font-size="14.00" fill="#c9d1d9">TestRepoPush</text>
<text text-anchor="middle" x="128" y="-3344.8" font-family="Courier,monospace" font-size="14.00" fill="#c9d1d9">[]</text>
</g>
<!-- training_sandbox -->
<g id="node56" class="node">
<title>training_sandbox</title>
<path fill="#161b22" stroke="#58a6ff" d="M190.5,-3431C190.5,-3431 65.5,-3431 65.5,-3431 59.5,-3431 53.5,-3425 53.5,-3419 53.5,-3419 53.5,-3405 53.5,-3405 53.5,-3399 59.5,-3393 65.5,-3393 65.5,-3393 190.5,-3393 190.5,-3393 196.5,-3393 202.5,-3399 202.5,-3405 202.5,-3405 202.5,-3419 202.5,-3419 202.5,-3425 196.5,-3431 190.5,-3431"/>
<text text-anchor="middle" x="128" y="-3415.8" font-family="Courier,monospace" font-size="14.00" fill="#c9d1d9">training_sandbox</text>
<text text-anchor="middle" x="128" y="-3400.8" font-family="Courier,monospace" font-size="14.00" fill="#c9d1d9">[]</text>
</g>
<!-- vidalialed&#45;lite -->
<g id="node57" class="node">
<title>vidalialed&#45;lite</title>
<path fill="#161b22" stroke="#58a6ff" d="M186,-3487C186,-3487 70,-3487 70,-3487 64,-3487 58,-3481 58,-3475 58,-3475 58,-3461 58,-3461 58,-3455 64,-3449 70,-3449 70,-3449 186,-3449 186,-3449 192,-3449 198,-3455 198,-3461 198,-3461 198,-3475 198,-3475 198,-3481 192,-3487 186,-3487"/>
<text text-anchor="middle" x="128" y="-3471.8" font-family="Courier,monospace" font-size="14.00" fill="#c9d1d9">vidalialed&#45;lite</text>
<text text-anchor="middle" x="128" y="-3456.8" font-family="Courier,monospace" font-size="14.00" fill="#c9d1d9">[]</text>
</g>
<!-- wip&#45;quantum&#45;asm -->
<g id="node58" class="node">
<title>wip&#45;quantum&#45;asm</title>
<path fill="#161b22" stroke="#58a6ff" d="M186,-3543C186,-3543 70,-3543 70,-3543 64,-3543 58,-3537 58,-3531 58,-3531 58,-3517 58,-3517 58,-3511 64,-3505 70,-3505 70,-3505 186,-3505 186,-3505 192,-3505 198,-3511 198,-3517 198,-3517 198,-3531 198,-3531 198,-3537 192,-3543 186,-3543"/>
<text text-anchor="middle" x="128" y="-3527.8" font-family="Courier,monospace" font-size="14.00" fill="#c9d1d9">wip&#45;quantum&#45;asm</text>
<text text-anchor="middle" x="128" y="-3512.8" font-family="Courier,monospace" font-size="14.00" fill="#c9d1d9">[]</text>
</g>
<!-- WORKER_PACKAGE -->
<g id="node59" class="node">
<title>WORKER_PACKAGE</title>
<path fill="#161b22" stroke="#58a6ff" d="M182,-3599C182,-3599 74,-3599 74,-3599 68,-3599 62,-3593 62,-3587 62,-3587 62,-3573 62,-3573 62,-3567 68,-3561 74,-3561 74,-3561 182,-3561 182,-3561 188,-3561 194,-3567 194,-3573 194,-3573 194,-3587 194,-3587 194,-3593 188,-3599 182,-3599"/>
<text text-anchor="middle" x="128" y="-3583.8" font-family="Courier,monospace" font-size="14.00" fill="#c9d1d9">WORKER_PACKAGE</text>
<text text-anchor="middle" x="128" y="-3568.8" font-family="Courier,monospace" font-size="14.00" fill="#c9d1d9">[]</text>
</g>
</g>
</svg>
